<svg width="26" height="31" viewBox="0 0 26 31" fill="none" xmlns="http://www.w3.org/2000/svg">
<path d="M6 29.5C6 28.6716 6.67157 28 7.5 28H18.5C19.3284 28 20 28.6716 20 29.5C20 30.3284 19.3284 31 18.5 31H7.5C6.67157 31 6 30.3284 6 29.5Z" fill="#1A5FF2"/>
<path fill-rule="evenodd" clip-rule="evenodd" d="M15.7867 1.19012C15.787 1.19035 15.7873 1.19058 15.7876 1.19081L24.1028 7.83821C24.6934 8.31374 25.1417 9.01585 25.4175 9.73881C25.6934 10.462 25.8269 11.2849 25.7044 12.0347L25.704 12.0375L24.1079 21.5903C23.7588 23.6412 21.8037 25.298 19.721 25.298H6.28307C4.18913 25.298 2.24502 23.6538 1.89611 21.5894L0.300899 12.042C0.300758 12.0412 0.300618 12.0404 0.300478 12.0396C0.170651 11.2878 0.301272 10.4631 0.577593 9.7388C0.854076 9.01411 1.30636 8.31153 1.90385 7.83616C1.90423 7.83587 1.9046 7.83557 1.90498 7.83527L10.2172 1.17828C11.7644 -0.0623703 14.2299 -0.06041 15.7867 1.19012ZM14.8479 2.35997C13.837 1.5475 12.1518 1.54969 11.1556 2.3485L2.84049 9.00779L2.83834 9.0095C2.50054 9.27802 2.18533 9.73283 1.97906 10.2735C1.77275 10.8142 1.70539 11.3623 1.77883 11.7857L1.77962 11.7903L3.37513 21.3394C3.37517 21.3396 3.3751 21.3392 3.37513 21.3394C3.60241 22.6823 4.92173 23.798 6.28307 23.798H19.721C21.0695 23.798 22.4016 22.6717 22.6289 21.3397C22.629 21.3393 22.6291 21.3389 22.6291 21.3386L24.224 11.793C24.2241 11.7927 24.224 11.7933 24.224 11.793C24.2933 11.3671 24.2229 10.8157 24.0161 10.2735C23.8091 9.73113 23.4959 9.27575 23.163 9.00729C23.1627 9.00704 23.1624 9.0068 23.1621 9.00655L14.8494 2.36121L14.8479 2.35997ZM10.3507 11.3262C11.0539 10.623 12.0076 10.228 13.0021 10.228C13.9965 10.228 14.9502 10.623 15.6534 11.3262C16.3566 12.0294 16.7516 12.9831 16.7516 13.9775C16.7516 14.972 16.3566 15.9257 15.6534 16.6289C14.9502 17.3321 13.9965 17.7271 13.0021 17.7271C12.0076 17.7271 11.0539 17.3321 10.3507 16.6289C9.64755 15.9257 9.25251 14.972 9.25251 13.9775C9.25251 12.9831 9.64755 12.0294 10.3507 11.3262ZM13.0021 11.728C12.4054 11.728 11.8333 11.965 11.4114 12.3869C10.9895 12.8087 10.7525 13.3809 10.7525 13.9775C10.7525 14.5742 10.9895 15.1463 11.4114 15.5682C11.8333 15.9901 12.4054 16.2271 13.0021 16.2271C13.5987 16.2271 14.1709 15.9901 14.5927 15.5682C15.0146 15.1463 15.2516 14.5742 15.2516 13.9775C15.2516 13.3809 15.0146 12.8087 14.5927 12.3869C14.1709 11.965 13.5987 11.728 13.0021 11.728Z" fill="url(#paint0_linear_941_498)"/>
<defs>
<linearGradient id="paint0_linear_941_498" x1="13" y1="24.548" x2="11.566" y2="1.08765" gradientUnits="userSpaceOnUse">
<stop offset="0.00404003" stop-color="#1758F1"/>
<stop offset="1" stop-color="#35D3E1"/>
</linearGradient>
</defs>
</svg>
