<svg width="28" height="32" viewBox="0 0 28 32" fill="none" xmlns="http://www.w3.org/2000/svg">
<path fill-rule="evenodd" clip-rule="evenodd" d="M7.125 2.25C4.42671 2.25 2.25 4.42671 2.25 7.125V10.25C2.25 10.6642 1.91421 11 1.5 11C1.08579 11 0.75 10.6642 0.75 10.25V7.125C0.75 3.59829 3.59829 0.75 7.125 0.75H10.25C10.6642 0.75 11 1.08579 11 1.5C11 1.91421 10.6642 2.25 10.25 2.25H7.125ZM17 1.5C17 1.08579 17.3358 0.75 17.75 0.75H20.875C24.4017 0.75 27.25 3.59829 27.25 7.125V10.25C27.25 10.6642 26.9142 11 26.5 11C26.0858 11 25.75 10.6642 25.75 10.25V7.125C25.75 4.42671 23.5733 2.25 20.875 2.25H17.75C17.3358 2.25 17 1.91421 17 1.5ZM6.87408 6.87408C6.75184 6.99632 6.625 7.24061 6.625 7.75V10.25C6.625 10.7594 6.75184 11.0037 6.87408 11.1259C6.99632 11.2482 7.24061 11.375 7.75 11.375H10.25C10.7594 11.375 11.0037 11.2482 11.1259 11.1259C11.2482 11.0037 11.375 10.7594 11.375 10.25V7.75C11.375 7.24061 11.2482 6.99632 11.1259 6.87408C11.0037 6.75184 10.7594 6.625 10.25 6.625H7.75C7.24061 6.625 6.99632 6.75184 6.87408 6.87408ZM5.81342 5.81342C6.31618 5.31066 7.00939 5.125 7.75 5.125H10.25C10.9906 5.125 11.6838 5.31066 12.1866 5.81342C12.6893 6.31618 12.875 7.00939 12.875 7.75V10.25C12.875 10.9906 12.6893 11.6838 12.1866 12.1866C11.6838 12.6893 10.9906 12.875 10.25 12.875H7.75C7.00939 12.875 6.31618 12.6893 5.81342 12.1866C5.31066 11.6838 5.125 10.9906 5.125 10.25V7.75C5.125 7.00939 5.31066 6.31618 5.81342 5.81342ZM16.8741 6.87408C16.7518 6.99632 16.625 7.24061 16.625 7.75V10.25C16.625 10.7594 16.7518 11.0037 16.8741 11.1259C16.9963 11.2482 17.2406 11.375 17.75 11.375H20.25C20.7594 11.375 21.0037 11.2482 21.1259 11.1259C21.2482 11.0037 21.375 10.7594 21.375 10.25V7.75C21.375 7.24061 21.2482 6.99632 21.1259 6.87408C21.0037 6.75184 20.7594 6.625 20.25 6.625H17.75C17.2406 6.625 16.9963 6.75184 16.8741 6.87408ZM15.8134 5.81342C16.3162 5.31066 17.0094 5.125 17.75 5.125H20.25C20.9906 5.125 21.6838 5.31066 22.1866 5.81342C22.6893 6.31618 22.875 7.00939 22.875 7.75V10.25C22.875 10.9906 22.6893 11.6838 22.1866 12.1866C21.6838 12.6893 20.9906 12.875 20.25 12.875H17.75C17.0094 12.875 16.3162 12.6893 15.8134 12.1866C15.3107 11.6838 15.125 10.9906 15.125 10.25V7.75C15.125 7.00939 15.3107 6.31618 15.8134 5.81342ZM6.87408 16.8741C6.75184 16.9963 6.625 17.2406 6.625 17.75V20.25C6.625 20.7594 6.75184 21.0037 6.87408 21.1259C6.99632 21.2482 7.24061 21.375 7.75 21.375H10.25C10.7594 21.375 11.0037 21.2482 11.1259 21.1259C11.2482 21.0037 11.375 20.7594 11.375 20.25V17.75C11.375 17.2406 11.2482 16.9963 11.1259 16.8741C11.0037 16.7518 10.7594 16.625 10.25 16.625H7.75C7.24061 16.625 6.99632 16.7518 6.87408 16.8741ZM5.81342 15.8134C6.31618 15.3107 7.00939 15.125 7.75 15.125H10.25C10.9906 15.125 11.6838 15.3107 12.1866 15.8134C12.6893 16.3162 12.875 17.0094 12.875 17.75V20.25C12.875 20.9906 12.6893 21.6838 12.1866 22.1866C11.6838 22.6893 10.9906 22.875 10.25 22.875H7.75C7.00939 22.875 6.31618 22.6893 5.81342 22.1866C5.31066 21.6838 5.125 20.9906 5.125 20.25V17.75C5.125 17.0094 5.31066 16.3162 5.81342 15.8134ZM16.8741 16.8741C16.7518 16.9963 16.625 17.2406 16.625 17.75V20.25C16.625 20.7594 16.7518 21.0037 16.8741 21.1259C16.9963 21.2482 17.2406 21.375 17.75 21.375H20.25C20.7594 21.375 21.0037 21.2482 21.1259 21.1259C21.2482 21.0037 21.375 20.7594 21.375 20.25V17.75C21.375 17.2406 21.2482 16.9963 21.1259 16.8741C21.0037 16.7518 20.7594 16.625 20.25 16.625H17.75C17.2406 16.625 16.9963 16.7518 16.8741 16.8741ZM15.8134 15.8134C16.3162 15.3107 17.0094 15.125 17.75 15.125H20.25C20.9906 15.125 21.6838 15.3107 22.1866 15.8134C22.6893 16.3162 22.875 17.0094 22.875 17.75V20.25C22.875 20.9906 22.6893 21.6838 22.1866 22.1866C21.6838 22.6893 20.9906 22.875 20.25 22.875H17.75C17.0094 22.875 16.3162 22.6893 15.8134 22.1866C15.3107 21.6838 15.125 20.9906 15.125 20.25V17.75C15.125 17.0094 15.3107 16.3162 15.8134 15.8134ZM1.5 17C1.91421 17 2.25 17.3358 2.25 17.75V20.875C2.25 23.5733 4.42671 25.75 7.125 25.75H10.25C10.6642 25.75 11 26.0858 11 26.5C11 26.9142 10.6642 27.25 10.25 27.25H7.125C3.59829 27.25 0.75 24.4017 0.75 20.875V17.75C0.75 17.3358 1.08579 17 1.5 17ZM26.5 18.25C26.9142 18.25 27.25 18.5858 27.25 19V20.875C27.25 24.4017 24.4017 27.25 20.875 27.25H19C18.5858 27.25 18.25 26.9142 18.25 26.5C18.25 26.0858 18.5858 25.75 19 25.75H20.875C23.5733 25.75 25.75 23.5733 25.75 20.875V19C25.75 18.5858 26.0858 18.25 26.5 18.25Z" fill="url(#paint0_linear_941_507)"/>
<path d="M7 30.5C7 29.6716 7.67157 29 8.5 29H19.5C20.3284 29 21 29.6716 21 30.5C21 31.3284 20.3284 32 19.5 32H8.5C7.67157 32 7 31.3284 7 30.5Z" fill="#1A5FF2"/>
<defs>
<linearGradient id="paint0_linear_941_507" x1="14" y1="31.1156" x2="11.8459" y2="1.79268" gradientUnits="userSpaceOnUse">
<stop offset="0.00404003" stop-color="#1758F1"/>
<stop offset="1" stop-color="#35D3E1"/>
</linearGradient>
</defs>
</svg>
