<svg width="28" height="31" viewBox="0 0 28 31" fill="none" xmlns="http://www.w3.org/2000/svg">
<path fill-rule="evenodd" clip-rule="evenodd" d="M11.1659 2.61755C10.7807 1.97416 9.96203 1.76553 9.34597 2.13205L9.33506 2.13854L7.17251 3.37595C6.39764 3.81873 6.1313 4.82038 6.5744 5.58729L5.925 5.96249L6.57388 5.58639C7.2227 6.70577 7.37716 7.89568 6.82482 8.85416C6.27255 9.81251 5.16604 10.275 3.875 10.275C2.97928 10.275 2.25 11.0116 2.25 11.9V14.1C2.25 14.9883 2.97928 15.725 3.875 15.725C5.16604 15.725 6.27255 16.1875 6.82482 17.1458C7.37687 18.1038 7.22286 19.293 6.5749 20.4118C6.36169 20.7847 6.30488 21.2269 6.41695 21.6415C6.52906 22.0563 6.80097 22.4097 7.17311 22.6244C7.17349 22.6246 7.17386 22.6248 7.17424 22.625L9.34603 23.8678C9.96208 24.2344 10.7806 24.0258 11.1659 23.3825L11.3009 23.1492C11.9496 22.0302 12.9052 21.3031 14.0109 21.3031C15.1174 21.3031 16.0699 22.0306 16.7124 23.1506C16.7126 23.151 16.7129 23.1515 16.7132 23.152L16.8466 23.3825C17.2319 24.0258 18.0505 24.2344 18.6665 23.8679L18.6774 23.8615L20.84 22.624C21.6136 22.182 21.8828 21.1923 21.437 20.4107C20.7895 19.2922 20.6358 18.1035 21.1877 17.1458C21.74 16.1875 22.8465 15.725 24.1375 15.725C25.0332 15.725 25.7625 14.9883 25.7625 14.1V11.9C25.7625 11.0043 25.0259 10.275 24.1375 10.275C22.8465 10.275 21.74 9.81251 21.1877 8.85416C20.6355 7.89594 20.7897 6.70641 21.4381 5.58729C21.8812 4.82038 21.6153 3.81896 20.8404 3.37618L18.6665 2.13214C18.0504 1.76562 17.2318 1.97416 16.8466 2.61754L16.7116 2.85077C16.0629 3.96983 15.1073 4.69687 14.0016 4.69687C12.8951 4.69687 11.9426 3.96938 11.3001 2.84936C11.2999 2.84891 11.2996 2.84845 11.2993 2.84799L11.1659 2.61755ZM8.5849 0.839457C9.94186 0.0365216 11.6676 0.527002 12.4571 1.85403L12.4616 1.86169L12.5991 2.09922L12.6007 2.102C13.0832 2.94371 13.6179 3.19687 14.0016 3.19687C14.3864 3.19687 14.9246 2.9424 15.4134 2.09922C15.4135 2.09911 15.4134 2.09932 15.4134 2.09922L15.5554 1.854C16.3449 0.526976 18.0706 0.036523 19.4276 0.839453L21.5846 2.07381C23.0847 2.93103 23.5938 4.85461 22.7369 6.3377L22.7364 6.3386C22.2477 7.18171 22.2959 7.77306 22.4873 8.10521C22.6788 8.43748 23.166 8.77499 24.1375 8.77499C25.8491 8.77499 27.2625 10.1707 27.2625 11.9V14.1C27.2625 15.8116 25.8668 17.225 24.1375 17.225C23.166 17.225 22.6788 17.5625 22.4873 17.8948C22.2959 18.2269 22.2477 18.8183 22.7364 19.6614L22.7387 19.6654C23.592 21.1586 23.0856 23.0685 21.5846 23.9262L19.4276 25.1605C18.0707 25.9635 16.3449 25.473 15.5554 24.146L15.5509 24.1383L15.4134 23.9008L15.4118 23.898C14.9293 23.0563 14.3946 22.8031 14.0109 22.8031C13.6261 22.8031 13.0879 23.0576 12.5991 23.9008C12.599 23.9009 12.5991 23.9007 12.5991 23.9008L12.4571 24.146C11.6676 25.473 9.94193 25.9634 8.58498 25.1606L6.42749 23.9259L6.42576 23.9249C5.70873 23.5121 5.18478 22.8316 4.96891 22.0329C4.75303 21.2342 4.86287 20.3824 5.2743 19.6645L5.27612 19.6614C5.76481 18.8183 5.71659 18.2269 5.52518 17.8948C5.3337 17.5625 4.84646 17.225 3.875 17.225C2.14572 17.225 0.75 15.8116 0.75 14.1V11.9C0.75 10.1883 2.14572 8.77499 3.875 8.77499C4.84646 8.77499 5.3337 8.43748 5.52518 8.10521C5.71659 7.77306 5.7648 7.18171 5.27612 6.3386L5.2756 6.3377C4.41878 4.85474 4.92768 2.93137 6.42749 2.07404L8.5849 0.839457ZM10.818 9.81802C11.6619 8.9741 12.8065 8.5 14 8.5C15.1935 8.5 16.3381 8.9741 17.182 9.81802C18.0259 10.6619 18.5 11.8065 18.5 13C18.5 14.1935 18.0259 15.3381 17.182 16.182C16.3381 17.0259 15.1935 17.5 14 17.5C12.8065 17.5 11.6619 17.0259 10.818 16.182C9.97411 15.3381 9.5 14.1935 9.5 13C9.5 11.8065 9.97411 10.6619 10.818 9.81802ZM14 10C13.2044 10 12.4413 10.3161 11.8787 10.8787C11.3161 11.4413 11 12.2043 11 13C11 13.7956 11.3161 14.5587 11.8787 15.1213C12.4413 15.6839 13.2044 16 14 16C14.7957 16 15.5587 15.6839 16.1213 15.1213C16.6839 14.5587 17 13.7956 17 13C17 12.2043 16.6839 11.4413 16.1213 10.8787C15.5587 10.3161 14.7956 10 14 10Z" fill="url(#paint0_linear_941_503)"/>
<path d="M7 29.5C7 28.6716 7.67157 28 8.5 28H19.5C20.3284 28 21 28.6716 21 29.5C21 30.3284 20.3284 31 19.5 31H8.5C7.67157 31 7 30.3284 7 29.5Z" fill="#1A5FF2"/>
<defs>
<linearGradient id="paint0_linear_941_503" x1="14.0063" y1="30.0863" x2="11.9621" y2="1.51068" gradientUnits="userSpaceOnUse">
<stop offset="0.0115886" stop-color="#1A5FF2"/>
<stop offset="1" stop-color="#35D3E1"/>
</linearGradient>
</defs>
</svg>
