<svg width="24" height="23" viewBox="0 0 24 23" fill="none" xmlns="http://www.w3.org/2000/svg">
<path d="M17.345 0.333374C16.2507 0.350396 15.1802 0.655879 14.2417 1.21897C13.3032 1.78207 12.5299 2.58284 11.9999 3.54041C11.4699 2.58284 10.6966 1.78207 9.75814 1.21897C8.81964 0.655879 7.74918 0.350396 6.65485 0.333374C4.91036 0.409168 3.26677 1.17231 2.08315 2.45608C0.899538 3.73984 0.272115 5.43988 0.337957 7.18478C0.337957 13.7689 10.9853 21.3735 11.4382 21.6961L11.9999 22.0936L12.5616 21.6961C13.0145 21.3754 23.6619 13.7689 23.6619 7.18478C23.7277 5.43988 23.1003 3.73984 21.9167 2.45608C20.7331 1.17231 19.0895 0.409168 17.345 0.333374Z" fill="#1758F1"/>
</svg>
