<svg width="28" height="27" viewBox="0 0 28 27" fill="none" xmlns="http://www.w3.org/2000/svg">
<path d="M13.1251 4.3327L14 5.91348L14.8749 4.3327C15.4257 3.33757 16.2293 2.50539 17.2046 1.92021C18.1715 1.34008 19.2732 1.02306 20.4002 1.0004C22.2186 1.08717 23.9304 1.88608 25.1649 3.22509C26.4061 4.57135 27.0641 6.35414 26.9951 8.18398L26.9944 8.20282V8.22168C26.9944 9.93794 26.2951 11.8049 25.1363 13.7C23.9839 15.5847 22.4259 17.4178 20.825 19.0459C17.6236 22.3018 14.3488 24.6403 14.0961 24.8192L14 24.8873L13.9062 24.8209C13.9057 24.8205 13.9052 24.8202 13.9047 24.8198C13.6386 24.6302 10.3702 22.2943 7.17502 19.045C5.5741 17.417 4.01605 15.5841 2.86364 13.6996C1.70486 11.8047 1.00565 9.93792 1.00565 8.22168V8.20282L1.00493 8.18398C0.935887 6.35414 1.59385 4.57135 2.83508 3.22509C4.06963 1.88608 5.78137 1.08717 7.59979 1.0004C8.7268 1.02307 9.82848 1.34008 10.7954 1.92021C11.7707 2.50539 12.5743 3.33757 13.1251 4.3327Z" stroke="#ECF0F3" stroke-width="2"/>
</svg>
