<svg width="302" height="112" viewBox="0 0 302 112" fill="none" xmlns="http://www.w3.org/2000/svg">
<g filter="url(#filter0_dd_102_1751)">
<path d="M214.028 47.3204C213.863 47.3204 213.699 47.3031 213.538 47.2709C213.377 47.2386 213.221 47.1912 213.071 47.1288C212.918 47.0664 212.774 46.9889 212.637 46.8963C212.502 46.8059 212.375 46.7005 212.259 46.5842C212.143 46.468 212.038 46.341 211.948 46.2033C211.856 46.0655 211.779 45.9213 211.716 45.7685C211.654 45.6156 211.607 45.4585 211.575 45.2971C211.542 45.1357 211.527 44.9721 211.527 44.8063V33.7085C211.527 33.5449 211.542 33.3813 211.575 33.2199C211.607 33.0563 211.654 32.8991 211.716 32.7485C211.779 32.5956 211.856 32.4493 211.948 32.3137C212.038 32.1759 212.143 32.0489 212.259 31.9327C212.375 31.8165 212.502 31.711 212.637 31.6206C212.774 31.528 212.918 31.4506 213.071 31.3881C213.221 31.3236 213.377 31.2762 213.538 31.2439C213.699 31.2116 213.863 31.1966 214.028 31.1966C214.191 31.1966 214.354 31.2116 214.515 31.2439C214.676 31.2762 214.833 31.3236 214.985 31.3881C215.135 31.4506 215.279 31.528 215.416 31.6206C215.554 31.711 215.68 31.8165 215.796 31.9327C215.912 32.0489 216.015 32.1759 216.108 32.3137C216.198 32.4493 216.275 32.5956 216.337 32.7485C216.399 32.8991 216.449 33.0563 216.481 33.2199C216.511 33.3813 216.528 33.5449 216.528 33.7085V44.8063C216.528 44.9721 216.511 45.1357 216.481 45.2971C216.449 45.4585 216.399 45.6156 216.337 45.7685C216.275 45.9213 216.198 46.0655 216.108 46.2033C216.015 46.341 215.912 46.468 215.796 46.5842C215.68 46.7005 215.554 46.8059 215.416 46.8963C215.279 46.9889 215.135 47.0664 214.985 47.1288C214.833 47.1912 214.676 47.2386 214.515 47.2709C214.354 47.3031 214.191 47.3204 214.028 47.3204Z" fill="url(#paint0_linear_102_1751)"/>
<path d="M211.914 34.9138C211.832 34.7696 211.763 34.6211 211.712 34.4639C211.658 34.309 211.622 34.1475 211.6 33.984C211.579 33.8204 211.572 33.6568 211.583 33.4932C211.594 33.3275 211.622 33.166 211.665 33.0068C211.706 32.8475 211.763 32.6925 211.836 32.5461C211.909 32.3976 211.995 32.2577 212.096 32.1264C212.195 31.9973 212.306 31.8767 212.431 31.767C212.553 31.6593 212.686 31.5625 212.828 31.4807L222.394 25.9317C222.536 25.85 222.686 25.7811 222.84 25.7273C222.997 25.6756 223.156 25.639 223.319 25.6175C223.482 25.596 223.645 25.5895 223.808 25.6003C223.972 25.611 224.132 25.6369 224.291 25.6799C224.45 25.723 224.605 25.7811 224.751 25.8543C224.899 25.9274 225.036 26.0135 225.167 26.1147C225.298 26.2137 225.416 26.3278 225.525 26.4505C225.633 26.5753 225.729 26.7088 225.811 26.8508C225.892 26.995 225.961 27.1436 226.013 27.3007C226.066 27.4557 226.103 27.6171 226.124 27.7807C226.146 27.9443 226.15 28.1078 226.139 28.2714C226.129 28.4372 226.103 28.5986 226.06 28.7579C226.017 28.9172 225.961 29.0721 225.888 29.2185C225.815 29.367 225.729 29.5069 225.628 29.6382C225.53 29.7674 225.418 29.8879 225.294 29.9977C225.171 30.1053 225.038 30.2022 224.894 30.2839L215.331 35.8329C215.187 35.9147 215.039 35.9836 214.884 36.0374C214.727 36.089 214.569 36.1256 214.406 36.1471C214.242 36.1687 214.079 36.1751 213.916 36.1644C213.751 36.1536 213.59 36.1278 213.431 36.0847C213.274 36.0417 213.12 35.9836 212.974 35.9104C212.826 35.8372 212.686 35.7511 212.558 35.6499C212.427 35.5509 212.306 35.4368 212.199 35.3141C212.092 35.1893 211.995 35.0559 211.914 34.9138Z" fill="url(#paint1_linear_102_1751)"/>
<path d="M225.811 40.4412C225.729 40.5833 225.633 40.7189 225.525 40.8416C225.416 40.9664 225.298 41.0783 225.167 41.1795C225.036 41.2785 224.899 41.3668 224.751 41.4378C224.605 41.511 224.45 41.5691 224.291 41.6121C224.132 41.6552 223.972 41.681 223.808 41.6918C223.645 41.7025 223.482 41.6982 223.319 41.6767C223.156 41.6552 222.997 41.6186 222.84 41.5648C222.686 41.511 222.536 41.4442 222.394 41.3603L212.828 35.8114C212.686 35.7296 212.553 35.6349 212.431 35.5251C212.306 35.4153 212.195 35.2969 212.096 35.1656C211.995 35.0343 211.909 34.8944 211.836 34.7481C211.763 34.5995 211.706 34.4467 211.665 34.2853C211.622 34.126 211.594 33.9646 211.583 33.801C211.572 33.6353 211.579 33.4717 211.6 33.3081C211.622 33.1445 211.658 32.9852 211.712 32.8281C211.763 32.671 211.832 32.5225 211.914 32.3804C211.995 32.2362 212.092 32.1027 212.199 31.9801C212.306 31.8552 212.427 31.7433 212.558 31.6421C212.686 31.541 212.826 31.4549 212.974 31.3817C213.12 31.3085 213.274 31.2525 213.431 31.2095C213.59 31.1664 213.751 31.1385 213.916 31.1277C214.079 31.1169 214.242 31.1234 214.406 31.1449C214.569 31.1664 214.727 31.203 214.884 31.2568C215.039 31.3085 215.187 31.3774 215.331 31.4592L224.894 37.0081C225.038 37.0921 225.171 37.1868 225.294 37.2965C225.418 37.4042 225.53 37.5247 225.628 37.656C225.729 37.7873 225.815 37.925 225.888 38.0736C225.961 38.2221 226.017 38.3749 226.06 38.5342C226.103 38.6935 226.129 38.857 226.139 39.0206C226.15 39.1864 226.146 39.3499 226.124 39.5135C226.103 39.6771 226.066 39.8364 226.013 39.9935C225.961 40.1485 225.892 40.2992 225.811 40.4412Z" fill="url(#paint2_linear_102_1751)"/>
<path d="M290.5 47.3204C290.334 47.3204 290.173 47.3031 290.012 47.2709C289.851 47.2386 289.695 47.1912 289.542 47.1288C289.39 47.0664 289.246 46.9889 289.111 46.8963C288.974 46.8059 288.847 46.7005 288.731 46.5842C288.615 46.468 288.512 46.341 288.42 46.2033C288.33 46.0655 288.252 45.9213 288.19 45.7685C288.126 45.6156 288.079 45.4585 288.046 45.2971C288.014 45.1357 287.999 44.9721 287.999 44.8063V33.7085C287.999 33.5449 288.014 33.3813 288.046 33.2199C288.079 33.0563 288.126 32.8991 288.19 32.7485C288.252 32.5956 288.33 32.4493 288.42 32.3137C288.512 32.1759 288.615 32.0489 288.731 31.9327C288.847 31.8165 288.974 31.711 289.111 31.6206C289.246 31.528 289.39 31.4506 289.542 31.3881C289.695 31.3236 289.851 31.2762 290.012 31.2439C290.173 31.2116 290.334 31.1966 290.5 31.1966C290.665 31.1966 290.826 31.2116 290.987 31.2439C291.148 31.2762 291.304 31.3236 291.457 31.3881C291.609 31.4506 291.753 31.528 291.888 31.6206C292.026 31.711 292.152 31.8165 292.268 31.9327C292.384 32.0489 292.487 32.1759 292.579 32.3137C292.669 32.4493 292.747 32.5956 292.809 32.7485C292.873 32.8991 292.921 33.0563 292.953 33.2199C292.985 33.3813 293 33.5449 293 33.7085V44.8063C293 44.9721 292.985 45.1357 292.953 45.2971C292.921 45.4585 292.873 45.6156 292.809 45.7685C292.747 45.9213 292.669 46.0655 292.579 46.2033C292.487 46.341 292.384 46.468 292.268 46.5842C292.152 46.7005 292.026 46.8059 291.888 46.8963C291.753 46.9889 291.609 47.0664 291.457 47.1288C291.304 47.1912 291.148 47.2386 290.987 47.2709C290.826 47.3031 290.665 47.3204 290.5 47.3204Z" fill="url(#paint3_linear_102_1751)"/>
<path d="M278.717 26.8508C278.798 26.7088 278.893 26.5753 279.002 26.4505C279.109 26.3278 279.229 26.2137 279.36 26.1147C279.489 26.0135 279.629 25.9274 279.777 25.8543C279.923 25.7811 280.075 25.723 280.234 25.6799C280.393 25.6369 280.554 25.611 280.719 25.6003C280.882 25.5895 281.045 25.596 281.208 25.6175C281.371 25.639 281.53 25.6756 281.685 25.7294C281.842 25.7811 281.99 25.85 282.133 25.9317L291.697 31.4807C291.841 31.5625 291.972 31.6593 292.096 31.767C292.219 31.8767 292.332 31.9973 292.431 32.1264C292.532 32.2577 292.618 32.3976 292.691 32.5461C292.764 32.6925 292.82 32.8475 292.863 33.0068C292.906 33.166 292.931 33.3275 292.942 33.4932C292.953 33.6568 292.948 33.8204 292.927 33.984C292.906 34.1475 292.869 34.309 292.815 34.4639C292.762 34.6211 292.695 34.7696 292.614 34.9138C292.532 35.0559 292.436 35.1893 292.328 35.3141C292.219 35.4368 292.101 35.5509 291.97 35.6499C291.839 35.7511 291.702 35.8372 291.553 35.9104C291.405 35.9836 291.253 36.0417 291.094 36.0847C290.935 36.1278 290.774 36.1536 290.611 36.1644C290.448 36.1751 290.283 36.1708 290.122 36.1471C289.959 36.1256 289.8 36.089 289.643 36.0374C289.489 35.9836 289.338 35.9147 289.197 35.8329L279.631 30.2839C279.489 30.2022 279.356 30.1053 279.234 29.9977C279.109 29.8879 278.998 29.7674 278.899 29.6382C278.798 29.5069 278.712 29.367 278.639 29.2185C278.566 29.0721 278.508 28.9172 278.465 28.7579C278.425 28.5986 278.397 28.4372 278.386 28.2714C278.375 28.1078 278.382 27.9443 278.403 27.7807C278.425 27.6171 278.461 27.4557 278.515 27.3007C278.566 27.1436 278.635 26.995 278.717 26.8508Z" fill="url(#paint4_linear_102_1751)"/>
<path d="M292.614 32.3804C292.695 32.5225 292.764 32.6731 292.815 32.8281C292.869 32.9852 292.906 33.1445 292.927 33.3081C292.948 33.4717 292.953 33.6353 292.942 33.801C292.931 33.9646 292.906 34.126 292.863 34.2874C292.82 34.4467 292.764 34.5995 292.691 34.7481C292.618 34.8944 292.532 35.0343 292.431 35.1656C292.332 35.2969 292.221 35.4175 292.096 35.5251C291.974 35.6349 291.841 35.7296 291.697 35.8114L282.133 41.3603C281.99 41.4442 281.842 41.511 281.687 41.5648C281.53 41.6186 281.371 41.6552 281.208 41.6767C281.045 41.6982 280.882 41.7025 280.719 41.6918C280.554 41.681 280.393 41.6552 280.234 41.6121C280.077 41.5691 279.923 41.511 279.777 41.4378C279.629 41.3668 279.489 41.2785 279.36 41.1795C279.229 41.0783 279.109 40.9664 279.002 40.8416C278.895 40.7189 278.798 40.5854 278.717 40.4412C278.635 40.2992 278.566 40.1485 278.515 39.9935C278.461 39.8364 278.425 39.6771 278.403 39.5135C278.382 39.3499 278.375 39.1864 278.386 39.0206C278.397 38.857 278.425 38.6935 278.468 38.5342C278.508 38.3749 278.566 38.2221 278.639 38.0736C278.712 37.925 278.798 37.7873 278.899 37.656C278.998 37.5247 279.109 37.4042 279.234 37.2965C279.356 37.1868 279.489 37.0921 279.631 37.0081L289.197 31.4592C289.338 31.3774 289.489 31.3106 289.643 31.2568C289.8 31.203 289.959 31.1664 290.122 31.1449C290.285 31.1234 290.448 31.1169 290.611 31.1277C290.774 31.1385 290.935 31.1664 291.094 31.2095C291.253 31.2525 291.407 31.3085 291.553 31.3817C291.702 31.4549 291.839 31.5431 291.97 31.6421C292.101 31.7433 292.219 31.8552 292.328 31.9801C292.436 32.1027 292.532 32.2362 292.614 32.3804Z" fill="url(#paint5_linear_102_1751)"/>
<path d="M214.028 80.2481C213.863 80.2481 213.699 80.233 213.538 80.2007C213.377 80.1685 213.221 80.1211 213.071 80.0565C212.918 79.9941 212.774 79.9166 212.637 79.8241C212.502 79.7337 212.375 79.6282 212.259 79.512C212.143 79.3957 212.038 79.2687 211.948 79.131C211.856 78.9954 211.779 78.849 211.716 78.6962C211.654 78.5455 211.607 78.3884 211.575 78.2248C211.542 78.0634 211.527 77.8998 211.527 77.7362V66.6383C211.527 66.4726 211.542 66.309 211.575 66.1476C211.607 65.9862 211.654 65.829 211.716 65.6762C211.779 65.5234 211.856 65.3792 211.948 65.2414C212.038 65.1037 212.143 64.9767 212.259 64.8604C212.375 64.7442 212.502 64.6387 212.637 64.5483C212.774 64.4558 212.918 64.3783 213.071 64.3159C213.221 64.2535 213.377 64.2061 213.538 64.1738C213.699 64.1415 213.863 64.1243 214.028 64.1243C214.191 64.1243 214.354 64.1415 214.515 64.1738C214.676 64.2061 214.833 64.2535 214.985 64.3159C215.135 64.3783 215.279 64.4558 215.416 64.5483C215.554 64.6387 215.68 64.7442 215.796 64.8604C215.912 64.9767 216.015 65.1037 216.108 65.2414C216.198 65.3792 216.275 65.5234 216.337 65.6762C216.399 65.829 216.449 65.9862 216.481 66.1476C216.511 66.309 216.528 66.4726 216.528 66.6383V77.7362C216.528 77.8998 216.511 78.0634 216.481 78.2248C216.449 78.3884 216.399 78.5455 216.337 78.6962C216.275 78.849 216.198 78.9954 216.108 79.131C216.015 79.2687 215.912 79.3957 215.796 79.512C215.68 79.6282 215.554 79.7337 215.416 79.8241C215.279 79.9166 215.135 79.9941 214.985 80.0565C214.833 80.1211 214.676 80.1685 214.515 80.2007C214.354 80.233 214.191 80.2481 214.028 80.2481Z" fill="url(#paint6_linear_102_1751)"/>
<path d="M225.811 84.5938C225.729 84.7359 225.633 84.8694 225.525 84.9942C225.416 85.1169 225.298 85.231 225.167 85.33C225.036 85.4311 224.899 85.5172 224.751 85.5904C224.603 85.6636 224.45 85.7217 224.291 85.7648C224.132 85.8078 223.972 85.8336 223.808 85.8444C223.645 85.8552 223.482 85.8509 223.319 85.8293C223.156 85.8057 222.997 85.7691 222.84 85.7174C222.686 85.6636 222.536 85.5947 222.394 85.5129L212.828 79.964C212.686 79.8822 212.553 79.7853 212.431 79.6777C212.306 79.5679 212.195 79.4474 212.096 79.3183C211.995 79.187 211.909 79.0471 211.836 78.8985C211.763 78.7522 211.706 78.5972 211.665 78.4379C211.622 78.2786 211.594 78.1172 211.583 77.9515C211.572 77.7879 211.579 77.6243 211.6 77.4607C211.622 77.2971 211.658 77.1357 211.712 76.9807C211.763 76.8236 211.832 76.6751 211.914 76.5309C211.995 76.3888 212.092 76.2554 212.199 76.1305C212.306 76.0078 212.427 75.8938 212.558 75.7947C212.686 75.6936 212.826 75.6075 212.974 75.5343C213.12 75.4611 213.274 75.403 213.431 75.36C213.59 75.3169 213.751 75.2911 213.916 75.2803C214.079 75.2695 214.242 75.276 214.406 75.2975C214.569 75.3191 214.727 75.3557 214.884 75.4095C215.039 75.4611 215.187 75.53 215.331 75.6118L224.894 81.1607C225.038 81.2425 225.169 81.3394 225.294 81.447C225.418 81.5568 225.53 81.6773 225.628 81.8065C225.729 81.9378 225.815 82.0777 225.888 82.2262C225.961 82.3725 226.017 82.5275 226.06 82.6868C226.103 82.8461 226.129 83.0075 226.139 83.1732C226.15 83.3368 226.146 83.5004 226.124 83.664C226.103 83.8276 226.066 83.989 226.013 84.144C225.961 84.3011 225.892 84.4496 225.811 84.5938Z" fill="url(#paint7_linear_102_1751)"/>
<path d="M290.5 80.2481C290.334 80.2481 290.173 80.233 290.012 80.2007C289.851 80.1685 289.695 80.1211 289.542 80.0565C289.39 79.9941 289.246 79.9166 289.111 79.8241C288.974 79.7337 288.847 79.6282 288.731 79.512C288.615 79.3957 288.512 79.2687 288.42 79.131C288.33 78.9954 288.252 78.849 288.19 78.6962C288.126 78.5455 288.079 78.3884 288.046 78.2248C288.014 78.0634 287.999 77.8998 287.999 77.7362V66.6383C287.999 66.4726 288.014 66.309 288.046 66.1476C288.079 65.9862 288.126 65.829 288.19 65.6762C288.252 65.5234 288.33 65.3792 288.42 65.2414C288.512 65.1037 288.615 64.9767 288.731 64.8604C288.847 64.7442 288.974 64.6387 289.111 64.5483C289.246 64.4558 289.39 64.3783 289.542 64.3159C289.695 64.2535 289.851 64.2061 290.012 64.1738C290.173 64.1415 290.334 64.1243 290.5 64.1243C290.665 64.1243 290.826 64.1415 290.987 64.1738C291.148 64.2061 291.304 64.2535 291.457 64.3159C291.609 64.3783 291.753 64.4558 291.888 64.5483C292.026 64.6387 292.152 64.7442 292.268 64.8604C292.384 64.9767 292.487 65.1037 292.579 65.2414C292.669 65.3792 292.747 65.5234 292.809 65.6762C292.873 65.829 292.921 65.9862 292.953 66.1476C292.985 66.309 293 66.4726 293 66.6383V77.7362C293 77.8998 292.985 78.0634 292.953 78.2248C292.921 78.3884 292.873 78.5455 292.809 78.6962C292.747 78.849 292.669 78.9954 292.579 79.131C292.487 79.2687 292.384 79.3957 292.268 79.512C292.152 79.6282 292.026 79.7337 291.888 79.8241C291.753 79.9166 291.609 79.9941 291.457 80.0565C291.304 80.1211 291.148 80.1685 290.987 80.2007C290.826 80.233 290.665 80.2481 290.5 80.2481Z" fill="url(#paint8_linear_102_1751)"/>
<path d="M292.614 76.5309C292.695 76.6751 292.762 76.8236 292.815 76.9807C292.869 77.1357 292.906 77.2971 292.927 77.4607C292.948 77.6243 292.953 77.7879 292.942 77.9515C292.931 78.1172 292.906 78.2786 292.863 78.4379C292.82 78.5972 292.764 78.7522 292.691 78.8985C292.618 79.0471 292.532 79.187 292.431 79.3183C292.332 79.4496 292.219 79.5679 292.096 79.6777C291.972 79.7853 291.841 79.8822 291.697 79.964L282.133 85.5129C281.99 85.5947 281.842 85.6636 281.685 85.7174C281.53 85.7691 281.371 85.8078 281.208 85.8293C281.045 85.8509 280.882 85.8552 280.719 85.8444C280.554 85.8336 280.393 85.8078 280.234 85.7648C280.075 85.7217 279.923 85.6636 279.777 85.5904C279.629 85.5172 279.489 85.4311 279.36 85.33C279.229 85.231 279.109 85.1169 279.002 84.9942C278.893 84.8694 278.798 84.7359 278.717 84.5938C278.635 84.4496 278.566 84.3011 278.515 84.144C278.461 83.989 278.425 83.8276 278.403 83.664C278.382 83.5004 278.375 83.3368 278.386 83.1732C278.397 83.0075 278.425 82.8461 278.465 82.6868C278.508 82.5275 278.566 82.3747 278.639 82.2262C278.712 82.0777 278.798 81.9378 278.899 81.8065C278.998 81.6773 279.109 81.5568 279.234 81.447C279.356 81.3394 279.489 81.2425 279.631 81.1607L289.197 75.6118C289.338 75.53 289.489 75.4611 289.643 75.4095C289.8 75.3557 289.959 75.3191 290.122 75.2975C290.283 75.276 290.448 75.2695 290.611 75.2803C290.774 75.2911 290.935 75.3191 291.094 75.36C291.253 75.403 291.405 75.4611 291.553 75.5343C291.702 75.6075 291.839 75.6936 291.97 75.7947C292.101 75.8959 292.219 76.0078 292.328 76.1305C292.436 76.2554 292.532 76.3888 292.614 76.5309Z" fill="url(#paint9_linear_102_1751)"/>
<path d="M264.021 18.3186C263.939 18.4607 263.843 18.5941 263.736 18.719C263.626 18.8417 263.508 18.9558 263.377 19.0548C263.246 19.1559 263.109 19.242 262.961 19.3152C262.815 19.3884 262.66 19.4465 262.501 19.4896C262.343 19.5326 262.182 19.5584 262.019 19.5692C261.855 19.58 261.692 19.5735 261.529 19.552C261.366 19.5305 261.207 19.4939 261.051 19.4422C260.896 19.3884 260.746 19.3195 260.604 19.2377L251.038 13.6888C250.897 13.607 250.763 13.5101 250.641 13.4025C250.517 13.2927 250.405 13.1722 250.306 13.0431C250.205 12.9118 250.12 12.7718 250.047 12.6233C249.974 12.477 249.916 12.322 249.875 12.1627C249.832 12.0034 249.804 11.842 249.793 11.6763C249.783 11.5127 249.789 11.3491 249.811 11.1855C249.832 11.0219 249.868 10.8605 249.922 10.7055C249.974 10.5484 250.042 10.3999 250.124 10.2557C250.205 10.1136 250.302 9.98016 250.409 9.85532C250.517 9.73263 250.637 9.61855 250.768 9.51954C250.897 9.41838 251.036 9.33228 251.184 9.2591C251.33 9.18592 251.485 9.1278 251.641 9.08475C251.8 9.0417 251.961 9.01587 252.126 9.00511C252.289 8.99435 252.453 9.00081 252.616 9.02233C252.779 9.04386 252.938 9.08045 253.094 9.13211C253.249 9.18592 253.397 9.25479 253.541 9.33659L263.105 14.8855C263.248 14.9673 263.381 15.0642 263.504 15.1718C263.628 15.2816 263.74 15.4021 263.839 15.5313C263.939 15.6626 264.025 15.8025 264.098 15.951C264.171 16.0973 264.227 16.2523 264.27 16.4116C264.313 16.5709 264.339 16.7323 264.349 16.898C264.36 17.0616 264.356 17.2252 264.334 17.3888C264.313 17.5524 264.276 17.7138 264.223 17.8688C264.171 18.0259 264.103 18.1744 264.021 18.3186Z" fill="url(#paint10_linear_102_1751)"/>
<path d="M254.517 10.2557C254.599 10.3999 254.668 10.5484 254.719 10.7055C254.773 10.8605 254.809 11.0219 254.831 11.1855C254.852 11.3491 254.859 11.5127 254.848 11.6763C254.837 11.842 254.809 12.0034 254.768 12.1627C254.726 12.322 254.668 12.477 254.595 12.6233C254.522 12.7718 254.436 12.9118 254.337 13.0431C254.236 13.1722 254.125 13.2927 254 13.4025C253.878 13.5101 253.745 13.607 253.603 13.6888L244.037 19.2377C243.895 19.3195 243.745 19.3884 243.591 19.4422C243.434 19.4939 243.275 19.5305 243.112 19.552C242.951 19.5735 242.788 19.58 242.623 19.5692C242.46 19.5584 242.299 19.5326 242.14 19.4896C241.981 19.4465 241.829 19.3884 241.68 19.3152C241.532 19.242 241.395 19.1559 241.264 19.0548C241.133 18.9558 241.015 18.8417 240.906 18.719C240.798 18.5941 240.704 18.4607 240.62 18.3186C240.539 18.1744 240.472 18.0259 240.418 17.8688C240.365 17.7138 240.328 17.5524 240.307 17.3888C240.285 17.2252 240.281 17.0616 240.292 16.898C240.303 16.7323 240.328 16.5709 240.371 16.4116C240.414 16.2523 240.472 16.0973 240.543 15.951C240.616 15.8025 240.702 15.6626 240.803 15.5313C240.903 15.4021 241.015 15.2816 241.137 15.1718C241.262 15.0642 241.395 14.9673 241.537 14.8855L251.103 9.33659C251.244 9.25479 251.392 9.18592 251.549 9.13211C251.704 9.08045 251.862 9.04386 252.025 9.02233C252.189 9.00081 252.352 8.99435 252.515 9.00511C252.68 9.01587 252.841 9.0417 253 9.08475C253.159 9.1278 253.311 9.18592 253.457 9.2591C253.605 9.33228 253.745 9.41838 253.873 9.51954C254.004 9.61855 254.125 9.73263 254.232 9.85532C254.341 9.98016 254.436 10.1136 254.517 10.2557Z" fill="url(#paint11_linear_102_1751)"/>
<path d="M250.124 101.742C250.042 101.6 249.974 101.452 249.922 101.294C249.868 101.137 249.832 100.978 249.811 100.814C249.789 100.651 249.783 100.487 249.793 100.322C249.804 100.158 249.832 99.9966 249.875 99.8373C249.916 99.678 249.974 99.523 250.047 99.3745C250.12 99.2282 250.205 99.0883 250.306 98.957C250.405 98.8257 250.517 98.7073 250.641 98.5975C250.763 98.4899 250.897 98.393 251.038 98.3112L260.604 92.7623C260.746 92.6783 260.896 92.6116 261.051 92.5578C261.207 92.5061 261.366 92.4674 261.529 92.4459C261.692 92.4244 261.855 92.4201 262.019 92.4308C262.182 92.4416 262.343 92.4674 262.501 92.5104C262.66 92.5535 262.813 92.6116 262.961 92.6848C263.109 92.758 263.246 92.8441 263.377 92.9452C263.508 93.0442 263.626 93.1562 263.736 93.281C263.843 93.4059 263.939 93.5393 264.021 93.6814C264.103 93.8234 264.171 93.9741 264.223 94.1291C264.276 94.2862 264.313 94.4455 264.334 94.6091C264.356 94.7726 264.36 94.9384 264.349 95.102C264.339 95.2677 264.313 95.4291 264.27 95.5884C264.227 95.7477 264.171 95.9005 264.098 96.049C264.025 96.1975 263.939 96.3374 263.839 96.4666C263.74 96.5979 263.628 96.7184 263.504 96.826C263.379 96.9358 263.248 97.0305 263.105 97.1145L253.541 102.663C253.397 102.745 253.249 102.814 253.094 102.866C252.938 102.92 252.779 102.956 252.616 102.978C252.453 102.999 252.289 103.006 252.126 102.995C251.961 102.984 251.8 102.956 251.641 102.913C251.485 102.872 251.33 102.814 251.184 102.741C251.036 102.668 250.897 102.582 250.768 102.48C250.637 102.379 250.517 102.267 250.409 102.145C250.302 102.02 250.205 101.886 250.124 101.742Z" fill="url(#paint12_linear_102_1751)"/>
<path d="M240.62 93.6814C240.702 93.5393 240.798 93.4059 240.906 93.281C241.015 93.1562 241.133 93.0442 241.264 92.9452C241.395 92.8441 241.532 92.758 241.68 92.6848C241.829 92.6116 241.981 92.5535 242.14 92.5104C242.299 92.4674 242.46 92.4416 242.623 92.4308C242.786 92.4201 242.951 92.4244 243.112 92.4459C243.275 92.4674 243.434 92.5061 243.591 92.5578C243.745 92.6116 243.895 92.6783 244.037 92.7623L253.603 98.3112C253.745 98.393 253.878 98.4899 254 98.5975C254.125 98.7073 254.236 98.8257 254.335 98.957C254.436 99.0883 254.522 99.2282 254.595 99.3745C254.668 99.523 254.726 99.678 254.768 99.8373C254.809 99.9966 254.837 100.158 254.848 100.322C254.859 100.487 254.852 100.651 254.831 100.814C254.809 100.978 254.773 101.137 254.719 101.294C254.668 101.452 254.599 101.6 254.517 101.742C254.436 101.886 254.341 102.02 254.232 102.145C254.125 102.267 254.004 102.379 253.873 102.48C253.745 102.582 253.605 102.668 253.457 102.741C253.311 102.814 253.159 102.872 253 102.913C252.841 102.956 252.68 102.984 252.515 102.995C252.352 103.006 252.189 102.999 252.025 102.978C251.862 102.956 251.704 102.92 251.549 102.866C251.392 102.814 251.244 102.745 251.1 102.663L241.537 97.1145C241.393 97.0305 241.262 96.9358 241.137 96.826C241.015 96.7184 240.901 96.5979 240.803 96.4666C240.702 96.3374 240.616 96.1975 240.543 96.049C240.47 95.9005 240.414 95.7477 240.371 95.5884C240.328 95.4291 240.303 95.2677 240.292 95.102C240.281 94.9384 240.285 94.7726 240.307 94.6091C240.328 94.4455 240.365 94.2862 240.418 94.1291C240.472 93.9741 240.539 93.8234 240.62 93.6814Z" fill="url(#paint13_linear_102_1751)"/>
<path d="M252.403 102.926C252.24 102.926 252.077 102.911 251.916 102.879C251.755 102.846 251.598 102.799 251.446 102.734C251.296 102.672 251.152 102.595 251.015 102.502C250.877 102.412 250.753 102.306 250.635 102.19C250.519 102.074 250.416 101.947 250.326 101.809C250.233 101.673 250.156 101.527 250.094 101.376C250.032 101.223 249.984 101.066 249.952 100.905C249.92 100.741 249.903 100.578 249.903 100.414V89.3163C249.903 89.1505 249.92 88.9869 249.952 88.8255C249.984 88.6641 250.032 88.5069 250.094 88.3541C250.156 88.2013 250.233 88.0571 250.326 87.9193C250.416 87.7816 250.519 87.6546 250.635 87.5384C250.753 87.4221 250.877 87.3188 251.015 87.2262C251.152 87.1337 251.296 87.0562 251.446 86.9938C251.598 86.9314 251.755 86.884 251.916 86.8517C252.077 86.8194 252.24 86.8022 252.403 86.8022C252.568 86.8022 252.732 86.8194 252.893 86.8517C253.054 86.884 253.21 86.9314 253.36 86.9938C253.513 87.0562 253.657 87.1337 253.794 87.2262C253.929 87.3188 254.056 87.4221 254.172 87.5384C254.288 87.6546 254.393 87.7816 254.483 87.9193C254.575 88.0571 254.653 88.2013 254.715 88.3541C254.777 88.5069 254.824 88.6641 254.856 88.8255C254.889 88.9869 254.906 89.1505 254.906 89.3163V100.414C254.906 100.578 254.889 100.741 254.856 100.905C254.824 101.066 254.777 101.223 254.715 101.376C254.653 101.527 254.575 101.673 254.483 101.809C254.393 101.947 254.288 102.074 254.172 102.19C254.056 102.306 253.929 102.412 253.794 102.502C253.657 102.595 253.513 102.672 253.36 102.734C253.21 102.799 253.054 102.846 252.893 102.879C252.732 102.911 252.568 102.926 252.403 102.926Z" fill="url(#paint14_linear_102_1751)"/>
<path d="M216.399 43.3298C216.515 37.1631 221.055 40.5015 221.055 40.5015L216.196 36.6121L216.399 43.3298Z" fill="url(#paint15_linear_102_1751)"/>
<path d="M216.316 43.3319L216.108 36.4334L221.106 40.4348L221.005 40.5682C220.765 40.4003 220.514 40.2518 220.252 40.1227C219.746 39.8558 219.207 39.7094 218.634 39.6836C218.348 39.6728 218.078 39.7331 217.822 39.8601C217.567 39.9892 217.357 40.17 217.191 40.4025C216.747 41.0073 216.509 41.9931 216.483 43.3298L216.316 43.3319ZM216.284 36.7907L216.44 41.9285C216.522 41.3388 216.726 40.7985 217.058 40.3035C217.239 40.0495 217.468 39.8515 217.747 39.7115C218.026 39.5716 218.323 39.5071 218.634 39.5157C219.172 39.5351 219.683 39.6642 220.166 39.8988L216.284 36.7907Z" fill="url(#paint16_linear_102_1751)"/>
<path d="M288.205 43.1619C288.089 36.9952 283.55 40.3336 283.55 40.3336L288.409 36.4442L288.205 43.1619Z" fill="url(#paint17_linear_102_1751)"/>
<path d="M288.289 43.164H288.122C288.096 41.8252 287.858 40.8416 287.413 40.2367C287.248 40.0021 287.038 39.8213 286.782 39.6943C286.527 39.5673 286.256 39.5071 285.971 39.5157C284.816 39.5157 283.612 40.3939 283.599 40.4025L283.498 40.269L288.497 36.2677L288.289 43.164ZM285.971 39.3478C286.282 39.3392 286.578 39.4038 286.857 39.5437C287.139 39.6836 287.368 39.8816 287.548 40.1377C287.879 40.6306 288.085 41.173 288.164 41.7628L288.321 36.6228L284.439 39.7309C284.924 39.4963 285.434 39.3672 285.971 39.3478Z" fill="url(#paint18_linear_102_1751)"/>
<path d="M250.193 91.0576C250.077 97.2242 245.539 93.8858 245.539 93.8858L250.396 97.7731L250.193 91.0576Z" fill="url(#paint19_linear_102_1751)"/>
<path d="M250.276 91.0532L250.487 97.9518L245.486 93.9504L245.587 93.8191C245.827 93.987 246.078 94.1334 246.34 94.2625C246.846 94.5294 247.387 94.6779 247.958 94.7038C248.244 94.7124 248.514 94.6542 248.77 94.5251C249.025 94.3981 249.235 94.2173 249.401 93.9827C249.845 93.38 250.085 92.3942 250.109 91.0554L250.276 91.0532ZM250.308 97.5966L250.152 92.4566C250.072 93.0464 249.866 93.5888 249.536 94.0817C249.355 94.3379 249.126 94.5359 248.845 94.6758C248.566 94.8157 248.269 94.8802 247.958 94.8716C247.422 94.8501 246.911 94.7231 246.426 94.4885L250.308 97.5966Z" fill="url(#paint20_linear_102_1751)"/>
<path d="M254.745 91.0576C254.863 97.2242 259.4 93.8858 259.4 93.8858L254.541 97.7731L254.745 91.0576Z" fill="url(#paint21_linear_102_1751)"/>
<path d="M254.661 91.0532L254.829 91.0554C254.854 92.3921 255.092 93.3779 255.537 93.9827C255.702 94.2173 255.912 94.396 256.168 94.5251C256.423 94.6521 256.694 94.7124 256.979 94.7038C258.134 94.7038 259.338 93.8256 259.351 93.817L259.452 93.9504L254.453 97.9518L254.661 91.0532ZM256.979 94.8716C256.668 94.8802 256.372 94.8157 256.093 94.6758C255.814 94.5359 255.584 94.3379 255.402 94.0817C255.071 93.5888 254.867 93.0464 254.786 92.4566L254.629 97.5966L258.512 94.4885C258.029 94.7231 257.518 94.8501 256.979 94.8716Z" fill="url(#paint22_linear_102_1751)"/>
<path d="M223.75 30.8802C218.284 33.6891 223.261 36.3236 223.261 36.3236L217.651 33.6417L223.75 30.8802Z" fill="url(#paint23_linear_102_1751)"/>
<path d="M223.716 30.8048L223.789 30.9555C222.602 31.5646 221.825 32.2125 221.48 32.8776C221.342 33.1294 221.274 33.3985 221.271 33.6869C221.269 33.9732 221.336 34.2422 221.469 34.4962C221.973 35.538 223.287 36.2418 223.3 36.2505L223.225 36.399L217.455 33.6374L223.716 30.8048ZM221.317 34.5694C221.173 34.2918 221.1 33.9969 221.104 33.6826C221.106 33.3705 221.181 33.0756 221.332 32.8001C221.628 32.2857 222.023 31.8617 222.514 31.5302L217.85 33.6417L222.332 35.7877C221.909 35.4519 221.572 35.0473 221.319 34.5716L221.317 34.5694Z" fill="url(#paint24_linear_102_1751)"/>
<path d="M280.771 30.8005C286.237 33.6073 281.262 36.244 281.262 36.244L286.87 33.5578L280.771 30.8005Z" fill="url(#paint25_linear_102_1751)"/>
<path d="M280.805 30.723L287.068 33.5556L281.299 36.3193L281.223 36.1708C281.479 36.0266 281.721 35.8652 281.951 35.6844C282.412 35.3443 282.779 34.9203 283.054 34.4166C283.187 34.1626 283.254 33.8914 283.252 33.6051C283.249 33.3189 283.179 33.0498 283.043 32.798C282.696 32.1307 281.919 31.4828 280.734 30.8759L280.805 30.723ZM286.671 33.5599L282.007 31.4506C282.498 31.782 282.893 32.2039 283.189 32.7205C283.34 32.9938 283.415 33.2887 283.419 33.603C283.421 33.9172 283.35 34.2121 283.204 34.4898C282.951 34.9655 282.614 35.3723 282.191 35.7059L286.671 33.5599Z" fill="url(#paint26_linear_102_1751)"/>
<path d="M251.36 70.5739H245.128V63.4021H235.289V70.5739H229.211V55.9203C229.211 52.4549 230.166 49.745 232.078 47.7927C233.988 45.8362 236.714 44.8568 240.251 44.8568C243.81 44.8568 246.553 45.8362 248.476 47.7927C250.399 49.745 251.36 52.4549 251.36 55.9203V70.5739ZM245.128 58.0038V55.9203C245.128 52.4032 243.488 50.6425 240.208 50.6425C236.929 50.6425 235.289 52.4032 235.289 55.9203V58.0038H245.128Z" fill="url(#paint27_linear_102_1751)"/>
<path d="M276.657 70.5739H269.274L264.809 62.6703H262.157V70.5739H255.932V45.3562H266.123C269.321 45.3562 271.722 46.144 273.326 47.7152C274.927 49.2822 275.73 51.3744 275.73 53.9917C275.73 55.8169 275.337 57.4076 274.553 58.7615C273.774 60.111 272.605 61.1184 271.042 61.7835V61.8609L276.657 70.5739ZM262.157 56.8845H266.2C268.351 56.8845 269.428 55.9203 269.428 53.9917C269.428 52.0933 268.351 51.1419 266.2 51.1419H262.157V56.8845Z" fill="url(#paint28_linear_102_1751)"/>
<path d="M42.2329 56.9424V36.2877H50.2943V56.9424C50.2943 61.1331 49.2233 64.2843 47.0835 66.3958C44.948 68.5095 42.1385 69.5642 38.6529 69.5642C34.6051 69.5642 31.6217 68.0876 29.6987 65.1302H29.5957C27.6726 68.0876 24.6871 69.5642 20.6414 69.5642C17.1601 69.5642 14.3507 68.5095 12.2108 66.3958C10.0688 64.2843 9 61.1331 9 56.9424V36.2877H17.0614V56.9424C17.0614 60.369 18.4865 62.0823 21.3368 62.0823C24.1913 62.0823 25.6208 60.369 25.6208 56.9424V36.2877H33.6822V56.9424C33.6822 60.369 35.1073 62.0823 37.9575 62.0823C40.8078 62.0823 42.2329 60.369 42.2329 56.9424Z" fill="url(#paint29_linear_102_1751)"/>
<path d="M80.6856 56.8477V68.9184H73.8261V65.0785H73.7231C73.1264 66.4388 72.1563 67.528 70.8128 68.3416C69.467 69.1552 67.8981 69.5642 66.1081 69.5642C64.7517 69.5642 63.3995 69.308 62.056 68.7979C60.7102 68.2813 59.4482 67.5237 58.2699 66.5249C57.0959 65.5262 56.143 64.1637 55.4111 62.4353C54.6835 60.7026 54.3208 58.7569 54.3208 56.598C54.3208 52.8398 55.557 49.7361 58.0295 47.2909C60.502 44.8458 63.6785 43.6232 67.559 43.6232C71.4674 43.6232 74.6331 44.8199 77.0541 47.2134C79.4751 49.6069 80.6856 52.8183 80.6856 56.8477ZM63.4467 60.9114C64.4941 62.0264 65.8613 62.5817 67.5504 62.5817C69.2438 62.5817 70.611 62.0264 71.6541 60.9114C72.7015 59.7986 73.2252 58.3608 73.2252 56.598C73.2252 54.8373 72.7015 53.3995 71.6541 52.2845C70.611 51.1653 69.2438 50.6056 67.5504 50.6056C65.8613 50.6056 64.4941 51.1653 63.4467 52.2845C62.4037 53.3995 61.8842 54.8373 61.8842 56.598C61.8842 58.3608 62.4037 59.7986 63.4467 60.9114Z" fill="url(#paint30_linear_102_1751)"/>
<path d="M109.841 68.9184H102.38V56.1417C102.38 52.4524 100.82 50.6056 97.7014 50.6056C94.5808 50.6056 93.0226 52.4524 93.0226 56.1417V68.9184H85.5621V56.1417C85.5621 52.0843 86.6546 48.9849 88.8416 46.8432C91.033 44.6972 93.9862 43.6232 97.7014 43.6232C101.449 43.6232 104.409 44.6972 106.578 46.8432C108.753 48.9849 109.841 52.0843 109.841 56.1417V68.9184Z" fill="url(#paint31_linear_102_1751)"/>
<path d="M140.082 33.4982V56.3483C140.082 60.3733 138.872 63.5804 136.451 65.9739C134.03 68.3674 130.864 69.5642 126.956 69.5642C123.075 69.5642 119.899 68.3416 117.426 65.8964C114.954 63.4513 113.717 60.3518 113.717 56.598C113.717 54.4348 114.08 52.489 114.808 50.7606C115.539 49.0279 116.492 47.6654 117.666 46.671C118.845 45.6723 120.107 44.9146 121.452 44.3981C122.796 43.8815 124.148 43.6232 125.505 43.6232C128.657 43.6232 130.999 44.6886 132.527 46.8174H132.622V33.4982H140.082ZM122.843 60.9114C123.891 62.0264 125.258 62.5817 126.947 62.5817C128.64 62.5817 130.008 62.0264 131.051 60.9114C132.098 59.7986 132.622 58.3608 132.622 56.598C132.622 54.8373 132.098 53.3995 131.051 52.2845C130.008 51.1653 128.64 50.6056 126.947 50.6056C125.258 50.6056 123.891 51.1653 122.843 52.2845C121.8 53.3995 121.281 54.8373 121.281 56.598C121.281 58.3608 121.8 59.7986 122.843 60.9114Z" fill="url(#paint32_linear_102_1751)"/>
<path d="M170.285 58.6901H151.724V58.7934C152.387 61.5206 154.213 62.883 157.201 62.883C159.485 62.883 161.041 62.2847 161.871 61.0836H169.581C168.784 63.645 167.276 65.6984 165.056 67.2482C162.835 68.7936 160.216 69.5642 157.201 69.5642C153.32 69.5642 150.144 68.3416 147.671 65.8964C145.199 63.4513 143.963 60.3518 143.963 56.598C143.963 52.8398 145.199 49.7361 147.671 47.2909C150.144 44.8458 153.32 43.6232 157.201 43.6232C161.047 43.6232 164.189 44.8458 166.627 47.2909C169.066 49.7361 170.285 52.8398 170.285 56.598V58.6901ZM162.618 53.8515C161.76 51.4881 159.952 50.3043 157.201 50.3043C154.447 50.3043 152.67 51.4881 151.87 53.8515V53.9548H162.618V53.8515Z" fill="url(#paint33_linear_102_1751)"/>
<path d="M196.249 55.0999H188.788V54.9019C188.788 52.0391 187.591 50.6056 185.2 50.6056C182.813 50.6056 181.62 52.0391 181.62 54.9019V68.9184H174.159V54.9019C174.159 51.1782 175.147 48.3671 177.121 46.473C179.096 44.5746 181.787 43.6232 185.2 43.6232C188.617 43.6232 191.312 44.5789 193.287 46.4902C195.262 48.4016 196.249 51.2729 196.249 55.0999Z" fill="url(#paint34_linear_102_1751)"/>
<path d="M60.4058 83.0624V92.2403H56.8258V83.0624C56.8258 81.1984 57.3002 79.7972 58.251 78.8609C59.1996 77.9203 60.4509 77.4489 62.0027 77.4489C63.7991 77.4489 65.1233 78.1075 65.9776 79.4205H66.0291C66.8811 78.1075 68.2054 77.4489 70.004 77.4489C71.5536 77.4489 72.8049 77.9203 73.7557 78.8609C74.7043 79.7972 75.1808 81.1984 75.1808 83.0624V92.2403H71.6008V83.0624C71.6008 81.5363 70.9655 80.7722 69.6949 80.7722C68.4286 80.7722 67.7976 81.5363 67.7976 83.0624V92.2403H64.209V83.0624C64.209 81.5363 63.5737 80.7722 62.3031 80.7722C61.0368 80.7722 60.4058 81.5363 60.4058 83.0624Z" fill="url(#paint35_linear_102_1751)"/>
<path d="M88.6873 86.8765V92.2403H85.631V90.5356H85.5881C85.3241 91.1383 84.8927 91.6204 84.2918 91.982C83.6951 92.3436 82.9997 92.5244 82.2056 92.5244C81.6046 92.5244 81.0037 92.4125 80.4027 92.1887C79.8061 91.9605 79.2459 91.6247 78.72 91.1813C78.1985 90.7336 77.7757 90.1266 77.4494 89.3561C77.1275 88.5876 76.9687 87.7245 76.9687 86.7646C76.9687 85.0943 77.5181 83.7167 78.617 82.6319C79.7159 81.5428 81.126 80.9961 82.8495 80.9961C84.588 80.9961 85.9959 81.5299 87.0733 82.5975C88.1486 83.6608 88.6873 85.0857 88.6873 86.8765ZM81.0208 88.6845C81.4887 89.1796 82.0983 89.4249 82.8495 89.4249C83.5985 89.4249 84.2059 89.1796 84.6695 88.6845C85.1374 88.1851 85.3735 87.5459 85.3735 86.7646C85.3735 85.9789 85.1374 85.3397 84.6695 84.8446C84.2059 84.3517 83.5985 84.1042 82.8495 84.1042C82.0983 84.1042 81.4887 84.3517 81.0208 84.8446C80.5573 85.3397 80.3255 85.9789 80.3255 86.7646C80.3255 87.5459 80.5573 88.1851 81.0208 88.6845Z" fill="url(#paint36_linear_102_1751)"/>
<path d="M90.8485 96.924V86.8765C90.8485 85.0857 91.385 83.6608 92.4625 82.5975C93.5378 81.5299 94.9457 80.9961 96.6863 80.9961C98.4141 80.9961 99.8285 81.5428 100.927 82.6319C102.026 83.7167 102.576 85.0943 102.576 86.7646C102.576 87.7245 102.413 88.5876 102.086 89.3561C101.76 90.1266 101.333 90.7336 100.807 91.1813C100.286 91.6247 99.7276 91.9605 99.1331 92.1887C98.5364 92.4125 97.9355 92.5244 97.3302 92.5244C95.9266 92.5244 94.8878 92.0552 94.2138 91.1124H94.1709V96.924H90.8485ZM98.515 84.8446C98.0514 84.3517 97.4418 84.1042 96.6863 84.1042C95.9352 84.1042 95.3299 84.3517 94.8663 84.8446C94.4027 85.3397 94.1709 85.9789 94.1709 86.7646C94.1709 87.5459 94.4027 88.1851 94.8663 88.6845C95.3299 89.1796 95.9352 89.4249 96.6863 89.4249C97.4418 89.4249 98.0514 89.1796 98.515 88.6845C98.9786 88.1851 99.2104 87.5459 99.2104 86.7646C99.2104 85.9789 98.9786 85.3397 98.515 84.8446Z" fill="url(#paint37_linear_102_1751)"/>
<path d="M113.82 83.0624V92.2403H110.24V83.0624C110.24 81.1984 110.714 79.7972 111.665 78.8609C112.614 77.9203 113.865 77.4489 115.417 77.4489C117.213 77.4489 118.538 78.1075 119.392 79.4205H119.443C120.295 78.1075 121.62 77.4489 123.418 77.4489C124.968 77.4489 126.219 77.9203 127.17 78.8609C128.118 79.7972 128.595 81.1984 128.595 83.0624V92.2403H125.015V83.0624C125.015 81.5363 124.38 80.7722 123.109 80.7722C121.843 80.7722 121.212 81.5363 121.212 83.0624V92.2403H117.623V83.0624C117.623 81.5363 116.988 80.7722 115.717 80.7722C114.451 80.7722 113.82 81.5363 113.82 83.0624Z" fill="url(#paint38_linear_102_1751)"/>
<path d="M136.221 89.2441C136.839 89.2441 137.339 89.0375 137.723 88.6242C138.105 88.211 138.298 87.5975 138.298 86.7818V81.2802H141.612V91.8615C141.612 93.6631 141.11 95.004 140.11 95.8822C139.107 96.7647 137.803 97.2081 136.195 97.2081C134.839 97.2081 133.684 96.8809 132.735 96.2266C131.784 95.5766 131.177 94.6037 130.915 93.3079H134.229C134.538 93.9838 135.193 94.3239 136.195 94.3239C136.933 94.3239 137.468 94.1366 137.8 93.7642C138.131 93.3962 138.298 92.7999 138.298 91.9734V90.9575H138.255C137.637 91.8873 136.744 92.3522 135.577 92.3522C134.276 92.3522 133.158 91.8916 132.22 90.9661C131.286 90.0427 130.821 88.6479 130.821 86.7818V81.2802H134.143V86.7818C134.143 88.4241 134.834 89.2441 136.221 89.2441Z" fill="url(#paint39_linear_102_1751)"/>
<path d="M164.854 86.9195V77.733H168.434V86.9195C168.434 88.7792 167.958 90.1804 167.009 91.1211C166.059 92.0574 164.807 92.5244 163.258 92.5244C161.459 92.5244 160.135 91.868 159.283 90.5528H159.231C158.377 91.868 157.053 92.5244 155.256 92.5244C153.705 92.5244 152.453 92.0574 151.505 91.1211C150.554 90.1804 150.08 88.7792 150.08 86.9195V77.733H153.66V86.9195C153.66 88.4413 154.291 89.2011 155.557 89.2011C156.827 89.2011 157.463 88.4413 157.463 86.9195V77.733H161.051V86.9195C161.051 88.4413 161.682 89.2011 162.949 89.2011C164.219 89.2011 164.854 88.4413 164.854 86.9195Z" fill="url(#paint40_linear_102_1751)"/>
<path d="M181.941 86.8765V92.2403H178.885V90.5356H178.842C178.578 91.1383 178.146 91.6204 177.545 91.982C176.949 92.3436 176.253 92.5244 175.459 92.5244C174.858 92.5244 174.257 92.4125 173.656 92.1887C173.06 91.9605 172.5 91.6247 171.974 91.1813C171.452 90.7336 171.029 90.1266 170.703 89.3561C170.381 88.5876 170.222 87.7245 170.222 86.7646C170.222 85.0943 170.772 83.7167 171.871 82.6319C172.97 81.5428 174.38 80.9961 176.103 80.9961C177.842 80.9961 179.25 81.5299 180.327 82.5975C181.402 83.6608 181.941 85.0857 181.941 86.8765ZM174.275 88.6845C174.742 89.1796 175.352 89.4249 176.103 89.4249C176.852 89.4249 177.46 89.1796 177.923 88.6845C178.391 88.1851 178.627 87.5459 178.627 86.7646C178.627 85.9789 178.391 85.3397 177.923 84.8446C177.46 84.3517 176.852 84.1042 176.103 84.1042C175.352 84.1042 174.742 84.3517 174.275 84.8446C173.811 85.3397 173.579 85.9789 173.579 86.7646C173.579 87.5459 173.811 88.1851 174.275 88.6845Z" fill="url(#paint41_linear_102_1751)"/>
<path d="M189.502 89.2441C190.12 89.2441 190.62 89.0375 191.005 88.6242C191.387 88.211 191.58 87.5975 191.58 86.7818V81.2802H194.894V91.8615C194.894 93.6631 194.391 95.004 193.391 95.8822C192.389 96.7647 191.084 97.2081 189.476 97.2081C188.12 97.2081 186.965 96.8809 186.017 96.2266C185.066 95.5766 184.458 94.6037 184.197 93.3079H187.51C187.82 93.9838 188.474 94.3239 189.476 94.3239C190.215 94.3239 190.749 94.1366 191.082 93.7642C191.412 93.3962 191.58 92.7999 191.58 91.9734V90.9575H191.537C190.919 91.8873 190.026 92.3522 188.858 92.3522C187.558 92.3522 186.439 91.8916 185.502 90.9661C184.568 90.0427 184.102 88.6479 184.102 86.7818V81.2802H187.425V86.7818C187.425 88.4241 188.116 89.2441 189.502 89.2441Z" fill="url(#paint42_linear_102_1751)"/>
</g>
<defs>
<filter id="filter0_dd_102_1751" x="0" y="0" width="302" height="112" filterUnits="userSpaceOnUse" color-interpolation-filters="sRGB">
<feFlood flood-opacity="0" result="BackgroundImageFix"/>
<feColorMatrix in="SourceAlpha" type="matrix" values="0 0 0 0 0 0 0 0 0 0 0 0 0 0 0 0 0 0 127 0" result="hardAlpha"/>
<feOffset dx="-4" dy="-4"/>
<feGaussianBlur stdDeviation="2.5"/>
<feComposite in2="hardAlpha" operator="out"/>
<feColorMatrix type="matrix" values="0 0 0 0 1 0 0 0 0 1 0 0 0 0 1 0 0 0 1 0"/>
<feBlend mode="normal" in2="BackgroundImageFix" result="effect1_dropShadow_102_1751"/>
<feColorMatrix in="SourceAlpha" type="matrix" values="0 0 0 0 0 0 0 0 0 0 0 0 0 0 0 0 0 0 127 0" result="hardAlpha"/>
<feOffset dx="4" dy="4"/>
<feGaussianBlur stdDeviation="2.5"/>
<feComposite in2="hardAlpha" operator="out"/>
<feColorMatrix type="matrix" values="0 0 0 0 0.819608 0 0 0 0 0.85098 0 0 0 0 0.901961 0 0 0 1 0"/>
<feBlend mode="normal" in2="effect1_dropShadow_102_1751" result="effect2_dropShadow_102_1751"/>
<feBlend mode="normal" in="SourceGraphic" in2="effect2_dropShadow_102_1751" result="shape"/>
</filter>
<linearGradient id="paint0_linear_102_1751" x1="9" y1="55.9942" x2="293" y2="55.9942" gradientUnits="userSpaceOnUse">
<stop stop-color="#1758F1"/>
<stop offset="1" stop-color="#36D8E0"/>
</linearGradient>
<linearGradient id="paint1_linear_102_1751" x1="9" y1="55.9942" x2="293" y2="55.9942" gradientUnits="userSpaceOnUse">
<stop stop-color="#1758F1"/>
<stop offset="1" stop-color="#36D8E0"/>
</linearGradient>
<linearGradient id="paint2_linear_102_1751" x1="9" y1="55.9942" x2="293" y2="55.9942" gradientUnits="userSpaceOnUse">
<stop stop-color="#1758F1"/>
<stop offset="1" stop-color="#36D8E0"/>
</linearGradient>
<linearGradient id="paint3_linear_102_1751" x1="9" y1="55.9942" x2="293" y2="55.9942" gradientUnits="userSpaceOnUse">
<stop stop-color="#1758F1"/>
<stop offset="1" stop-color="#36D8E0"/>
</linearGradient>
<linearGradient id="paint4_linear_102_1751" x1="9" y1="55.9942" x2="293" y2="55.9942" gradientUnits="userSpaceOnUse">
<stop stop-color="#1758F1"/>
<stop offset="1" stop-color="#36D8E0"/>
</linearGradient>
<linearGradient id="paint5_linear_102_1751" x1="9" y1="55.9942" x2="293" y2="55.9942" gradientUnits="userSpaceOnUse">
<stop stop-color="#1758F1"/>
<stop offset="1" stop-color="#36D8E0"/>
</linearGradient>
<linearGradient id="paint6_linear_102_1751" x1="9" y1="55.9942" x2="293" y2="55.9942" gradientUnits="userSpaceOnUse">
<stop stop-color="#1758F1"/>
<stop offset="1" stop-color="#36D8E0"/>
</linearGradient>
<linearGradient id="paint7_linear_102_1751" x1="9" y1="55.9942" x2="293" y2="55.9942" gradientUnits="userSpaceOnUse">
<stop stop-color="#1758F1"/>
<stop offset="1" stop-color="#36D8E0"/>
</linearGradient>
<linearGradient id="paint8_linear_102_1751" x1="9" y1="55.9942" x2="293" y2="55.9942" gradientUnits="userSpaceOnUse">
<stop stop-color="#1758F1"/>
<stop offset="1" stop-color="#36D8E0"/>
</linearGradient>
<linearGradient id="paint9_linear_102_1751" x1="9" y1="55.9942" x2="293" y2="55.9942" gradientUnits="userSpaceOnUse">
<stop stop-color="#1758F1"/>
<stop offset="1" stop-color="#36D8E0"/>
</linearGradient>
<linearGradient id="paint10_linear_102_1751" x1="9" y1="55.9942" x2="293" y2="55.9942" gradientUnits="userSpaceOnUse">
<stop stop-color="#1758F1"/>
<stop offset="1" stop-color="#36D8E0"/>
</linearGradient>
<linearGradient id="paint11_linear_102_1751" x1="9" y1="55.9942" x2="293" y2="55.9942" gradientUnits="userSpaceOnUse">
<stop stop-color="#1758F1"/>
<stop offset="1" stop-color="#36D8E0"/>
</linearGradient>
<linearGradient id="paint12_linear_102_1751" x1="9" y1="55.9942" x2="293" y2="55.9942" gradientUnits="userSpaceOnUse">
<stop stop-color="#1758F1"/>
<stop offset="1" stop-color="#36D8E0"/>
</linearGradient>
<linearGradient id="paint13_linear_102_1751" x1="9" y1="55.9942" x2="293" y2="55.9942" gradientUnits="userSpaceOnUse">
<stop stop-color="#1758F1"/>
<stop offset="1" stop-color="#36D8E0"/>
</linearGradient>
<linearGradient id="paint14_linear_102_1751" x1="9" y1="55.9942" x2="293" y2="55.9942" gradientUnits="userSpaceOnUse">
<stop stop-color="#1758F1"/>
<stop offset="1" stop-color="#36D8E0"/>
</linearGradient>
<linearGradient id="paint15_linear_102_1751" x1="9" y1="55.9942" x2="293" y2="55.9942" gradientUnits="userSpaceOnUse">
<stop stop-color="#1758F1"/>
<stop offset="1" stop-color="#36D8E0"/>
</linearGradient>
<linearGradient id="paint16_linear_102_1751" x1="9" y1="55.9942" x2="293" y2="55.9942" gradientUnits="userSpaceOnUse">
<stop stop-color="#1758F1"/>
<stop offset="1" stop-color="#36D8E0"/>
</linearGradient>
<linearGradient id="paint17_linear_102_1751" x1="9" y1="55.9942" x2="293" y2="55.9942" gradientUnits="userSpaceOnUse">
<stop stop-color="#1758F1"/>
<stop offset="1" stop-color="#36D8E0"/>
</linearGradient>
<linearGradient id="paint18_linear_102_1751" x1="9" y1="55.9942" x2="293" y2="55.9942" gradientUnits="userSpaceOnUse">
<stop stop-color="#1758F1"/>
<stop offset="1" stop-color="#36D8E0"/>
</linearGradient>
<linearGradient id="paint19_linear_102_1751" x1="9" y1="55.9942" x2="293" y2="55.9942" gradientUnits="userSpaceOnUse">
<stop stop-color="#1758F1"/>
<stop offset="1" stop-color="#36D8E0"/>
</linearGradient>
<linearGradient id="paint20_linear_102_1751" x1="9" y1="55.9942" x2="293" y2="55.9942" gradientUnits="userSpaceOnUse">
<stop stop-color="#1758F1"/>
<stop offset="1" stop-color="#36D8E0"/>
</linearGradient>
<linearGradient id="paint21_linear_102_1751" x1="9" y1="55.9942" x2="293" y2="55.9942" gradientUnits="userSpaceOnUse">
<stop stop-color="#1758F1"/>
<stop offset="1" stop-color="#36D8E0"/>
</linearGradient>
<linearGradient id="paint22_linear_102_1751" x1="9" y1="55.9942" x2="293" y2="55.9942" gradientUnits="userSpaceOnUse">
<stop stop-color="#1758F1"/>
<stop offset="1" stop-color="#36D8E0"/>
</linearGradient>
<linearGradient id="paint23_linear_102_1751" x1="9" y1="55.9942" x2="293" y2="55.9942" gradientUnits="userSpaceOnUse">
<stop stop-color="#1758F1"/>
<stop offset="1" stop-color="#36D8E0"/>
</linearGradient>
<linearGradient id="paint24_linear_102_1751" x1="9" y1="55.9942" x2="293" y2="55.9942" gradientUnits="userSpaceOnUse">
<stop stop-color="#1758F1"/>
<stop offset="1" stop-color="#36D8E0"/>
</linearGradient>
<linearGradient id="paint25_linear_102_1751" x1="9" y1="55.9942" x2="293" y2="55.9942" gradientUnits="userSpaceOnUse">
<stop stop-color="#1758F1"/>
<stop offset="1" stop-color="#36D8E0"/>
</linearGradient>
<linearGradient id="paint26_linear_102_1751" x1="9" y1="55.9942" x2="293" y2="55.9942" gradientUnits="userSpaceOnUse">
<stop stop-color="#1758F1"/>
<stop offset="1" stop-color="#36D8E0"/>
</linearGradient>
<linearGradient id="paint27_linear_102_1751" x1="9" y1="55.9942" x2="293" y2="55.9942" gradientUnits="userSpaceOnUse">
<stop stop-color="#1758F1"/>
<stop offset="1" stop-color="#36D8E0"/>
</linearGradient>
<linearGradient id="paint28_linear_102_1751" x1="9" y1="55.9942" x2="293" y2="55.9942" gradientUnits="userSpaceOnUse">
<stop stop-color="#1758F1"/>
<stop offset="1" stop-color="#36D8E0"/>
</linearGradient>
<linearGradient id="paint29_linear_102_1751" x1="9" y1="55.9942" x2="293" y2="55.9942" gradientUnits="userSpaceOnUse">
<stop stop-color="#1758F1"/>
<stop offset="1" stop-color="#36D8E0"/>
</linearGradient>
<linearGradient id="paint30_linear_102_1751" x1="9" y1="55.9942" x2="293" y2="55.9942" gradientUnits="userSpaceOnUse">
<stop stop-color="#1758F1"/>
<stop offset="1" stop-color="#36D8E0"/>
</linearGradient>
<linearGradient id="paint31_linear_102_1751" x1="9" y1="55.9942" x2="293" y2="55.9942" gradientUnits="userSpaceOnUse">
<stop stop-color="#1758F1"/>
<stop offset="1" stop-color="#36D8E0"/>
</linearGradient>
<linearGradient id="paint32_linear_102_1751" x1="9" y1="55.9942" x2="293" y2="55.9942" gradientUnits="userSpaceOnUse">
<stop stop-color="#1758F1"/>
<stop offset="1" stop-color="#36D8E0"/>
</linearGradient>
<linearGradient id="paint33_linear_102_1751" x1="9" y1="55.9942" x2="293" y2="55.9942" gradientUnits="userSpaceOnUse">
<stop stop-color="#1758F1"/>
<stop offset="1" stop-color="#36D8E0"/>
</linearGradient>
<linearGradient id="paint34_linear_102_1751" x1="9" y1="55.9942" x2="293" y2="55.9942" gradientUnits="userSpaceOnUse">
<stop stop-color="#1758F1"/>
<stop offset="1" stop-color="#36D8E0"/>
</linearGradient>
<linearGradient id="paint35_linear_102_1751" x1="9" y1="55.9942" x2="293" y2="55.9942" gradientUnits="userSpaceOnUse">
<stop stop-color="#1758F1"/>
<stop offset="1" stop-color="#36D8E0"/>
</linearGradient>
<linearGradient id="paint36_linear_102_1751" x1="9" y1="55.9942" x2="293" y2="55.9942" gradientUnits="userSpaceOnUse">
<stop stop-color="#1758F1"/>
<stop offset="1" stop-color="#36D8E0"/>
</linearGradient>
<linearGradient id="paint37_linear_102_1751" x1="9" y1="55.9942" x2="293" y2="55.9942" gradientUnits="userSpaceOnUse">
<stop stop-color="#1758F1"/>
<stop offset="1" stop-color="#36D8E0"/>
</linearGradient>
<linearGradient id="paint38_linear_102_1751" x1="9" y1="55.9942" x2="293" y2="55.9942" gradientUnits="userSpaceOnUse">
<stop stop-color="#1758F1"/>
<stop offset="1" stop-color="#36D8E0"/>
</linearGradient>
<linearGradient id="paint39_linear_102_1751" x1="9" y1="55.9942" x2="293" y2="55.9942" gradientUnits="userSpaceOnUse">
<stop stop-color="#1758F1"/>
<stop offset="1" stop-color="#36D8E0"/>
</linearGradient>
<linearGradient id="paint40_linear_102_1751" x1="9" y1="55.9942" x2="293" y2="55.9942" gradientUnits="userSpaceOnUse">
<stop stop-color="#1758F1"/>
<stop offset="1" stop-color="#36D8E0"/>
</linearGradient>
<linearGradient id="paint41_linear_102_1751" x1="9" y1="55.9942" x2="293" y2="55.9942" gradientUnits="userSpaceOnUse">
<stop stop-color="#1758F1"/>
<stop offset="1" stop-color="#36D8E0"/>
</linearGradient>
<linearGradient id="paint42_linear_102_1751" x1="9" y1="55.9942" x2="293" y2="55.9942" gradientUnits="userSpaceOnUse">
<stop stop-color="#1758F1"/>
<stop offset="1" stop-color="#36D8E0"/>
</linearGradient>
</defs>
</svg>
