<svg width="20" height="19" viewBox="0 0 20 19" fill="none" xmlns="http://www.w3.org/2000/svg">
<path d="M9.3438 3.11208L10 4.29766L10.6562 3.11208C11.0466 2.40677 11.6161 1.81696 12.3074 1.40221C12.9923 0.991239 13.7727 0.76657 14.5711 0.750306C15.8601 0.812133 17.0735 1.37861 17.9487 2.32784C18.8289 3.28252 19.2955 4.54675 19.2465 5.84435L19.246 5.85849V5.87263C19.246 7.08928 18.7501 8.41622 17.9241 9.76708C17.1028 11.1101 15.9919 12.4173 14.8495 13.5792C12.565 15.9026 10.2278 17.5716 10.048 17.6989L10 17.7329L9.95371 17.7001C9.95336 17.6999 9.95299 17.6996 9.95262 17.6993C9.7627 17.564 7.43036 15.897 5.15048 13.5786C4.00804 12.4168 2.89715 11.1097 2.07593 9.76682C1.24993 8.4161 0.754033 7.08927 0.754033 5.87263V5.85849L0.753499 5.84435C0.704536 4.54675 1.17112 3.28252 2.05132 2.32784C2.9265 1.37861 4.13987 0.812133 5.42892 0.750306C6.22727 0.76657 7.00766 0.991239 7.6926 1.40221C8.38386 1.81696 8.95343 2.40677 9.3438 3.11208Z" stroke="url(#paint0_linear_102_976)" stroke-width="1.5"/>
<defs>
<linearGradient id="paint0_linear_102_976" x1="10" y1="18.6516" x2="8.92006" y2="0.0627407" gradientUnits="userSpaceOnUse">
<stop offset="0.00404003" stop-color="#1758F1"/>
<stop offset="1" stop-color="#35D3E1"/>
</linearGradient>
</defs>
</svg>
