<svg width="18" height="17" viewBox="0 0 18 17" fill="none" xmlns="http://www.w3.org/2000/svg">
<g id="Vector">
<path d="M8.996 10.9461C9.6322 10.9461 10.2423 10.6934 10.6922 10.2436C11.1421 9.79369 11.3948 9.18355 11.3948 8.54735C11.3948 7.91115 11.1421 7.301 10.6922 6.85114C10.2423 6.40128 9.6322 6.14855 8.996 6.14855C8.3598 6.14855 7.74966 6.40128 7.29979 6.85114C6.84993 7.301 6.5972 7.91115 6.5972 8.54735C6.5972 9.18355 6.84993 9.79369 7.29979 10.2436C7.74966 10.6934 8.3598 10.9461 8.996 10.9461Z" stroke="#6E7176" stroke-width="1.5" stroke-miterlimit="10" stroke-linecap="round" stroke-linejoin="round"/>
<path d="M1 9.25099V7.8437C1 7.01211 1.67966 6.32446 2.51924 6.32446C3.96652 6.32446 4.55822 5.30097 3.83058 4.0456C3.41479 3.32596 3.66267 2.39043 4.3903 1.97463L5.77361 1.18303C6.4053 0.807217 7.22089 1.03111 7.5967 1.66279L7.68466 1.81471C8.4043 3.07009 9.58771 3.07009 10.3153 1.81471L10.4033 1.66279C10.7791 1.03111 11.5947 0.807217 12.2264 1.18303L13.6097 1.97463C14.3373 2.39043 14.5852 3.32596 14.1694 4.0456C13.4418 5.30097 14.0335 6.32446 15.4808 6.32446C16.3123 6.32446 17 7.00412 17 7.8437V9.25099C17 10.0826 16.3203 10.7702 15.4808 10.7702C14.0335 10.7702 13.4418 11.7937 14.1694 13.0491C14.5852 13.7767 14.3373 14.7043 13.6097 15.1201L12.2264 15.9117C11.5947 16.2875 10.7791 16.0636 10.4033 15.4319L10.3153 15.28C9.5957 14.0246 8.41229 14.0246 7.68466 15.28L7.5967 15.4319C7.22089 16.0636 6.4053 16.2875 5.77361 15.9117L4.3903 15.1201C4.04176 14.9194 3.78707 14.5886 3.68214 14.2003C3.5772 13.8121 3.63059 13.398 3.83058 13.0491C4.55822 11.7937 3.96652 10.7702 2.51924 10.7702C1.67966 10.7702 1 10.0826 1 9.25099Z" stroke="#6E7176" stroke-width="1.5" stroke-miterlimit="10" stroke-linecap="round" stroke-linejoin="round"/>
</g>
</svg>
