<svg width="54" height="54" viewBox="0 0 54 54" fill="none" xmlns="http://www.w3.org/2000/svg">
<g id="Toolbar Btn">
<g id="Rectangle 78" filter="url(#filter0_dd_102_1513)">
<rect x="7" y="7" width="40" height="40" rx="4" fill="#ECF0F3"/>
</g>
<g id="Vector">
<path d="M24.6864 15.7634L16.3716 22.4224C15.4358 23.1663 14.8359 24.738 15.0398 25.9139L16.6356 35.4644C16.9235 37.1682 18.5553 38.548 20.283 38.548H33.721C35.4367 38.548 37.0805 37.1562 37.3685 35.4644L38.9642 25.9139C39.1562 24.738 38.5563 23.1663 37.6324 22.4224L29.3177 15.7754C28.0339 14.7435 25.9582 14.7435 24.6864 15.7634Z" stroke="#393B40" stroke-opacity="0.7" stroke-width="1.5" stroke-linecap="round" stroke-linejoin="round"/>
<path d="M27.002 30.9771C27.7976 30.9771 28.5605 30.6611 29.123 30.0985C29.6855 29.536 30.0016 28.7731 30.0016 27.9775C30.0016 27.182 29.6855 26.4191 29.123 25.8565C28.5605 25.294 27.7976 24.978 27.002 24.978C26.2065 24.978 25.4435 25.294 24.881 25.8565C24.3185 26.4191 24.0025 27.182 24.0025 27.9775C24.0025 28.7731 24.3185 29.536 24.881 30.0985C25.4435 30.6611 26.2065 30.9771 27.002 30.9771Z" stroke="#393B40" stroke-opacity="0.7" stroke-width="1.5" stroke-linecap="round" stroke-linejoin="round"/>
</g>
</g>
<defs>
<filter id="filter0_dd_102_1513" x="0" y="0" width="54" height="54" filterUnits="userSpaceOnUse" color-interpolation-filters="sRGB">
<feFlood flood-opacity="0" result="BackgroundImageFix"/>
<feColorMatrix in="SourceAlpha" type="matrix" values="0 0 0 0 0 0 0 0 0 0 0 0 0 0 0 0 0 0 127 0" result="hardAlpha"/>
<feOffset dx="-2" dy="-2"/>
<feGaussianBlur stdDeviation="2.5"/>
<feComposite in2="hardAlpha" operator="out"/>
<feColorMatrix type="matrix" values="0 0 0 0 1 0 0 0 0 1 0 0 0 0 1 0 0 0 1 0"/>
<feBlend mode="normal" in2="BackgroundImageFix" result="effect1_dropShadow_102_1513"/>
<feColorMatrix in="SourceAlpha" type="matrix" values="0 0 0 0 0 0 0 0 0 0 0 0 0 0 0 0 0 0 127 0" result="hardAlpha"/>
<feOffset dx="2" dy="2"/>
<feGaussianBlur stdDeviation="2.5"/>
<feComposite in2="hardAlpha" operator="out"/>
<feColorMatrix type="matrix" values="0 0 0 0 0.819608 0 0 0 0 0.85098 0 0 0 0 0.901961 0 0 0 1 0"/>
<feBlend mode="normal" in2="effect1_dropShadow_102_1513" result="effect2_dropShadow_102_1513"/>
<feBlend mode="normal" in="SourceGraphic" in2="effect2_dropShadow_102_1513" result="shape"/>
</filter>
</defs>
</svg>
