<svg width="28" height="26" viewBox="0 0 28 26" fill="none" xmlns="http://www.w3.org/2000/svg">
<path d="M14 16.75C14.9946 16.75 15.9484 16.355 16.6517 15.6517C17.3549 14.9484 17.75 13.9946 17.75 13C17.75 12.0055 17.3549 11.0517 16.6517 10.3484C15.9484 9.64513 14.9946 9.25004 14 9.25004C13.0054 9.25004 12.0516 9.64513 11.3483 10.3484C10.6451 11.0517 10.25 12.0055 10.25 13C10.25 13.9946 10.6451 14.9484 11.3483 15.6517C12.0516 16.355 13.0054 16.75 14 16.75Z" stroke="#393B40" stroke-opacity="0.7" stroke-width="1.5" stroke-miterlimit="10" stroke-linecap="round" stroke-linejoin="round"/>
<path d="M1.5 14.1V11.9C1.5 10.6 2.5625 9.52504 3.875 9.52504C6.1375 9.52504 7.0625 7.92504 5.925 5.96254C5.275 4.83754 5.6625 3.37504 6.8 2.72504L8.9625 1.48754C9.95 0.900043 11.225 1.25004 11.8125 2.23754L11.95 2.47504C13.075 4.43754 14.925 4.43754 16.0625 2.47504L16.2 2.23754C16.7875 1.25004 18.0625 0.900043 19.05 1.48754L21.2125 2.72504C22.35 3.37504 22.7375 4.83754 22.0875 5.96254C20.95 7.92504 21.875 9.52504 24.1375 9.52504C25.4375 9.52504 26.5125 10.5875 26.5125 11.9V14.1C26.5125 15.4 25.45 16.475 24.1375 16.475C21.875 16.475 20.95 18.075 22.0875 20.0375C22.7375 21.175 22.35 22.625 21.2125 23.275L19.05 24.5125C18.0625 25.1 16.7875 24.75 16.2 23.7625L16.0625 23.525C14.9375 21.5625 13.0875 21.5625 11.95 23.525L11.8125 23.7625C11.225 24.75 9.95 25.1 8.9625 24.5125L6.8 23.275C6.25513 22.9613 5.85698 22.4442 5.69293 21.8373C5.52889 21.2303 5.61235 20.583 5.925 20.0375C7.0625 18.075 6.1375 16.475 3.875 16.475C2.5625 16.475 1.5 15.4 1.5 14.1Z" stroke="#393B40" stroke-opacity="0.7" stroke-width="1.5" stroke-miterlimit="10" stroke-linecap="round" stroke-linejoin="round"/>
</svg>
