<svg width="18" height="21" viewBox="0 0 18 21" fill="none" xmlns="http://www.w3.org/2000/svg">
<g id="Vector">
<path d="M7.58605 1.21628L2.94419 2.95581C1.87442 3.35581 1 4.62093 1 5.76512V12.6767C1 13.7744 1.72558 15.2163 2.6093 15.8767L6.6093 18.8628C7.92093 19.8488 10.0791 19.8488 11.3907 18.8628L15.3907 15.8767C16.2744 15.2163 17 13.7744 17 12.6767V5.76512C17 4.62093 16.1256 3.35581 15.0558 2.95581L10.414 1.21628C9.62326 0.927907 8.35814 0.927907 7.58605 1.21628Z" stroke="#6E7176" stroke-width="1.5" stroke-miterlimit="10" stroke-linecap="round" stroke-linejoin="round"/>
<path d="M8.9907 9.3H8.86977C7.99535 9.27209 7.29767 8.54651 7.29767 7.66279C7.29767 6.76046 8.03256 6.02558 8.93488 6.02558C9.83721 6.02558 10.5721 6.76046 10.5721 7.66279C10.5628 8.55581 9.86512 9.27209 8.9907 9.3ZM7.13953 11.9046C6.24651 12.5 6.24651 13.4767 7.13953 14.0721C8.15349 14.7512 9.8186 14.7512 10.8326 14.0721C11.7256 13.4767 11.7256 12.5 10.8326 11.9046C9.82791 11.2256 8.16279 11.2256 7.13953 11.9046Z" stroke="#6E7176" stroke-width="1.5" stroke-miterlimit="10" stroke-linecap="round" stroke-linejoin="round"/>
</g>
</svg>
