<svg width="28" height="28" viewBox="0 0 28 28" fill="none" xmlns="http://www.w3.org/2000/svg">
<path d="M1.5 10.25V7.125C1.5 4.0125 4.0125 1.5 7.125 1.5H10.25M17.75 1.5H20.875C23.9875 1.5 26.5 4.0125 26.5 7.125V10.25M26.5 19V20.875C26.5 23.9875 23.9875 26.5 20.875 26.5H19M10.25 26.5H7.125C4.0125 26.5 1.5 23.9875 1.5 20.875V17.75M12.125 7.75V10.25C12.125 11.5 11.5 12.125 10.25 12.125H7.75C6.5 12.125 5.875 11.5 5.875 10.25V7.75C5.875 6.5 6.5 5.875 7.75 5.875H10.25C11.5 5.875 12.125 6.5 12.125 7.75ZM22.125 7.75V10.25C22.125 11.5 21.5 12.125 20.25 12.125H17.75C16.5 12.125 15.875 11.5 15.875 10.25V7.75C15.875 6.5 16.5 5.875 17.75 5.875H20.25C21.5 5.875 22.125 6.5 22.125 7.75ZM12.125 17.75V20.25C12.125 21.5 11.5 22.125 10.25 22.125H7.75C6.5 22.125 5.875 21.5 5.875 20.25V17.75C5.875 16.5 6.5 15.875 7.75 15.875H10.25C11.5 15.875 12.125 16.5 12.125 17.75ZM22.125 17.75V20.25C22.125 21.5 21.5 22.125 20.25 22.125H17.75C16.5 22.125 15.875 21.5 15.875 20.25V17.75C15.875 16.5 16.5 15.875 17.75 15.875H20.25C21.5 15.875 22.125 16.5 22.125 17.75Z" stroke="#393B40" stroke-opacity="0.7" stroke-width="1.5" stroke-linecap="round" stroke-linejoin="round"/>
</svg>
