<svg width="20" height="18" viewBox="0 0 20 18" fill="none" xmlns="http://www.w3.org/2000/svg">
<path id="Vector" d="M17.3253 4.91968C18.2094 6.09667 18.6874 7.52893 18.6874 9.00099C18.6874 10.4731 18.2094 11.9053 17.3253 13.0823M1 6.96033V11.0416C1 13.0823 2.02033 14.1026 4.06098 14.1026H5.52005C5.89758 14.1026 6.2751 14.2149 6.6016 14.4087L9.58096 16.2759C12.1522 17.888 14.2643 16.7147 14.2643 13.6843V4.31768C14.2643 1.27711 12.1522 0.113933 9.58096 1.72605L6.6016 3.59325C6.2751 3.78711 5.89758 3.89935 5.52005 3.89935H4.06098C2.02033 3.89935 1 4.91968 1 6.96033Z" stroke="#6E7176" stroke-width="1.5" stroke-miterlimit="10" stroke-linecap="round" stroke-linejoin="round"/>
</svg>
