<svg width="250" height="83" viewBox="0 0 250 83" fill="none" xmlns="http://www.w3.org/2000/svg">
<path d="M180.482 33.6364C180.337 33.6364 180.193 33.6213 180.051 33.5929C179.91 33.5646 179.772 33.523 179.64 33.4682C179.505 33.4135 179.379 33.3454 179.258 33.2642C179.139 33.1848 179.027 33.0923 178.925 32.9902C178.823 32.8882 178.731 32.7767 178.651 32.6558C178.57 32.5349 178.502 32.4083 178.447 32.2742C178.393 32.14 178.351 32.0021 178.323 31.8604C178.294 31.7187 178.281 31.5751 178.281 31.4297V21.6883C178.281 21.5447 178.294 21.4011 178.323 21.2594C178.351 21.1158 178.393 20.9779 178.447 20.8456C178.502 20.7115 178.57 20.583 178.651 20.464C178.731 20.3431 178.823 20.2316 178.925 20.1296C179.027 20.0276 179.139 19.935 179.258 19.8556C179.379 19.7744 179.505 19.7064 179.64 19.6516C179.772 19.5949 179.91 19.5534 180.051 19.525C180.193 19.4967 180.337 19.4834 180.482 19.4834C180.626 19.4834 180.769 19.4967 180.911 19.525C181.053 19.5534 181.191 19.5949 181.325 19.6516C181.457 19.7064 181.584 19.7744 181.705 19.8556C181.826 19.935 181.937 20.0276 182.039 20.1296C182.141 20.2316 182.232 20.3431 182.313 20.464C182.392 20.583 182.46 20.7115 182.515 20.8456C182.57 20.9779 182.613 21.1158 182.642 21.2594C182.668 21.4011 182.683 21.5447 182.683 21.6883V31.4297C182.683 31.5751 182.668 31.7187 182.642 31.8604C182.613 32.0021 182.57 32.14 182.515 32.2742C182.46 32.4083 182.392 32.5349 182.313 32.6558C182.232 32.7767 182.141 32.8882 182.039 32.9902C181.937 33.0923 181.826 33.1848 181.705 33.2642C181.584 33.3454 181.457 33.4135 181.325 33.4682C181.191 33.523 181.053 33.5646 180.911 33.5929C180.769 33.6213 180.626 33.6364 180.482 33.6364Z" fill="white"/>
<path d="M178.621 22.7463C178.549 22.6197 178.489 22.4894 178.444 22.3514C178.396 22.2154 178.364 22.0737 178.345 21.9301C178.326 21.7865 178.321 21.6429 178.33 21.4994C178.34 21.3539 178.364 21.2122 178.402 21.0724C178.438 20.9326 178.489 20.7965 178.553 20.6681C178.617 20.5377 178.693 20.4149 178.782 20.2996C178.869 20.1863 178.967 20.0805 179.077 19.9841C179.184 19.8896 179.301 19.8046 179.426 19.7328L187.847 14.8621C187.972 14.7904 188.104 14.7299 188.24 14.6827C188.378 14.6373 188.518 14.6052 188.661 14.5863C188.805 14.5674 188.948 14.5617 189.092 14.5712C189.235 14.5806 189.377 14.6033 189.517 14.6411C189.657 14.6789 189.793 14.7299 189.921 14.7941C190.052 14.8584 190.173 14.9339 190.288 15.0227C190.403 15.1097 190.507 15.2098 190.603 15.3175C190.698 15.4271 190.783 15.5442 190.855 15.6689C190.926 15.7955 190.987 15.9258 191.032 16.0638C191.079 16.1998 191.112 16.3415 191.13 16.4851C191.149 16.6287 191.153 16.7723 191.144 16.9158C191.134 17.0613 191.112 17.203 191.074 17.3428C191.036 17.4826 190.987 17.6187 190.923 17.7472C190.858 17.8775 190.783 18.0003 190.694 18.1156C190.607 18.2289 190.509 18.3347 190.399 18.4311C190.292 18.5256 190.174 18.6106 190.048 18.6824L181.629 23.5531C181.502 23.6248 181.372 23.6853 181.236 23.7325C181.098 23.7779 180.958 23.81 180.815 23.8289C180.671 23.8478 180.528 23.8535 180.384 23.844C180.238 23.8346 180.097 23.8119 179.957 23.7741C179.819 23.7363 179.683 23.6853 179.555 23.6211C179.424 23.5568 179.301 23.4813 179.188 23.3925C179.073 23.3055 178.967 23.2054 178.873 23.0977C178.778 22.9881 178.693 22.871 178.621 22.7463Z" fill="white"/>
<path d="M190.855 27.5981C190.783 27.7228 190.698 27.8418 190.603 27.9495C190.507 28.0591 190.403 28.1573 190.288 28.2461C190.173 28.333 190.052 28.4105 189.921 28.4729C189.793 28.5371 189.657 28.5881 189.517 28.6259C189.377 28.6637 189.235 28.6863 189.092 28.6958C188.948 28.7052 188.805 28.7015 188.661 28.6826C188.518 28.6637 188.378 28.6316 188.24 28.5843C188.104 28.5371 187.972 28.4785 187.847 28.4048L179.426 23.5342C179.301 23.4624 179.184 23.3792 179.077 23.2829C178.967 23.1865 178.869 23.0826 178.782 22.9674C178.693 22.8521 178.617 22.7293 178.553 22.6008C178.489 22.4705 178.438 22.3363 178.402 22.1946C178.364 22.0548 178.34 21.9131 178.33 21.7695C178.321 21.624 178.326 21.4805 178.345 21.3369C178.364 21.1933 178.396 21.0535 178.444 20.9156C178.489 20.7776 178.549 20.6473 178.621 20.5226C178.693 20.396 178.778 20.2788 178.873 20.1712C178.967 20.0616 179.073 19.9633 179.188 19.8745C179.301 19.7857 179.424 19.7102 179.555 19.6459C179.683 19.5817 179.819 19.5326 179.957 19.4948C180.097 19.457 180.238 19.4324 180.384 19.423C180.528 19.4135 180.671 19.4192 180.815 19.4381C180.958 19.457 181.098 19.4891 181.236 19.5363C181.372 19.5817 181.502 19.6421 181.629 19.7139L190.048 24.5846C190.174 24.6583 190.292 24.7414 190.399 24.8378C190.509 24.9323 190.607 25.0381 190.694 25.1533C190.783 25.2686 190.858 25.3895 190.923 25.5198C190.987 25.6502 191.036 25.7843 191.074 25.9242C191.112 26.064 191.134 26.2076 191.144 26.3511C191.153 26.4966 191.149 26.6402 191.13 26.7838C191.112 26.9274 191.079 27.0672 191.032 27.2051C190.987 27.3412 190.926 27.4734 190.855 27.5981Z" fill="white"/>
<path d="M247.799 33.6364C247.653 33.6364 247.512 33.6213 247.37 33.5929C247.228 33.5646 247.09 33.523 246.956 33.4682C246.822 33.4135 246.696 33.3454 246.577 33.2642C246.456 33.1848 246.344 33.0923 246.242 32.9902C246.14 32.8882 246.049 32.7767 245.968 32.6558C245.889 32.5349 245.821 32.4083 245.766 32.2742C245.709 32.14 245.668 32.0021 245.639 31.8604C245.611 31.7187 245.598 31.5751 245.598 31.4297V21.6883C245.598 21.5447 245.611 21.4011 245.639 21.2594C245.668 21.1158 245.709 20.9779 245.766 20.8456C245.821 20.7115 245.889 20.583 245.968 20.464C246.049 20.3431 246.14 20.2316 246.242 20.1296C246.344 20.0276 246.456 19.935 246.577 19.8556C246.696 19.7744 246.822 19.7064 246.956 19.6516C247.09 19.5949 247.228 19.5534 247.37 19.525C247.512 19.4967 247.653 19.4834 247.799 19.4834C247.944 19.4834 248.086 19.4967 248.228 19.525C248.369 19.5534 248.507 19.5949 248.642 19.6516C248.776 19.7064 248.902 19.7744 249.021 19.8556C249.142 19.935 249.254 20.0276 249.356 20.1296C249.458 20.2316 249.548 20.3431 249.63 20.464C249.709 20.583 249.777 20.7115 249.832 20.8456C249.889 20.9779 249.93 21.1158 249.958 21.2594C249.987 21.4011 250 21.5447 250 21.6883V31.4297C250 31.5751 249.987 31.7187 249.958 31.8604C249.93 32.0021 249.889 32.14 249.832 32.2742C249.777 32.4083 249.709 32.5349 249.63 32.6558C249.548 32.7767 249.458 32.8882 249.356 32.9902C249.254 33.0923 249.142 33.1848 249.021 33.2642C248.902 33.3454 248.776 33.4135 248.642 33.4682C248.507 33.523 248.369 33.5646 248.228 33.5929C248.086 33.6213 247.944 33.6364 247.799 33.6364Z" fill="white"/>
<path d="M237.427 15.6689C237.498 15.5442 237.581 15.4271 237.678 15.3175C237.772 15.2098 237.878 15.1097 237.993 15.0227C238.107 14.9339 238.229 14.8584 238.36 14.7941C238.488 14.7299 238.622 14.6789 238.762 14.6411C238.902 14.6033 239.044 14.5806 239.189 14.5712C239.333 14.5617 239.476 14.5674 239.62 14.5863C239.764 14.6052 239.903 14.6373 240.039 14.6846C240.177 14.7299 240.308 14.7904 240.434 14.8621L248.853 19.7328C248.98 19.8046 249.095 19.8896 249.205 19.9841C249.312 20.0805 249.412 20.1863 249.499 20.2996C249.588 20.4149 249.664 20.5377 249.728 20.6681C249.792 20.7965 249.841 20.9326 249.879 21.0724C249.917 21.2122 249.94 21.3539 249.949 21.4994C249.958 21.6429 249.955 21.7865 249.936 21.9301C249.917 22.0737 249.885 22.2154 249.838 22.3514C249.79 22.4894 249.732 22.6197 249.66 22.7463C249.588 22.871 249.503 22.9881 249.409 23.0977C249.312 23.2054 249.208 23.3055 249.093 23.3925C248.978 23.4813 248.857 23.5568 248.727 23.6211C248.596 23.6853 248.462 23.7363 248.322 23.7741C248.182 23.8119 248.041 23.8346 247.897 23.844C247.754 23.8535 247.608 23.8497 247.466 23.8289C247.323 23.81 247.183 23.7779 247.045 23.7325C246.909 23.6853 246.777 23.6248 246.652 23.5531L238.231 18.6824C238.107 18.6106 237.99 18.5256 237.882 18.4311C237.772 18.3347 237.674 18.2289 237.587 18.1156C237.498 18.0003 237.423 17.8775 237.359 17.7472C237.294 17.6187 237.243 17.4826 237.205 17.3428C237.17 17.203 237.145 17.0613 237.136 16.9158C237.126 16.7723 237.132 16.6287 237.151 16.4851C237.17 16.3415 237.202 16.1998 237.249 16.0638C237.294 15.9258 237.355 15.7955 237.427 15.6689Z" fill="white"/>
<path d="M249.66 20.5226C249.732 20.6473 249.792 20.7795 249.838 20.9156C249.885 21.0535 249.917 21.1933 249.936 21.3369C249.955 21.4805 249.958 21.624 249.949 21.7695C249.94 21.9131 249.917 22.0548 249.879 22.1965C249.841 22.3363 249.792 22.4705 249.728 22.6008C249.664 22.7293 249.588 22.8521 249.499 22.9674C249.412 23.0826 249.314 23.1884 249.205 23.2829C249.097 23.3792 248.98 23.4624 248.853 23.5342L240.434 28.4048C240.308 28.4785 240.177 28.5371 240.041 28.5843C239.903 28.6316 239.764 28.6637 239.62 28.6826C239.476 28.7015 239.333 28.7052 239.189 28.6958C239.044 28.6863 238.902 28.6637 238.762 28.6259C238.624 28.5881 238.488 28.5371 238.36 28.4729C238.229 28.4105 238.107 28.333 237.993 28.2461C237.878 28.1573 237.772 28.0591 237.678 27.9495C237.583 27.8418 237.498 27.7247 237.427 27.5981C237.355 27.4734 237.294 27.3412 237.249 27.2051C237.202 27.0672 237.17 26.9274 237.151 26.7838C237.132 26.6402 237.126 26.4966 237.136 26.3511C237.145 26.2076 237.17 26.064 237.207 25.9242C237.243 25.7843 237.294 25.6502 237.359 25.5198C237.423 25.3895 237.498 25.2686 237.587 25.1533C237.674 25.0381 237.772 24.9323 237.882 24.8378C237.99 24.7414 238.107 24.6583 238.231 24.5846L246.652 19.7139C246.777 19.6421 246.909 19.5836 247.045 19.5363C247.183 19.4891 247.323 19.457 247.466 19.4381C247.61 19.4192 247.754 19.4135 247.897 19.423C248.041 19.4324 248.182 19.457 248.322 19.4948C248.462 19.5326 248.598 19.5817 248.727 19.6459C248.857 19.7102 248.978 19.7876 249.093 19.8745C249.208 19.9633 249.312 20.0616 249.409 20.1712C249.503 20.2788 249.588 20.396 249.66 20.5226Z" fill="white"/>
<path d="M180.482 62.5393C180.337 62.5393 180.193 62.5261 180.051 62.4977C179.91 62.4694 179.772 62.4278 179.64 62.3712C179.505 62.3164 179.379 62.2484 179.258 62.1671C179.139 62.0878 179.027 61.9952 178.925 61.8932C178.823 61.7911 178.731 61.6797 178.651 61.5588C178.57 61.4397 178.502 61.3112 178.447 61.1771C178.393 61.0448 178.351 60.9069 178.323 60.7633C178.294 60.6216 178.281 60.4781 178.281 60.3345V50.5931C178.281 50.4476 178.294 50.304 178.323 50.1623C178.351 50.0206 178.393 49.8827 178.447 49.7486C178.502 49.6144 178.57 49.4878 178.651 49.3669C178.731 49.246 178.823 49.1345 178.925 49.0325C179.027 48.9305 179.139 48.8379 179.258 48.7586C179.379 48.6773 179.505 48.6093 179.64 48.5545C179.772 48.4997 179.91 48.4582 180.051 48.4298C180.193 48.4015 180.337 48.3864 180.482 48.3864C180.626 48.3864 180.769 48.4015 180.911 48.4298C181.053 48.4582 181.191 48.4997 181.325 48.5545C181.457 48.6093 181.584 48.6773 181.705 48.7586C181.826 48.8379 181.937 48.9305 182.039 49.0325C182.141 49.1345 182.232 49.246 182.313 49.3669C182.392 49.4878 182.46 49.6144 182.515 49.7486C182.57 49.8827 182.613 50.0206 182.642 50.1623C182.668 50.304 182.683 50.4476 182.683 50.5931V60.3345C182.683 60.4781 182.668 60.6216 182.642 60.7633C182.613 60.9069 182.57 61.0448 182.515 61.1771C182.46 61.3112 182.392 61.4397 182.313 61.5588C182.232 61.6797 182.141 61.7911 182.039 61.8932C181.937 61.9952 181.826 62.0878 181.705 62.1671C181.584 62.2484 181.457 62.3164 181.325 62.3712C181.191 62.4278 181.053 62.4694 180.911 62.4977C180.769 62.5261 180.626 62.5393 180.482 62.5393Z" fill="white"/>
<path d="M190.855 66.3539C190.783 66.4786 190.698 66.5957 190.603 66.7053C190.507 66.813 190.403 66.9131 190.288 67C190.173 67.0888 190.052 67.1644 189.921 67.2286C189.791 67.2929 189.657 67.3439 189.517 67.3817C189.377 67.4194 189.235 67.4421 189.092 67.4516C188.948 67.461 188.805 67.4572 188.661 67.4383C188.518 67.4176 188.378 67.3854 188.24 67.3401C188.104 67.2929 187.972 67.2324 187.847 67.1606L179.426 62.2899C179.301 62.2181 179.184 62.1331 179.077 62.0386C178.967 61.9423 178.869 61.8365 178.782 61.7231C178.693 61.6079 178.617 61.4851 178.553 61.3547C178.489 61.2262 178.438 61.0902 178.402 60.9504C178.364 60.8106 178.34 60.6689 178.33 60.5234C178.321 60.3798 178.326 60.2362 178.345 60.0926C178.364 59.949 178.396 59.8074 178.444 59.6713C178.489 59.5334 178.549 59.403 178.621 59.2764C178.693 59.1518 178.778 59.0346 178.873 58.925C178.967 58.8173 179.073 58.7172 179.188 58.6303C179.301 58.5415 179.424 58.4659 179.555 58.4017C179.683 58.3375 179.819 58.2864 179.957 58.2487C180.097 58.2109 180.238 58.1882 180.384 58.1787C180.528 58.1693 180.671 58.175 180.815 58.1939C180.958 58.2128 181.098 58.2449 181.236 58.2921C181.372 58.3375 181.502 58.3979 181.629 58.4697L190.048 63.3404C190.174 63.4122 190.29 63.4972 190.399 63.5917C190.509 63.688 190.607 63.7938 190.694 63.9072C190.783 64.0224 190.858 64.1452 190.923 64.2756C190.987 64.4041 191.036 64.5401 191.074 64.6799C191.112 64.8197 191.134 64.9614 191.144 65.1069C191.153 65.2505 191.149 65.3941 191.13 65.5377C191.112 65.6813 191.079 65.823 191.032 65.959C190.987 66.0969 190.926 66.2273 190.855 66.3539Z" fill="white"/>
<path d="M247.799 62.5393C247.653 62.5393 247.512 62.5261 247.37 62.4977C247.228 62.4694 247.09 62.4278 246.956 62.3712C246.822 62.3164 246.696 62.2484 246.577 62.1671C246.456 62.0878 246.344 61.9952 246.242 61.8932C246.14 61.7911 246.049 61.6797 245.968 61.5588C245.889 61.4397 245.821 61.3112 245.766 61.1771C245.709 61.0448 245.668 60.9069 245.639 60.7633C245.611 60.6216 245.598 60.4781 245.598 60.3345V50.5931C245.598 50.4476 245.611 50.304 245.639 50.1623C245.668 50.0206 245.709 49.8827 245.766 49.7486C245.821 49.6144 245.889 49.4878 245.968 49.3669C246.049 49.246 246.14 49.1345 246.242 49.0325C246.344 48.9305 246.456 48.8379 246.577 48.7586C246.696 48.6773 246.822 48.6093 246.956 48.5545C247.09 48.4997 247.228 48.4582 247.37 48.4298C247.512 48.4015 247.653 48.3864 247.799 48.3864C247.944 48.3864 248.086 48.4015 248.228 48.4298C248.369 48.4582 248.507 48.4997 248.642 48.5545C248.776 48.6093 248.902 48.6773 249.021 48.7586C249.142 48.8379 249.254 48.9305 249.356 49.0325C249.458 49.1345 249.548 49.246 249.63 49.3669C249.709 49.4878 249.777 49.6144 249.832 49.7486C249.889 49.8827 249.93 50.0206 249.958 50.1623C249.987 50.304 250 50.4476 250 50.5931V60.3345C250 60.4781 249.987 60.6216 249.958 60.7633C249.93 60.9069 249.889 61.0448 249.832 61.1771C249.777 61.3112 249.709 61.4397 249.63 61.5588C249.548 61.6797 249.458 61.7911 249.356 61.8932C249.254 61.9952 249.142 62.0878 249.021 62.1671C248.902 62.2484 248.776 62.3164 248.642 62.3712C248.507 62.4278 248.369 62.4694 248.228 62.4977C248.086 62.5261 247.944 62.5393 247.799 62.5393Z" fill="white"/>
<path d="M249.66 59.2764C249.732 59.403 249.79 59.5334 249.838 59.6713C249.885 59.8074 249.917 59.949 249.936 60.0926C249.955 60.2362 249.958 60.3798 249.949 60.5234C249.94 60.6689 249.917 60.8106 249.879 60.9504C249.841 61.0902 249.792 61.2262 249.728 61.3547C249.664 61.4851 249.588 61.6079 249.499 61.7231C249.412 61.8384 249.312 61.9423 249.205 62.0386C249.095 62.1331 248.98 62.2181 248.853 62.2899L240.434 67.1606C240.308 67.2324 240.177 67.2929 240.039 67.3401C239.903 67.3854 239.764 67.4194 239.62 67.4383C239.476 67.4572 239.333 67.461 239.189 67.4516C239.044 67.4421 238.902 67.4194 238.762 67.3817C238.622 67.3439 238.488 67.2929 238.36 67.2286C238.229 67.1644 238.107 67.0888 237.993 67C237.878 66.9131 237.772 66.813 237.678 66.7053C237.581 66.5957 237.498 66.4786 237.427 66.3539C237.355 66.2273 237.294 66.0969 237.249 65.959C237.202 65.823 237.17 65.6813 237.151 65.5377C237.132 65.3941 237.126 65.2505 237.136 65.1069C237.145 64.9614 237.17 64.8197 237.205 64.6799C237.243 64.5401 237.294 64.406 237.359 64.2756C237.423 64.1452 237.498 64.0224 237.587 63.9072C237.674 63.7938 237.772 63.688 237.882 63.5917C237.99 63.4972 238.107 63.4122 238.231 63.3404L246.652 58.4697C246.777 58.3979 246.909 58.3375 247.045 58.2921C247.183 58.2449 247.323 58.2128 247.466 58.1939C247.608 58.175 247.754 58.1693 247.897 58.1787C248.041 58.1882 248.182 58.2128 248.322 58.2487C248.462 58.2864 248.596 58.3375 248.727 58.4017C248.857 58.4659 248.978 58.5415 249.093 58.6303C249.208 58.7191 249.312 58.8173 249.409 58.925C249.503 59.0346 249.588 59.1518 249.66 59.2764Z" fill="white"/>
<path d="M224.49 8.1796C224.419 8.3043 224.333 8.42144 224.239 8.53102C224.143 8.63871 224.039 8.73884 223.924 8.82575C223.808 8.91455 223.687 8.99012 223.557 9.05436C223.429 9.1186 223.292 9.16961 223.153 9.2074C223.013 9.24518 222.871 9.26786 222.728 9.2773C222.584 9.28675 222.44 9.28108 222.297 9.26219C222.153 9.2433 222.013 9.21118 221.875 9.16583C221.739 9.1186 221.607 9.05814 221.483 8.98635L213.062 4.11566C212.937 4.04387 212.82 3.95885 212.712 3.86438C212.603 3.76803 212.504 3.66222 212.418 3.54886C212.329 3.43362 212.253 3.31081 212.189 3.18045C212.125 3.05197 212.074 2.91594 212.038 2.77613C212 2.63632 211.975 2.49462 211.966 2.34914C211.957 2.20555 211.962 2.06196 211.981 1.91838C212 1.77479 212.032 1.63309 212.079 1.49706C212.125 1.35914 212.185 1.22877 212.257 1.10219C212.329 0.977491 212.414 0.860353 212.508 0.750772C212.603 0.64308 212.708 0.542946 212.824 0.456037C212.937 0.367239 213.06 0.291666 213.19 0.227428C213.319 0.163191 213.455 0.112179 213.593 0.0743928C213.732 0.0366063 213.874 0.0139342 214.02 0.00448774C214.163 -0.00495926 214.307 0.000708841 214.45 0.0196023C214.594 0.0384954 214.734 0.0706142 214.872 0.115958C215.008 0.163191 215.138 0.223649 215.265 0.295444L223.684 5.16613C223.81 5.23792 223.927 5.32294 224.035 5.41741C224.145 5.51376 224.243 5.61957 224.33 5.73293C224.419 5.84817 224.494 5.97098 224.558 6.10135C224.623 6.22982 224.672 6.36585 224.709 6.50566C224.747 6.64547 224.77 6.78717 224.779 6.93265C224.789 7.07624 224.785 7.21983 224.766 7.36341C224.747 7.507 224.715 7.6487 224.668 7.78474C224.623 7.92266 224.562 8.05302 224.49 8.1796Z" fill="white"/>
<path d="M216.124 1.10219C216.196 1.22877 216.257 1.35914 216.302 1.49706C216.349 1.63309 216.381 1.77479 216.4 1.91838C216.419 2.06196 216.425 2.20555 216.415 2.34914C216.406 2.49462 216.381 2.63632 216.345 2.77613C216.308 2.91594 216.257 3.05197 216.192 3.18045C216.128 3.31081 216.053 3.43362 215.966 3.54886C215.877 3.66222 215.779 3.76803 215.669 3.86438C215.561 3.95885 215.444 4.04387 215.32 4.11566L206.899 8.98635C206.774 9.05814 206.642 9.1186 206.506 9.16583C206.368 9.21118 206.228 9.2433 206.084 9.26219C205.943 9.28108 205.799 9.28675 205.654 9.2773C205.51 9.26786 205.368 9.24518 205.229 9.2074C205.089 9.16961 204.955 9.1186 204.824 9.05436C204.694 8.99012 204.573 8.91455 204.458 8.82575C204.343 8.73884 204.239 8.63871 204.142 8.53102C204.048 8.42144 203.965 8.3043 203.891 8.1796C203.819 8.05302 203.761 7.92266 203.713 7.78474C203.666 7.6487 203.634 7.507 203.615 7.36341C203.596 7.21983 203.592 7.07624 203.602 6.93265C203.611 6.78717 203.634 6.64547 203.672 6.50566C203.71 6.36585 203.761 6.22982 203.823 6.10135C203.887 5.97098 203.963 5.84817 204.052 5.73293C204.14 5.61957 204.239 5.51376 204.346 5.41741C204.456 5.32294 204.573 5.23792 204.698 5.16613L213.118 0.295444C213.243 0.223649 213.374 0.163191 213.511 0.115958C213.647 0.0706142 213.787 0.0384954 213.931 0.0196023C214.074 0.000708841 214.218 -0.00495926 214.362 0.00448774C214.507 0.0139342 214.649 0.0366063 214.789 0.0743928C214.928 0.112179 215.063 0.163191 215.191 0.227428C215.321 0.291666 215.444 0.367239 215.558 0.456037C215.673 0.542946 215.779 0.64308 215.873 0.750772C215.969 0.860353 216.053 0.977491 216.124 1.10219Z" fill="white"/>
<path d="M212.257 81.4061C212.185 81.2814 212.125 81.1511 212.079 81.0132C212.032 80.8752 212 80.7354 211.981 80.5918C211.962 80.4482 211.957 80.3047 211.966 80.1592C211.975 80.0156 212 79.8739 212.038 79.7341C212.074 79.5943 212.125 79.4582 212.189 79.3279C212.253 79.1994 212.329 79.0766 212.418 78.9613C212.504 78.8461 212.603 78.7422 212.712 78.6458C212.82 78.5514 212.937 78.4663 213.062 78.3945L221.483 73.5239C221.607 73.4502 221.739 73.3916 221.875 73.3444C222.013 73.299 222.153 73.265 222.297 73.2461C222.44 73.2272 222.584 73.2235 222.728 73.2329C222.871 73.2424 223.013 73.265 223.153 73.3028C223.292 73.3406 223.427 73.3916 223.557 73.4558C223.687 73.5201 223.808 73.5956 223.924 73.6844C224.039 73.7714 224.143 73.8696 224.239 73.9792C224.333 74.0888 224.419 74.2059 224.49 74.3306C224.562 74.4553 224.623 74.5876 224.668 74.7236C224.715 74.8615 224.747 75.0013 224.766 75.1449C224.785 75.2885 224.789 75.434 224.779 75.5776C224.77 75.723 224.747 75.8647 224.709 76.0045C224.672 76.1444 224.623 76.2785 224.558 76.4089C224.494 76.5392 224.419 76.662 224.33 76.7754C224.243 76.8906 224.145 76.9964 224.035 77.0909C223.925 77.1873 223.81 77.2704 223.684 77.3441L215.265 82.2148C215.138 82.2866 215.008 82.347 214.872 82.3924C214.734 82.4396 214.594 82.4717 214.45 82.4906C214.307 82.5095 214.163 82.5152 214.02 82.5057C213.874 82.4963 213.732 82.4717 213.593 82.4339C213.455 82.398 213.319 82.347 213.19 82.2828C213.06 82.2185 212.937 82.143 212.824 82.0542C212.708 81.9654 212.603 81.8671 212.508 81.7594C212.414 81.6499 212.329 81.5327 212.257 81.4061Z" fill="white"/>
<path d="M203.891 74.3306C203.963 74.2059 204.048 74.0888 204.142 73.9792C204.239 73.8696 204.343 73.7714 204.458 73.6844C204.573 73.5956 204.694 73.5201 204.824 73.4558C204.955 73.3916 205.089 73.3406 205.229 73.3028C205.368 73.265 205.51 73.2424 205.654 73.2329C205.797 73.2235 205.943 73.2272 206.084 73.2461C206.228 73.265 206.368 73.299 206.506 73.3444C206.642 73.3916 206.774 73.4502 206.899 73.5239L215.32 78.3945C215.444 78.4663 215.561 78.5514 215.669 78.6458C215.779 78.7422 215.877 78.8461 215.964 78.9613C216.053 79.0766 216.128 79.1994 216.192 79.3279C216.257 79.4582 216.308 79.5943 216.345 79.7341C216.381 79.8739 216.406 80.0156 216.415 80.1592C216.425 80.3047 216.419 80.4482 216.4 80.5918C216.381 80.7354 216.349 80.8752 216.302 81.0132C216.257 81.1511 216.196 81.2814 216.124 81.4061C216.053 81.5327 215.969 81.6499 215.873 81.7594C215.779 81.8671 215.673 81.9654 215.558 82.0542C215.444 82.143 215.321 82.2185 215.191 82.2828C215.063 82.347 214.928 82.398 214.789 82.4339C214.649 82.4717 214.507 82.4963 214.362 82.5057C214.218 82.5152 214.074 82.5095 213.931 82.4906C213.787 82.4717 213.647 82.4396 213.511 82.3924C213.374 82.347 213.243 82.2866 213.117 82.2148L204.698 77.3441C204.571 77.2704 204.456 77.1873 204.346 77.0909C204.239 76.9964 204.139 76.8906 204.052 76.7754C203.963 76.662 203.887 76.5392 203.823 76.4089C203.759 76.2785 203.71 76.1444 203.672 76.0045C203.634 75.8647 203.611 75.723 203.602 75.5776C203.592 75.434 203.596 75.2885 203.615 75.1449C203.634 75.0013 203.666 74.8615 203.713 74.7236C203.761 74.5876 203.819 74.4553 203.891 74.3306Z" fill="white"/>
<path d="M214.263 82.4453C214.12 82.4453 213.976 82.432 213.835 82.4037C213.693 82.3754 213.555 82.3338 213.421 82.2771C213.288 82.2223 213.162 82.1543 213.041 82.0731C212.92 81.9937 212.81 81.9011 212.707 81.7991C212.605 81.6971 212.514 81.5856 212.435 81.4647C212.353 81.3457 212.285 81.2172 212.23 81.0849C212.176 80.9508 212.134 80.8129 212.106 80.6712C212.077 80.5276 212.062 80.384 212.062 80.2404V70.499C212.062 70.3536 212.077 70.21 212.106 70.0683C212.134 69.9266 212.176 69.7887 212.23 69.6545C212.285 69.5204 212.353 69.3938 212.435 69.2729C212.514 69.152 212.605 69.0405 212.707 68.9385C212.81 68.8364 212.92 68.7458 213.041 68.6645C213.162 68.5833 213.288 68.5153 213.421 68.4605C213.555 68.4057 213.693 68.3641 213.835 68.3358C213.976 68.3074 214.12 68.2923 214.263 68.2923C214.409 68.2923 214.552 68.3074 214.694 68.3358C214.836 68.3641 214.974 68.4057 215.106 68.4605C215.24 68.5153 215.367 68.5833 215.488 68.6645C215.607 68.7458 215.718 68.8364 215.82 68.9385C215.922 69.0405 216.015 69.152 216.094 69.2729C216.175 69.3938 216.243 69.5204 216.298 69.6545C216.353 69.7887 216.395 69.9266 216.423 70.0683C216.451 70.21 216.466 70.3536 216.466 70.499V80.2404C216.466 80.384 216.451 80.5276 216.423 80.6712C216.395 80.8129 216.353 80.9508 216.298 81.0849C216.243 81.2172 216.175 81.3457 216.094 81.4647C216.015 81.5856 215.922 81.6971 215.82 81.7991C215.718 81.9011 215.607 81.9937 215.488 82.0731C215.367 82.1543 215.24 82.2223 215.106 82.2771C214.974 82.3338 214.836 82.3754 214.694 82.4037C214.552 82.432 214.409 82.4453 214.263 82.4453Z" fill="white"/>
<path d="M182.57 30.1336C182.672 24.7207 186.668 27.651 186.668 27.651L182.39 24.237L182.57 30.1336Z" fill="white"/>
<path d="M182.496 30.1355L182.313 24.0802L186.713 27.5924L186.624 27.7096C186.413 27.5622 186.192 27.4318 185.961 27.3185C185.515 27.0842 185.041 26.9557 184.537 26.9331C184.285 26.9236 184.047 26.9765 183.823 27.088C183.598 27.2013 183.413 27.36 183.267 27.5641C182.876 28.095 182.666 28.9603 182.644 30.1336L182.496 30.1355ZM182.468 24.3938L182.606 28.9036C182.678 28.386 182.857 27.9117 183.15 27.4772C183.309 27.2542 183.511 27.0804 183.756 26.9576C184.002 26.8348 184.263 26.7781 184.537 26.7857C185.011 26.8027 185.461 26.9161 185.886 27.122L182.468 24.3938Z" fill="white"/>
<path d="M245.779 29.9862C245.677 24.5733 241.681 27.5036 241.681 27.5036L245.959 24.0896L245.779 29.9862Z" fill="white"/>
<path d="M245.853 29.9881H245.706C245.683 28.8129 245.473 27.9495 245.082 27.4186C244.937 27.2127 244.751 27.054 244.527 26.9425C244.302 26.831 244.064 26.7781 243.812 26.7857C242.796 26.7857 241.736 27.5565 241.725 27.5641L241.636 27.447L246.036 23.9347L245.853 29.9881ZM243.812 26.6383C244.086 26.6308 244.347 26.6874 244.593 26.8103C244.84 26.9331 245.042 27.1069 245.201 27.3317C245.492 27.7644 245.673 28.2405 245.743 28.7581L245.881 24.2464L242.463 26.9746C242.89 26.7687 243.34 26.6553 243.812 26.6383Z" fill="white"/>
<path d="M212.317 72.0275C212.215 77.4404 208.221 74.5101 208.221 74.5101L212.497 77.9222L212.317 72.0275Z" fill="white"/>
<path d="M212.391 72.0237L212.576 78.079L208.174 74.5668L208.263 74.4515C208.474 74.5989 208.696 74.7274 208.926 74.8407C209.372 75.075 209.848 75.2054 210.351 75.228C210.602 75.2356 210.84 75.1846 211.065 75.0712C211.29 74.9597 211.475 74.801 211.62 74.5951C212.011 74.0661 212.223 73.2008 212.244 72.0256L212.391 72.0237ZM212.419 77.7673L212.281 73.2556C212.212 73.7732 212.03 74.2494 211.739 74.682C211.581 74.9068 211.378 75.0807 211.131 75.2035C210.885 75.3263 210.625 75.3829 210.351 75.3754C209.878 75.3565 209.429 75.245 209.002 75.0391L212.419 77.7673Z" fill="white"/>
<path d="M216.325 72.0275C216.429 77.4404 220.423 74.5101 220.423 74.5101L216.145 77.9222L216.325 72.0275Z" fill="white"/>
<path d="M216.251 72.0237L216.398 72.0256C216.421 73.1989 216.631 74.0642 217.022 74.5951C217.167 74.801 217.352 74.9578 217.577 75.0712C217.802 75.1827 218.04 75.2356 218.291 75.228C219.308 75.228 220.368 74.4572 220.379 74.4496L220.468 74.5668L216.068 78.079L216.251 72.0237ZM218.291 75.3754C218.017 75.3829 217.757 75.3263 217.511 75.2035C217.266 75.0807 217.063 74.9068 216.903 74.682C216.612 74.2494 216.432 73.7732 216.361 73.2556L216.223 77.7673L219.64 75.0391C219.215 75.245 218.766 75.3565 218.291 75.3754Z" fill="white"/>
<path d="M189.041 19.2057C184.229 21.6713 188.61 23.9838 188.61 23.9838L183.671 21.6297L189.041 19.2057Z" fill="white"/>
<path d="M189.011 19.1396L189.075 19.2718C188.03 19.8065 187.346 20.3752 187.042 20.959C186.921 21.1801 186.861 21.4162 186.859 21.6694C186.857 21.9207 186.915 22.1568 187.033 22.3798C187.477 23.2942 188.633 23.912 188.644 23.9196L188.578 24.0499L183.499 21.6259L189.011 19.1396ZM186.898 22.444C186.772 22.2003 186.708 21.9415 186.711 21.6656C186.713 21.3917 186.779 21.1328 186.912 20.891C187.172 20.4394 187.52 20.0672 187.953 19.7763L183.847 21.6297L187.792 23.5134C187.42 23.2186 187.123 22.8634 186.9 22.4459L186.898 22.444Z" fill="white"/>
<path d="M239.235 19.1358C244.047 21.5995 239.667 23.9139 239.667 23.9139L244.604 21.556L239.235 19.1358Z" fill="white"/>
<path d="M239.265 19.0678L244.778 21.5541L239.699 23.98L239.633 23.8497C239.858 23.7231 240.072 23.5814 240.274 23.4227C240.68 23.1242 241.003 22.752 241.245 22.3099C241.362 22.0869 241.421 21.8489 241.419 21.5976C241.417 21.3463 241.354 21.1102 241.235 20.8891C240.929 20.3034 240.245 19.7347 239.202 19.2019L239.265 19.0678ZM244.428 21.5579L240.323 19.7064C240.756 19.9973 241.103 20.3676 241.364 20.8211C241.496 21.061 241.562 21.3199 241.566 21.5957C241.568 21.8716 241.506 22.1304 241.377 22.3741C241.154 22.7917 240.858 23.1487 240.485 23.4416L244.428 21.5579Z" fill="white"/>
<path d="M213.345 54.0476H207.859V47.7524H199.198V54.0476H193.848V41.1851C193.848 38.1433 194.688 35.7646 196.372 34.051C198.053 32.3336 200.453 31.474 203.566 31.474C206.699 31.474 209.113 32.3336 210.806 34.051C212.499 35.7646 213.345 38.1433 213.345 41.1851V54.0476ZM207.859 43.014V41.1851C207.859 38.098 206.415 36.5525 203.528 36.5525C200.642 36.5525 199.198 38.098 199.198 41.1851V43.014H207.859Z" fill="white"/>
<path d="M235.613 54.0476H229.114L225.184 47.11H222.849V54.0476H217.37V31.9123H226.34C229.156 31.9123 231.27 32.6038 232.681 33.983C234.091 35.3584 234.797 37.1949 234.797 39.4923C234.797 41.0944 234.451 42.4906 233.762 43.679C233.076 44.8636 232.046 45.7478 230.671 46.3316V46.3997L235.613 54.0476ZM222.849 42.0315H226.409C228.302 42.0315 229.25 41.1851 229.25 39.4923C229.25 37.8259 228.302 36.9908 226.409 36.9908H222.849V42.0315Z" fill="white"/>
<path d="M29.2543 42.0823V23.9523H36.3506V42.0823C36.3506 45.7608 35.4079 48.5268 33.5242 50.3802C31.6443 52.2355 29.1712 53.1613 26.1029 53.1613C22.5397 53.1613 19.9135 51.8652 18.2207 49.2693H18.13C16.4371 51.8652 13.8091 53.1613 10.2477 53.1613C7.18322 53.1613 4.71009 52.2355 2.82643 50.3802C0.940885 48.5268 0 45.7608 0 42.0823V23.9523H7.09631V42.0823C7.09631 45.0901 8.35082 46.594 10.8598 46.594C13.3727 46.594 14.6309 45.0901 14.6309 42.0823V23.9523H21.7273V42.0823C21.7273 45.0901 22.9818 46.594 25.4908 46.594C27.9998 46.594 29.2543 45.0901 29.2543 42.0823Z" fill="white"/>
<path d="M63.1035 41.9991V52.5945H57.0653V49.2239H56.9746C56.4493 50.418 55.5954 51.374 54.4126 52.0882C53.228 52.8023 51.8469 53.1613 50.2712 53.1613C49.0772 53.1613 47.8869 52.9365 46.7042 52.4887C45.5196 52.0352 44.4086 51.3702 43.3714 50.4936C42.3379 49.6169 41.4991 48.421 40.8548 46.9038C40.2143 45.3829 39.895 43.675 39.895 41.78C39.895 38.4812 40.9833 35.7568 43.1598 33.6105C45.3363 31.4643 48.1325 30.3911 51.5484 30.3911C54.9889 30.3911 57.7756 31.4416 59.9068 33.5425C62.038 35.6435 63.1035 38.4623 63.1035 41.9991ZM47.9285 45.5662C48.8505 46.5449 50.054 47.0323 51.5409 47.0323C53.0315 47.0323 54.235 46.5449 55.1533 45.5662C56.0752 44.5894 56.5362 43.3273 56.5362 41.78C56.5362 40.2345 56.0752 38.9724 55.1533 37.9938C54.235 37.0113 53.0315 36.5201 51.5409 36.5201C50.054 36.5201 48.8505 37.0113 47.9285 37.9938C47.0103 38.9724 46.553 40.2345 46.553 41.78C46.553 43.3273 47.0103 44.5894 47.9285 45.5662Z" fill="white"/>
<path d="M88.7683 52.5945H82.201V41.3794C82.201 38.1411 80.8274 36.5201 78.0823 36.5201C75.3352 36.5201 73.9635 38.1411 73.9635 41.3794V52.5945H67.3962V41.3794C67.3962 37.8181 68.3579 35.0974 70.2831 33.2176C72.2121 31.3339 74.8118 30.3911 78.0823 30.3911C81.381 30.3911 83.9864 31.3339 85.8965 33.2176C87.8104 35.0974 88.7683 37.8181 88.7683 41.3794V52.5945Z" fill="white"/>
<path d="M115.389 21.5037V41.5608C115.389 45.0939 114.324 47.909 112.192 50.0099C110.061 52.1108 107.275 53.1613 103.834 53.1613C100.418 53.1613 97.622 52.0882 95.4455 49.9419C93.269 47.7956 92.1807 45.075 92.1807 41.78C92.1807 39.8812 92.5 38.1733 93.1405 36.6561C93.7847 35.1352 94.6236 33.9393 95.6571 33.0664C96.6943 32.1898 97.8052 31.5247 98.9898 31.0713C100.173 30.6178 101.363 30.3911 102.557 30.3911C105.332 30.3911 107.394 31.3263 108.739 33.1949H108.822V21.5037H115.389ZM100.214 45.5662C101.136 46.5449 102.34 47.0323 103.827 47.0323C105.317 47.0323 106.521 46.5449 107.439 45.5662C108.361 44.5894 108.822 43.3273 108.822 41.78C108.822 40.2345 108.361 38.9724 107.439 37.9938C106.521 37.0113 105.317 36.5201 103.827 36.5201C102.34 36.5201 101.136 37.0113 100.214 37.9938C99.2959 38.9724 98.8387 40.2345 98.8387 41.78C98.8387 43.3273 99.2959 44.5894 100.214 45.5662Z" fill="white"/>
<path d="M141.976 43.6164H125.637V43.7071C126.221 46.1009 127.829 47.2968 130.459 47.2968C132.469 47.2968 133.839 46.7716 134.57 45.7173H141.356C140.655 47.9656 139.327 49.7681 137.374 51.1284C135.418 52.4849 133.113 53.1613 130.459 53.1613C127.043 53.1613 124.246 52.0882 122.07 49.9419C119.893 47.7956 118.805 45.075 118.805 41.78C118.805 38.4812 119.893 35.7568 122.07 33.6105C124.246 31.4643 127.043 30.3911 130.459 30.3911C133.844 30.3911 136.61 31.4643 138.757 33.6105C140.903 35.7568 141.976 38.4812 141.976 41.78V43.6164ZM135.227 39.3692C134.471 37.2947 132.881 36.2556 130.459 36.2556C128.035 36.2556 126.47 37.2947 125.765 39.3692V39.4599H135.227V39.3692Z" fill="white"/>
<path d="M164.832 40.465H158.264V40.2912C158.264 37.7784 157.21 36.5201 155.105 36.5201C153.005 36.5201 151.954 37.7784 151.954 40.2912V52.5945H145.387V40.2912C145.387 37.0227 146.256 34.5552 147.994 32.8926C149.732 31.2262 152.101 30.3911 155.105 30.3911C158.113 30.3911 160.486 31.23 162.224 32.9077C163.963 34.5854 164.832 37.1058 164.832 40.465Z" fill="white"/>
<path d="M45.2516 65.0096V73.0657H42.1002V65.0096C42.1002 63.3734 42.5178 62.1435 43.3547 61.3216C44.1898 60.496 45.2913 60.0822 46.6573 60.0822C48.2386 60.0822 49.4044 60.6604 50.1563 61.8129H50.2016C50.9517 60.6604 52.1174 60.0822 53.7007 60.0822C55.0648 60.0822 56.1663 60.496 57.0032 61.3216C57.8383 62.1435 58.2577 63.3734 58.2577 65.0096V73.0657H55.1063V65.0096C55.1063 63.6701 54.5471 62.9994 53.4286 62.9994C52.3139 62.9994 51.7585 63.6701 51.7585 65.0096V73.0657H48.5995V65.0096C48.5995 63.6701 48.0403 62.9994 46.9218 62.9994C45.8071 62.9994 45.2516 63.6701 45.2516 65.0096Z" fill="white"/>
<path d="M70.1473 68.3575V73.0657H67.4569V71.5693H67.4191C67.1867 72.0984 66.807 72.5216 66.278 72.839C65.7527 73.1564 65.1406 73.3151 64.4415 73.3151C63.9125 73.3151 63.3835 73.2168 62.8545 73.0203C62.3293 72.8201 61.8362 72.5253 61.3733 72.1361C60.9142 71.7432 60.542 71.2104 60.2548 70.534C59.9714 69.8595 59.8316 69.1019 59.8316 68.2592C59.8316 66.7931 60.3153 65.584 61.2826 64.6317C62.2499 63.6757 63.4912 63.1958 65.0083 63.1958C66.5387 63.1958 67.7781 63.6644 68.7265 64.6015C69.6731 65.5348 70.1473 66.7856 70.1473 68.3575ZM63.3986 69.9445C63.8105 70.3791 64.3471 70.5945 65.0083 70.5945C65.6677 70.5945 66.2024 70.3791 66.6105 69.9445C67.0224 69.5062 67.2302 68.9451 67.2302 68.2592C67.2302 67.5696 67.0224 67.0085 66.6105 66.574C66.2024 66.1413 65.6677 65.924 65.0083 65.924C64.3471 65.924 63.8105 66.1413 63.3986 66.574C62.9905 67.0085 62.7865 67.5696 62.7865 68.2592C62.7865 68.9451 62.9905 69.5062 63.3986 69.9445Z" fill="white"/>
<path d="M72.0497 77.1769V68.3575C72.0497 66.7856 72.522 65.5348 73.4705 64.6015C74.417 63.6644 75.6564 63.1958 77.1887 63.1958C78.7096 63.1958 79.9547 63.6757 80.922 64.6317C81.8893 65.584 82.373 66.7931 82.373 68.2592C82.373 69.1019 82.2294 69.8595 81.9422 70.534C81.6551 71.2104 81.2791 71.7432 80.8162 72.1361C80.3571 72.5253 79.8659 72.8201 79.3425 73.0203C78.8173 73.2168 78.2883 73.3151 77.7555 73.3151C76.5199 73.3151 75.6054 72.9032 75.0122 72.0757H74.9744V77.1769H72.0497ZM78.7984 66.574C78.3903 66.1413 77.8537 65.924 77.1887 65.924C76.5274 65.924 75.9946 66.1413 75.5865 66.574C75.1784 67.0085 74.9744 67.5696 74.9744 68.2592C74.9744 68.9451 75.1784 69.5062 75.5865 69.9445C75.9946 70.3791 76.5274 70.5945 77.1887 70.5945C77.8537 70.5945 78.3903 70.3791 78.7984 69.9445C79.2065 69.5062 79.4105 68.9451 79.4105 68.2592C79.4105 67.5696 79.2065 67.0085 78.7984 66.574Z" fill="white"/>
<path d="M92.2711 65.0096V73.0657H89.1197V65.0096C89.1197 63.3734 89.5373 62.1435 90.3742 61.3216C91.2093 60.496 92.3108 60.0822 93.6768 60.0822C95.2581 60.0822 96.4239 60.6604 97.1758 61.8129H97.2212C97.9712 60.6604 99.1369 60.0822 100.72 60.0822C102.084 60.0822 103.186 60.496 104.023 61.3216C104.858 62.1435 105.277 63.3734 105.277 65.0096V73.0657H102.126V65.0096C102.126 63.6701 101.567 62.9994 100.448 62.9994C99.3334 62.9994 98.778 63.6701 98.778 65.0096V73.0657H95.619V65.0096C95.619 63.6701 95.0598 62.9994 93.9413 62.9994C92.8266 62.9994 92.2711 63.6701 92.2711 65.0096Z" fill="white"/>
<path d="M111.99 70.4357C112.534 70.4357 112.974 70.2544 113.313 69.8916C113.649 69.5289 113.819 68.9904 113.819 68.2744V63.4452H116.736V72.7332C116.736 74.3145 116.294 75.4916 115.414 76.2624C114.531 77.0371 113.382 77.4263 111.967 77.4263C110.773 77.4263 109.757 77.1391 108.922 76.5647C108.085 75.9941 107.55 75.1402 107.32 74.0028H110.237C110.509 74.596 111.085 74.8946 111.967 74.8946C112.617 74.8946 113.088 74.7302 113.381 74.4033C113.672 74.0803 113.819 73.5569 113.819 72.8314V71.9397H113.781C113.237 72.7558 112.451 73.1639 111.423 73.1639C110.278 73.1639 109.294 72.7596 108.468 71.9472C107.646 71.1367 107.237 69.9124 107.237 68.2744V63.4452H110.161V68.2744C110.161 69.7159 110.77 70.4357 111.99 70.4357Z" fill="white"/>
<path d="M137.196 68.3953V60.3316H140.347V68.3953C140.347 70.0277 139.928 71.2576 139.093 72.0832C138.256 72.9051 137.154 73.3151 135.79 73.3151C134.207 73.3151 133.041 72.7388 132.291 71.5845H132.246C131.494 72.7388 130.328 73.3151 128.747 73.3151C127.381 73.3151 126.279 72.9051 125.444 72.0832C124.607 71.2576 124.19 70.0277 124.19 68.3953V60.3316H127.341V68.3953C127.341 69.731 127.897 70.398 129.011 70.398C130.13 70.398 130.689 69.731 130.689 68.3953V60.3316H133.848V68.3953C133.848 69.731 134.403 70.398 135.518 70.398C136.637 70.398 137.196 69.731 137.196 68.3953Z" fill="white"/>
<path d="M152.237 68.3575V73.0657H149.546V71.5693H149.509C149.276 72.0984 148.896 72.5216 148.367 72.839C147.842 73.1564 147.23 73.3151 146.531 73.3151C146.002 73.3151 145.473 73.2168 144.944 73.0203C144.419 72.8201 143.926 72.5253 143.463 72.1361C143.004 71.7432 142.631 71.2104 142.344 70.534C142.061 69.8595 141.921 69.1019 141.921 68.2592C141.921 66.7931 142.405 65.584 143.372 64.6317C144.339 63.6757 145.581 63.1958 147.098 63.1958C148.628 63.1958 149.868 63.6644 150.816 64.6015C151.763 65.5348 152.237 66.7856 152.237 68.3575ZM145.488 69.9445C145.9 70.3791 146.437 70.5945 147.098 70.5945C147.757 70.5945 148.292 70.3791 148.7 69.9445C149.112 69.5062 149.32 68.9451 149.32 68.2592C149.32 67.5696 149.112 67.0085 148.7 66.574C148.292 66.1413 147.757 65.924 147.098 65.924C146.437 65.924 145.9 66.1413 145.488 66.574C145.08 67.0085 144.876 67.5696 144.876 68.2592C144.876 68.9451 145.08 69.5062 145.488 69.9445Z" fill="white"/>
<path d="M158.893 70.4357C159.437 70.4357 159.877 70.2544 160.215 69.8916C160.552 69.5289 160.722 68.9904 160.722 68.2744V63.4452H163.639V72.7332C163.639 74.3145 163.197 75.4916 162.316 76.2624C161.434 77.0371 160.285 77.4263 158.87 77.4263C157.676 77.4263 156.66 77.1391 155.825 76.5647C154.988 75.9941 154.453 75.1402 154.222 74.0028H157.139C157.412 74.596 157.988 74.8946 158.87 74.8946C159.52 74.8946 159.99 74.7302 160.283 74.4033C160.574 74.0803 160.722 73.5569 160.722 72.8314V71.9397H160.684C160.14 72.7558 159.354 73.1639 158.326 73.1639C157.181 73.1639 156.197 72.7596 155.371 71.9472C154.549 71.1367 154.139 69.9124 154.139 68.2744V63.4452H157.064V68.2744C157.064 69.7159 157.672 70.4357 158.893 70.4357Z" fill="white"/>
</svg>
