<svg width="220" height="85" viewBox="0 0 220 85" fill="none" xmlns="http://www.w3.org/2000/svg">
<g filter="url(#filter0_dd_392_3853)">
<path d="M154.83 36.3134C154.712 36.3134 154.596 36.3012 154.482 36.2782C154.367 36.2551 154.256 36.2214 154.149 36.1769C154.04 36.1324 153.938 36.0772 153.84 36.0112C153.744 35.9468 153.654 35.8716 153.572 35.7888C153.489 35.7059 153.415 35.6154 153.35 35.5172C153.285 35.419 153.23 35.3162 153.186 35.2073C153.141 35.0984 153.108 34.9864 153.085 34.8713C153.062 34.7563 153.051 34.6397 153.051 34.5215V26.6113C153.051 26.4947 153.062 26.3781 153.085 26.2631C153.108 26.1465 153.141 26.0345 153.186 25.9271C153.23 25.8182 153.285 25.7139 153.35 25.6172C153.415 25.519 153.489 25.4285 153.572 25.3456C153.654 25.2628 153.744 25.1876 153.84 25.1232C153.938 25.0572 154.04 25.002 154.149 24.9575C154.256 24.9115 154.367 24.8777 154.482 24.8547C154.596 24.8317 154.712 24.821 154.83 24.821C154.946 24.821 155.062 24.8317 155.176 24.8547C155.291 24.8777 155.402 24.9115 155.51 24.9575C155.617 25.002 155.72 25.0572 155.817 25.1232C155.915 25.1876 156.005 25.2628 156.088 25.3456C156.17 25.4285 156.243 25.519 156.309 25.6172C156.373 25.7139 156.428 25.8182 156.472 25.9271C156.517 26.0345 156.552 26.1465 156.575 26.2631C156.596 26.3781 156.608 26.4947 156.608 26.6113V34.5215C156.608 34.6397 156.596 34.7563 156.575 34.8713C156.552 34.9864 156.517 35.0984 156.472 35.2073C156.428 35.3162 156.373 35.419 156.309 35.5172C156.243 35.6154 156.17 35.7059 156.088 35.7888C156.005 35.8716 155.915 35.9468 155.817 36.0112C155.72 36.0772 155.617 36.1324 155.51 36.1769C155.402 36.2214 155.291 36.2551 155.176 36.2782C155.062 36.3012 154.946 36.3134 154.83 36.3134Z" fill="url(#paint0_linear_392_3853)"/>
<path d="M153.326 27.4705C153.268 27.3677 153.219 27.2618 153.182 27.1498C153.144 27.0394 153.118 26.9243 153.103 26.8077C153.088 26.6911 153.083 26.5745 153.091 26.4579C153.098 26.3398 153.118 26.2247 153.149 26.1112C153.178 25.9977 153.219 25.8872 153.271 25.7829C153.323 25.677 153.384 25.5773 153.456 25.4837C153.526 25.3917 153.605 25.3058 153.694 25.2275C153.781 25.1508 153.876 25.0818 153.976 25.0235L160.78 21.0684C160.881 21.0101 160.988 20.961 161.098 20.9226C161.209 20.8858 161.322 20.8597 161.438 20.8444C161.554 20.829 161.67 20.8244 161.786 20.8321C161.902 20.8398 162.017 20.8582 162.13 20.8889C162.243 20.9196 162.353 20.961 162.456 21.0131C162.562 21.0653 162.659 21.1267 162.753 21.1988C162.846 21.2694 162.93 21.3507 163.007 21.4381C163.084 21.5271 163.153 21.6222 163.211 21.7235C163.269 21.8263 163.317 21.9321 163.354 22.0441C163.392 22.1546 163.418 22.2696 163.433 22.3862C163.449 22.5028 163.452 22.6194 163.444 22.736C163.436 22.8541 163.418 22.9692 163.388 23.0827C163.357 23.1963 163.317 23.3067 163.266 23.4111C163.214 23.5169 163.153 23.6166 163.081 23.7102C163.011 23.8023 162.931 23.8882 162.843 23.9664C162.756 24.0431 162.661 24.1122 162.559 24.1705L155.756 28.1256C155.654 28.1839 155.549 28.233 155.439 28.2713C155.327 28.3081 155.214 28.3342 155.098 28.3496C154.982 28.3649 154.866 28.3695 154.75 28.3618C154.633 28.3542 154.518 28.3357 154.405 28.3051C154.294 28.2744 154.184 28.233 154.08 28.1808C153.975 28.1286 153.876 28.0673 153.784 27.9952C153.691 27.9246 153.605 27.8433 153.529 27.7558C153.453 27.6668 153.384 27.5717 153.326 27.4705Z" fill="url(#paint1_linear_392_3853)"/>
<path d="M163.211 31.4102C163.153 31.5115 163.084 31.6081 163.007 31.6956C162.93 31.7846 162.846 31.8643 162.753 31.9365C162.659 32.007 162.562 32.0699 162.456 32.1206C162.353 32.1727 162.243 32.2141 162.13 32.2448C162.017 32.2755 161.902 32.2939 161.786 32.3016C161.67 32.3093 161.554 32.3062 161.438 32.2908C161.322 32.2755 161.209 32.2494 161.098 32.2111C160.988 32.1727 160.881 32.1252 160.78 32.0653L153.976 28.1102C153.876 28.0519 153.781 27.9844 153.694 27.9062C153.605 27.8279 153.526 27.7436 153.456 27.65C153.384 27.5564 153.323 27.4567 153.271 27.3523C153.219 27.2465 153.178 27.1376 153.149 27.0225C153.118 26.909 153.098 26.7939 153.091 26.6773C153.083 26.5592 153.088 26.4426 153.103 26.326C153.118 26.2094 153.144 26.0959 153.182 25.9839C153.219 25.8719 153.268 25.766 153.326 25.6648C153.384 25.562 153.453 25.4668 153.529 25.3794C153.605 25.2904 153.691 25.2106 153.784 25.1385C153.876 25.0664 153.975 25.0051 154.08 24.9529C154.184 24.9007 154.294 24.8608 154.405 24.8302C154.518 24.7995 154.633 24.7795 154.75 24.7719C154.866 24.7642 154.982 24.7688 155.098 24.7841C155.214 24.7995 155.327 24.8256 155.439 24.8639C155.549 24.9007 155.654 24.9498 155.756 25.0081L162.559 28.9632C162.661 29.0231 162.756 29.0906 162.843 29.1688C162.931 29.2455 163.011 29.3314 163.081 29.425C163.153 29.5186 163.214 29.6168 163.266 29.7226C163.317 29.8285 163.357 29.9374 163.388 30.051C163.418 30.1645 163.436 30.2811 163.444 30.3977C163.452 30.5158 163.449 30.6324 163.433 30.749C163.418 30.8656 163.392 30.9791 163.354 31.0911C163.317 31.2016 163.269 31.309 163.211 31.4102Z" fill="url(#paint2_linear_392_3853)"/>
<path d="M209.222 36.3134C209.104 36.3134 208.99 36.3012 208.875 36.2782C208.761 36.2551 208.649 36.2214 208.541 36.1769C208.432 36.1324 208.33 36.0772 208.234 36.0112C208.136 35.9468 208.046 35.8716 207.964 35.7888C207.881 35.7059 207.808 35.6154 207.742 35.5172C207.678 35.419 207.623 35.3162 207.579 35.2073C207.533 35.0984 207.5 34.9864 207.477 34.8713C207.454 34.7563 207.443 34.6397 207.443 34.5215V26.6113C207.443 26.4947 207.454 26.3781 207.477 26.2631C207.5 26.1465 207.533 26.0345 207.579 25.9271C207.623 25.8182 207.678 25.7139 207.742 25.6172C207.808 25.519 207.881 25.4285 207.964 25.3456C208.046 25.2628 208.136 25.1876 208.234 25.1232C208.33 25.0572 208.432 25.002 208.541 24.9575C208.649 24.9115 208.761 24.8777 208.875 24.8547C208.99 24.8317 209.104 24.821 209.222 24.821C209.339 24.821 209.454 24.8317 209.568 24.8547C209.683 24.8777 209.794 24.9115 209.902 24.9575C210.011 25.002 210.113 25.0572 210.209 25.1232C210.307 25.1876 210.397 25.2628 210.479 25.3456C210.562 25.4285 210.635 25.519 210.701 25.6172C210.765 25.7139 210.82 25.8182 210.864 25.9271C210.91 26.0345 210.944 26.1465 210.966 26.2631C210.989 26.3781 211 26.4947 211 26.6113V34.5215C211 34.6397 210.989 34.7563 210.966 34.8713C210.944 34.9864 210.91 35.0984 210.864 35.2073C210.82 35.3162 210.765 35.419 210.701 35.5172C210.635 35.6154 210.562 35.7059 210.479 35.7888C210.397 35.8716 210.307 35.9468 210.209 36.0112C210.113 36.0772 210.011 36.1324 209.902 36.1769C209.794 36.2214 209.683 36.2551 209.568 36.2782C209.454 36.3012 209.339 36.3134 209.222 36.3134Z" fill="url(#paint3_linear_392_3853)"/>
<path d="M200.841 21.7235C200.899 21.6222 200.966 21.5271 201.044 21.4381C201.12 21.3507 201.205 21.2694 201.299 21.1988C201.39 21.1267 201.489 21.0653 201.595 21.0131C201.699 20.961 201.807 20.9196 201.92 20.8889C202.033 20.8582 202.147 20.8398 202.265 20.8321C202.381 20.8244 202.497 20.829 202.613 20.8444C202.729 20.8597 202.842 20.8858 202.952 20.9242C203.063 20.961 203.169 21.0101 203.271 21.0684L210.073 25.0235C210.176 25.0818 210.269 25.1508 210.357 25.2275C210.444 25.3058 210.525 25.3917 210.595 25.4837C210.667 25.5773 210.728 25.677 210.78 25.7829C210.832 25.8872 210.872 25.9977 210.902 26.1112C210.933 26.2247 210.951 26.3398 210.959 26.4579C210.966 26.5745 210.963 26.6911 210.948 26.8077C210.933 26.9243 210.907 27.0394 210.869 27.1498C210.831 27.2618 210.783 27.3677 210.725 27.4705C210.667 27.5717 210.599 27.6668 210.522 27.7558C210.444 27.8433 210.36 27.9246 210.267 27.9952C210.174 28.0673 210.076 28.1286 209.971 28.1808C209.866 28.233 209.757 28.2744 209.644 28.3051C209.531 28.3357 209.417 28.3542 209.301 28.3618C209.185 28.3695 209.067 28.3664 208.953 28.3496C208.837 28.3342 208.724 28.3081 208.612 28.2713C208.503 28.233 208.396 28.1839 208.295 28.1256L201.491 24.1705C201.39 24.1122 201.296 24.0431 201.209 23.9664C201.12 23.8882 201.041 23.8023 200.97 23.7102C200.899 23.6166 200.838 23.5169 200.786 23.4111C200.734 23.3067 200.693 23.1963 200.662 23.0827C200.633 22.9692 200.613 22.8541 200.606 22.736C200.598 22.6194 200.603 22.5028 200.618 22.3862C200.633 22.2696 200.659 22.1546 200.697 22.0441C200.734 21.9321 200.783 21.8263 200.841 21.7235Z" fill="url(#paint4_linear_392_3853)"/>
<path d="M210.725 25.6648C210.783 25.766 210.832 25.8734 210.869 25.9839C210.907 26.0959 210.933 26.2094 210.948 26.326C210.963 26.4426 210.966 26.5592 210.959 26.6773C210.951 26.7939 210.933 26.909 210.902 27.024C210.872 27.1376 210.832 27.2465 210.78 27.3523C210.728 27.4567 210.667 27.5564 210.595 27.65C210.525 27.7436 210.446 27.8295 210.357 27.9062C210.27 27.9844 210.176 28.0519 210.073 28.1102L203.271 32.0653C203.169 32.1252 203.063 32.1727 202.953 32.2111C202.842 32.2494 202.729 32.2755 202.613 32.2908C202.497 32.3062 202.381 32.3093 202.265 32.3016C202.147 32.2939 202.033 32.2755 201.92 32.2448C201.808 32.2141 201.699 32.1727 201.595 32.1206C201.489 32.0699 201.39 32.007 201.299 31.9365C201.205 31.8643 201.12 31.7846 201.044 31.6956C200.967 31.6081 200.899 31.513 200.841 31.4102C200.783 31.309 200.734 31.2016 200.697 31.0911C200.659 30.9791 200.633 30.8656 200.618 30.749C200.603 30.6324 200.598 30.5158 200.606 30.3977C200.613 30.2811 200.633 30.1645 200.664 30.051C200.693 29.9374 200.734 29.8285 200.786 29.7226C200.838 29.6168 200.899 29.5186 200.97 29.425C201.041 29.3314 201.12 29.2455 201.209 29.1688C201.296 29.0906 201.39 29.0231 201.491 28.9632L208.295 25.0081C208.396 24.9498 208.503 24.9023 208.612 24.8639C208.724 24.8256 208.837 24.7995 208.953 24.7841C209.069 24.7688 209.185 24.7642 209.301 24.7719C209.417 24.7795 209.531 24.7995 209.644 24.8302C209.757 24.8608 209.867 24.9007 209.971 24.9529C210.076 25.0051 210.174 25.068 210.267 25.1385C210.36 25.2106 210.444 25.2904 210.522 25.3794C210.599 25.4668 210.667 25.562 210.725 25.6648Z" fill="url(#paint5_linear_392_3853)"/>
<path d="M154.83 59.7832C154.712 59.7832 154.596 59.7725 154.482 59.7495C154.367 59.7264 154.256 59.6927 154.149 59.6467C154.04 59.6022 153.938 59.547 153.84 59.481C153.744 59.4165 153.654 59.3414 153.572 59.2585C153.489 59.1757 153.415 59.0852 153.35 58.987C153.285 58.8903 153.23 58.786 153.186 58.6771C153.141 58.5697 153.108 58.4577 153.085 58.3411C153.062 58.226 153.051 58.1094 153.051 57.9928V50.0826C153.051 49.9645 153.062 49.8479 153.085 49.7329C153.108 49.6178 153.141 49.5058 153.186 49.3969C153.23 49.2879 153.285 49.1852 153.35 49.087C153.415 48.9888 153.489 48.8983 153.572 48.8154C153.654 48.7326 153.744 48.6574 153.84 48.593C153.938 48.527 154.04 48.4718 154.149 48.4273C154.256 48.3828 154.367 48.349 154.482 48.326C154.596 48.303 154.712 48.2907 154.83 48.2907C154.946 48.2907 155.062 48.303 155.176 48.326C155.291 48.349 155.402 48.3828 155.51 48.4273C155.617 48.4718 155.72 48.527 155.817 48.593C155.915 48.6574 156.005 48.7326 156.088 48.8154C156.17 48.8983 156.243 48.9888 156.309 49.087C156.373 49.1852 156.428 49.2879 156.472 49.3969C156.517 49.5058 156.552 49.6178 156.575 49.7329C156.596 49.8479 156.608 49.9645 156.608 50.0826V57.9928C156.608 58.1094 156.596 58.226 156.575 58.3411C156.552 58.4577 156.517 58.5697 156.472 58.6771C156.428 58.786 156.373 58.8903 156.309 58.987C156.243 59.0852 156.17 59.1757 156.088 59.2585C156.005 59.3414 155.915 59.4165 155.817 59.481C155.72 59.547 155.617 59.6022 155.51 59.6467C155.402 59.6927 155.291 59.7264 155.176 59.7495C155.062 59.7725 154.946 59.7832 154.83 59.7832Z" fill="url(#paint6_linear_392_3853)"/>
<path d="M163.211 62.8807C163.153 62.982 163.084 63.0771 163.007 63.1661C162.93 63.2535 162.846 63.3348 162.753 63.4054C162.659 63.4775 162.562 63.5389 162.456 63.591C162.351 63.6432 162.243 63.6846 162.13 63.7153C162.017 63.746 161.902 63.7644 161.786 63.7721C161.67 63.7797 161.554 63.7767 161.438 63.7613C161.322 63.7445 161.209 63.7184 161.098 63.6816C160.988 63.6432 160.881 63.5941 160.78 63.5358L153.976 59.5807C153.876 59.5224 153.781 59.4534 153.694 59.3767C153.605 59.2984 153.526 59.2125 153.456 59.1205C153.384 59.0269 153.323 58.9272 153.271 58.8213C153.219 58.717 153.178 58.6065 153.149 58.493C153.118 58.3795 153.098 58.2644 153.091 58.1463C153.083 58.0297 153.088 57.9131 153.103 57.7965C153.118 57.6799 153.144 57.5648 153.182 57.4543C153.219 57.3424 153.268 57.2365 153.326 57.1337C153.384 57.0324 153.453 56.9373 153.529 56.8483C153.605 56.7609 153.691 56.6796 153.784 56.609C153.876 56.5369 153.975 56.4755 154.08 56.4234C154.184 56.3712 154.294 56.3298 154.405 56.2991C154.518 56.2684 154.633 56.25 154.75 56.2423C154.866 56.2347 154.982 56.2393 155.098 56.2546C155.214 56.27 155.327 56.296 155.439 56.3344C155.549 56.3712 155.654 56.4203 155.756 56.4786L162.559 60.4337C162.661 60.492 162.754 60.561 162.843 60.6378C162.931 60.716 163.011 60.8019 163.081 60.894C163.153 60.9875 163.214 61.0873 163.266 61.1931C163.317 61.2974 163.357 61.4079 163.388 61.5214C163.418 61.635 163.436 61.75 163.444 61.8682C163.452 61.9848 163.449 62.1014 163.433 62.2179C163.418 62.3345 163.392 62.4496 163.354 62.5601C163.317 62.6721 163.269 62.7779 163.211 62.8807Z" fill="url(#paint7_linear_392_3853)"/>
<path d="M209.222 59.7832C209.104 59.7832 208.99 59.7725 208.875 59.7495C208.761 59.7264 208.649 59.6927 208.541 59.6467C208.432 59.6022 208.33 59.547 208.234 59.481C208.136 59.4165 208.046 59.3414 207.964 59.2585C207.881 59.1757 207.808 59.0852 207.742 58.987C207.678 58.8903 207.623 58.786 207.579 58.6771C207.533 58.5697 207.5 58.4577 207.477 58.3411C207.454 58.226 207.443 58.1094 207.443 57.9928V50.0826C207.443 49.9645 207.454 49.8479 207.477 49.7329C207.5 49.6178 207.533 49.5058 207.579 49.3969C207.623 49.2879 207.678 49.1852 207.742 49.087C207.808 48.9888 207.881 48.8983 207.964 48.8154C208.046 48.7326 208.136 48.6574 208.234 48.593C208.33 48.527 208.432 48.4718 208.541 48.4273C208.649 48.3828 208.761 48.349 208.875 48.326C208.99 48.303 209.104 48.2907 209.222 48.2907C209.339 48.2907 209.454 48.303 209.568 48.326C209.683 48.349 209.794 48.3828 209.902 48.4273C210.011 48.4718 210.113 48.527 210.209 48.593C210.307 48.6574 210.397 48.7326 210.479 48.8154C210.562 48.8983 210.635 48.9888 210.701 49.087C210.765 49.1852 210.82 49.2879 210.864 49.3969C210.91 49.5058 210.944 49.6178 210.966 49.7329C210.989 49.8479 211 49.9645 211 50.0826V57.9928C211 58.1094 210.989 58.226 210.966 58.3411C210.944 58.4577 210.91 58.5697 210.864 58.6771C210.82 58.786 210.765 58.8903 210.701 58.987C210.635 59.0852 210.562 59.1757 210.479 59.2585C210.397 59.3414 210.307 59.4165 210.209 59.481C210.113 59.547 210.011 59.6022 209.902 59.6467C209.794 59.6927 209.683 59.7264 209.568 59.7495C209.454 59.7725 209.339 59.7832 209.222 59.7832Z" fill="url(#paint8_linear_392_3853)"/>
<path d="M210.725 57.1337C210.783 57.2365 210.831 57.3424 210.869 57.4543C210.907 57.5648 210.933 57.6799 210.948 57.7965C210.963 57.9131 210.966 58.0297 210.959 58.1463C210.951 58.2644 210.933 58.3795 210.902 58.493C210.872 58.6065 210.832 58.717 210.78 58.8213C210.728 58.9272 210.667 59.0269 210.595 59.1205C210.525 59.214 210.444 59.2984 210.357 59.3767C210.269 59.4534 210.176 59.5224 210.073 59.5807L203.271 63.5358C203.169 63.5941 203.063 63.6432 202.952 63.6816C202.842 63.7184 202.729 63.746 202.613 63.7613C202.497 63.7767 202.381 63.7797 202.265 63.7721C202.147 63.7644 202.033 63.746 201.92 63.7153C201.807 63.6846 201.699 63.6432 201.595 63.591C201.489 63.5389 201.39 63.4775 201.299 63.4054C201.205 63.3348 201.12 63.2535 201.044 63.1661C200.966 63.0771 200.899 62.982 200.841 62.8807C200.783 62.7779 200.734 62.6721 200.697 62.5601C200.659 62.4496 200.633 62.3345 200.618 62.2179C200.603 62.1014 200.598 61.9848 200.606 61.8682C200.613 61.75 200.633 61.635 200.662 61.5214C200.693 61.4079 200.734 61.299 200.786 61.1931C200.838 61.0873 200.899 60.9875 200.97 60.894C201.041 60.8019 201.12 60.716 201.209 60.6378C201.296 60.561 201.39 60.492 201.491 60.4337L208.295 56.4786C208.396 56.4203 208.503 56.3712 208.612 56.3344C208.724 56.296 208.837 56.27 208.953 56.2546C209.067 56.2393 209.185 56.2347 209.301 56.2423C209.417 56.25 209.531 56.27 209.644 56.2991C209.757 56.3298 209.866 56.3712 209.971 56.4234C210.076 56.4755 210.174 56.5369 210.267 56.609C210.36 56.6811 210.444 56.7609 210.522 56.8483C210.599 56.9373 210.667 57.0324 210.725 57.1337Z" fill="url(#paint9_linear_392_3853)"/>
<path d="M190.388 15.642C190.33 15.7433 190.261 15.8384 190.185 15.9274C190.107 16.0148 190.023 16.0961 189.93 16.1667C189.837 16.2388 189.739 16.3002 189.634 16.3523C189.53 16.4045 189.42 16.4459 189.307 16.4766C189.194 16.5073 189.08 16.5257 188.964 16.5334C188.848 16.541 188.732 16.5364 188.616 16.5211C188.5 16.5057 188.387 16.4797 188.275 16.4428C188.165 16.4045 188.059 16.3554 187.958 16.2971L181.154 12.342C181.053 12.2837 180.959 12.2147 180.872 12.138C180.783 12.0597 180.704 11.9738 180.633 11.8818C180.562 11.7882 180.501 11.6884 180.449 11.5826C180.397 11.4783 180.356 11.3678 180.327 11.2543C180.296 11.1407 180.276 11.0257 180.269 10.9076C180.261 10.791 180.265 10.6744 180.281 10.5578C180.296 10.4412 180.322 10.3261 180.36 10.2156C180.397 10.1036 180.446 9.99779 180.504 9.895C180.562 9.79374 180.63 9.69862 180.707 9.60964C180.783 9.52219 180.868 9.44088 180.962 9.37031C181.053 9.29821 181.152 9.23684 181.258 9.18468C181.362 9.13251 181.471 9.09109 181.583 9.06041C181.696 9.02973 181.81 9.01131 181.928 9.00364C182.044 8.99597 182.16 9.00058 182.276 9.01592C182.392 9.03126 182.505 9.05734 182.616 9.09416C182.726 9.13251 182.832 9.18161 182.934 9.23991L189.736 13.195C189.839 13.2533 189.933 13.3223 190.02 13.399C190.109 13.4773 190.188 13.5632 190.258 13.6553C190.33 13.7488 190.391 13.8486 190.443 13.9544C190.495 14.0587 190.535 14.1692 190.565 14.2827C190.596 14.3963 190.614 14.5113 190.622 14.6295C190.629 14.7461 190.626 14.8626 190.611 14.9792C190.596 15.0958 190.57 15.2109 190.532 15.3214C190.495 15.4334 190.446 15.5392 190.388 15.642Z" fill="url(#paint10_linear_392_3853)"/>
<path d="M183.629 9.895C183.687 9.99779 183.735 10.1036 183.772 10.2156C183.81 10.3261 183.836 10.4412 183.851 10.5578C183.867 10.6744 183.871 10.791 183.864 10.9076C183.856 11.0257 183.836 11.1407 183.807 11.2543C183.777 11.3678 183.735 11.4783 183.683 11.5826C183.632 11.6884 183.57 11.7882 183.5 11.8818C183.429 11.9738 183.349 12.0597 183.261 12.138C183.174 12.2147 183.079 12.2837 182.978 12.342L176.174 16.2971C176.073 16.3554 175.967 16.4045 175.857 16.4428C175.745 16.4797 175.632 16.5057 175.516 16.5211C175.402 16.5364 175.286 16.541 175.168 16.5334C175.052 16.5257 174.938 16.5073 174.825 16.4766C174.712 16.4459 174.603 16.4045 174.498 16.3523C174.393 16.3002 174.295 16.2388 174.202 16.1667C174.109 16.0961 174.025 16.0148 173.947 15.9274C173.871 15.8384 173.803 15.7433 173.744 15.642C173.686 15.5392 173.639 15.4334 173.6 15.3214C173.562 15.2109 173.536 15.0958 173.521 14.9792C173.506 14.8626 173.503 14.7461 173.51 14.6295C173.518 14.5113 173.536 14.3963 173.567 14.2827C173.597 14.1692 173.639 14.0587 173.689 13.9544C173.741 13.8486 173.802 13.7488 173.874 13.6553C173.945 13.5632 174.025 13.4773 174.112 13.399C174.2 13.3223 174.295 13.2533 174.396 13.195L181.2 9.23991C181.3 9.18161 181.406 9.13251 181.517 9.09416C181.627 9.05734 181.74 9.03126 181.856 9.01592C181.972 9.00058 182.088 8.99597 182.204 9.00364C182.322 9.01131 182.436 9.02973 182.549 9.06041C182.662 9.09109 182.771 9.13251 182.874 9.18468C182.98 9.23684 183.079 9.29821 183.171 9.37031C183.264 9.44088 183.349 9.52219 183.425 9.60964C183.503 9.69862 183.57 9.79374 183.629 9.895Z" fill="url(#paint11_linear_392_3853)"/>
<path d="M180.504 75.1035C180.446 75.0022 180.397 74.8964 180.36 74.7844C180.322 74.6724 180.296 74.5588 180.281 74.4422C180.265 74.3256 180.261 74.209 180.269 74.0909C180.276 73.9743 180.296 73.8593 180.327 73.7457C180.356 73.6322 180.397 73.5217 180.449 73.4159C180.501 73.3116 180.562 73.2118 180.633 73.1182C180.704 73.0247 180.783 72.9403 180.872 72.862C180.959 72.7853 181.053 72.7163 181.154 72.658L187.958 68.7029C188.059 68.6431 188.165 68.5955 188.275 68.5572C188.387 68.5203 188.5 68.4927 188.616 68.4774C188.732 68.462 188.848 68.459 188.964 68.4666C189.08 68.4743 189.194 68.4927 189.307 68.5234C189.42 68.5541 189.529 68.5955 189.634 68.6477C189.739 68.6998 189.837 68.7612 189.93 68.8333C190.023 68.9039 190.107 68.9837 190.185 69.0726C190.261 69.1616 190.33 69.2567 190.388 69.358C190.446 69.4592 190.495 69.5666 190.532 69.6771C190.57 69.7891 190.596 69.9026 190.611 70.0192C190.626 70.1358 190.629 70.2539 190.622 70.3705C190.614 70.4887 190.596 70.6037 190.565 70.7173C190.535 70.8308 190.495 70.9397 190.443 71.0456C190.391 71.1514 190.33 71.2512 190.258 71.3432C190.188 71.4368 190.109 71.5227 190.02 71.5994C189.932 71.6777 189.839 71.7452 189.736 71.805L182.934 75.7601C182.832 75.8184 182.726 75.8675 182.616 75.9043C182.505 75.9427 182.392 75.9687 182.276 75.9841C182.16 75.9994 182.044 76.004 181.928 75.9964C181.81 75.9887 181.696 75.9687 181.583 75.938C181.471 75.9089 181.362 75.8675 181.258 75.8153C181.152 75.7632 181.053 75.7018 180.962 75.6297C180.868 75.5576 180.783 75.4778 180.707 75.3904C180.63 75.3014 180.562 75.2063 180.504 75.1035Z" fill="url(#paint12_linear_392_3853)"/>
<path d="M173.744 69.358C173.802 69.2567 173.871 69.1616 173.947 69.0726C174.025 68.9837 174.109 68.9039 174.202 68.8333C174.295 68.7612 174.393 68.6998 174.498 68.6477C174.603 68.5955 174.712 68.5541 174.825 68.5234C174.938 68.4927 175.052 68.4743 175.168 68.4666C175.284 68.459 175.402 68.462 175.516 68.4774C175.632 68.4927 175.745 68.5203 175.857 68.5572C175.967 68.5955 176.073 68.6431 176.174 68.7029L182.978 72.658C183.079 72.7163 183.174 72.7853 183.261 72.862C183.349 72.9403 183.429 73.0247 183.499 73.1182C183.57 73.2118 183.632 73.3116 183.683 73.4159C183.735 73.5217 183.777 73.6322 183.807 73.7457C183.836 73.8593 183.856 73.9743 183.864 74.0909C183.871 74.209 183.867 74.3256 183.851 74.4422C183.836 74.5588 183.81 74.6724 183.772 74.7844C183.735 74.8964 183.687 75.0022 183.629 75.1035C183.57 75.2063 183.503 75.3014 183.425 75.3904C183.349 75.4778 183.264 75.5576 183.171 75.6297C183.079 75.7018 182.98 75.7632 182.874 75.8153C182.771 75.8675 182.662 75.9089 182.549 75.938C182.436 75.9687 182.322 75.9887 182.204 75.9964C182.088 76.004 181.972 75.9994 181.856 75.9841C181.74 75.9687 181.627 75.9427 181.517 75.9043C181.406 75.8675 181.3 75.8184 181.198 75.7601L174.396 71.805C174.294 71.7452 174.2 71.6777 174.112 71.5994C174.025 71.5227 173.944 71.4368 173.874 71.3432C173.802 71.2512 173.741 71.1514 173.689 71.0456C173.637 70.9397 173.597 70.8308 173.567 70.7173C173.536 70.6037 173.518 70.4887 173.51 70.3705C173.503 70.2539 173.506 70.1358 173.521 70.0192C173.536 69.9026 173.562 69.7891 173.6 69.6771C173.639 69.5666 173.686 69.4592 173.744 69.358Z" fill="url(#paint13_linear_392_3853)"/>
<path d="M182.125 75.9473C182.009 75.9473 181.893 75.9365 181.778 75.9135C181.664 75.8905 181.552 75.8567 181.444 75.8107C181.337 75.7662 181.235 75.711 181.137 75.645C181.039 75.5806 180.951 75.5054 180.867 75.4226C180.784 75.3397 180.711 75.2492 180.647 75.151C180.581 75.0544 180.526 74.9501 180.482 74.8427C180.438 74.7337 180.404 74.6217 180.381 74.5067C180.359 74.3901 180.346 74.2735 180.346 74.1569V66.2467C180.346 66.1286 180.359 66.012 180.381 65.8969C180.404 65.7818 180.438 65.6698 180.482 65.5609C180.526 65.452 180.581 65.3492 180.647 65.251C180.711 65.1528 180.784 65.0623 180.867 64.9795C180.951 64.8966 181.039 64.823 181.137 64.757C181.235 64.691 181.337 64.6358 181.444 64.5913C181.552 64.5468 181.664 64.5131 181.778 64.4901C181.893 64.467 182.009 64.4548 182.125 64.4548C182.242 64.4548 182.358 64.467 182.473 64.4901C182.587 64.5131 182.699 64.5468 182.806 64.5913C182.914 64.6358 183.016 64.691 183.114 64.757C183.21 64.823 183.3 64.8966 183.383 64.9795C183.465 65.0623 183.54 65.1528 183.604 65.251C183.67 65.3492 183.725 65.452 183.769 65.5609C183.813 65.6698 183.847 65.7818 183.87 65.8969C183.893 66.012 183.905 66.1286 183.905 66.2467V74.1569C183.905 74.2735 183.893 74.3901 183.87 74.5067C183.847 74.6217 183.813 74.7337 183.769 74.8427C183.725 74.9501 183.67 75.0544 183.604 75.151C183.54 75.2492 183.465 75.3397 183.383 75.4226C183.3 75.5054 183.21 75.5806 183.114 75.645C183.016 75.711 182.914 75.7662 182.806 75.8107C182.699 75.8567 182.587 75.8905 182.473 75.9135C182.358 75.9365 182.242 75.9473 182.125 75.9473Z" fill="url(#paint14_linear_392_3853)"/>
<path d="M156.517 33.4691C156.599 29.0737 159.828 31.4532 159.828 31.4532L156.371 28.6809L156.517 33.4691Z" fill="url(#paint15_linear_392_3853)"/>
<path d="M156.457 33.4706L156.309 28.5536L159.864 31.4056L159.793 31.5007C159.622 31.3811 159.443 31.2752 159.257 31.1832C158.896 30.9929 158.513 30.8886 158.106 30.8702C157.903 30.8625 157.71 30.9055 157.529 30.996C157.347 31.0881 157.197 31.2169 157.08 31.3826C156.764 31.8137 156.594 32.5164 156.576 33.4691L156.457 33.4706ZM156.434 28.8083L156.546 32.4703C156.604 32.05 156.749 31.6649 156.985 31.312C157.113 31.131 157.277 30.9899 157.475 30.8901C157.674 30.7904 157.884 30.7444 158.106 30.7505C158.489 30.7643 158.852 30.8564 159.196 31.0236L156.434 28.8083Z" fill="url(#paint16_linear_392_3853)"/>
<path d="M207.59 33.3494C207.507 28.954 204.278 31.3335 204.278 31.3335L207.735 28.5613L207.59 33.3494Z" fill="url(#paint17_linear_392_3853)"/>
<path d="M207.649 33.351H207.53C207.512 32.3967 207.342 31.6956 207.026 31.2645C206.909 31.0973 206.759 30.9684 206.578 30.8779C206.396 30.7874 206.204 30.7444 206 30.7505C205.179 30.7505 204.323 31.3765 204.314 31.3826L204.242 31.2875L207.797 28.4355L207.649 33.351ZM206 30.6309C206.222 30.6247 206.432 30.6708 206.631 30.7705C206.831 30.8702 206.994 31.0113 207.122 31.1939C207.358 31.5452 207.504 31.9318 207.561 32.3522L207.672 28.6886L204.91 30.904C205.255 30.7367 205.619 30.6447 206 30.6309Z" fill="url(#paint18_linear_392_3853)"/>
<path d="M180.552 67.4878C180.47 71.8832 177.243 69.5037 177.243 69.5037L180.697 72.2744L180.552 67.4878Z" fill="url(#paint19_linear_392_3853)"/>
<path d="M180.612 67.4848L180.762 72.4018L177.205 69.5498L177.276 69.4562C177.447 69.5758 177.626 69.6802 177.812 69.7722C178.173 69.9624 178.557 70.0683 178.963 70.0867C179.166 70.0929 179.359 70.0514 179.54 69.9594C179.722 69.8689 179.872 69.74 179.989 69.5728C180.305 69.1432 180.476 68.4405 180.493 67.4863L180.612 67.4848ZM180.635 72.1486L180.523 68.485C180.467 68.9054 180.32 69.292 180.085 69.6433C179.957 69.8259 179.794 69.9671 179.594 70.0668C179.395 70.1665 179.185 70.2125 178.963 70.2064C178.582 70.191 178.218 70.1005 177.873 69.9333L180.635 72.1486Z" fill="url(#paint20_linear_392_3853)"/>
<path d="M183.79 67.4878C183.874 71.8832 187.101 69.5037 187.101 69.5037L183.645 72.2744L183.79 67.4878Z" fill="url(#paint21_linear_392_3853)"/>
<path d="M183.731 67.4848L183.85 67.4863C183.868 68.439 184.038 69.1417 184.354 69.5728C184.471 69.74 184.621 69.8673 184.802 69.9594C184.984 70.0499 185.176 70.0929 185.379 70.0867C186.201 70.0867 187.057 69.4608 187.066 69.4546L187.138 69.5498L183.583 72.4018L183.731 67.4848ZM185.379 70.2064C185.158 70.2125 184.947 70.1665 184.749 70.0668C184.551 69.9671 184.387 69.8259 184.257 69.6433C184.022 69.292 183.877 68.9054 183.819 68.485L183.708 72.1486L186.469 69.9333C186.126 70.1005 185.763 70.191 185.379 70.2064Z" fill="url(#paint22_linear_392_3853)"/>
<path d="M161.745 24.5954C157.857 26.5975 161.397 28.4754 161.397 28.4754L157.406 26.5638L161.745 24.5954Z" fill="url(#paint23_linear_392_3853)"/>
<path d="M161.721 24.5417L161.773 24.6491C160.928 25.0833 160.376 25.5451 160.13 26.0191C160.032 26.1986 159.983 26.3904 159.982 26.596C159.98 26.8 160.028 26.9918 160.122 27.1728C160.481 27.9154 161.415 28.4171 161.424 28.4232L161.371 28.5291L157.268 26.5607L161.721 24.5417ZM160.014 27.225C159.912 27.0271 159.86 26.8169 159.863 26.5929C159.864 26.3705 159.918 26.1603 160.025 25.9639C160.235 25.5972 160.516 25.295 160.866 25.0588L157.548 26.5638L160.736 28.0933C160.435 27.854 160.196 27.5656 160.015 27.2265L160.014 27.225Z" fill="url(#paint24_linear_392_3853)"/>
<path d="M202.302 24.5387C206.19 26.5392 202.651 28.4186 202.651 28.4186L206.64 26.5039L202.302 24.5387Z" fill="url(#paint25_linear_392_3853)"/>
<path d="M202.326 24.4834L206.781 26.5024L202.677 28.4723L202.624 28.3664C202.805 28.2636 202.978 28.1486 203.141 28.0197C203.469 27.7773 203.73 27.4751 203.926 27.1161C204.021 26.935 204.068 26.7417 204.066 26.5377C204.065 26.3337 204.014 26.1419 203.918 25.9624C203.671 25.4868 203.118 25.025 202.276 24.5924L202.326 24.4834ZM206.498 26.5055L203.181 25.002C203.53 25.2383 203.811 25.539 204.022 25.9072C204.129 26.102 204.182 26.3122 204.185 26.5362C204.187 26.7602 204.137 26.9703 204.033 27.1682C203.853 27.5073 203.613 27.7973 203.312 28.035L206.498 26.5055Z" fill="url(#paint26_linear_392_3853)"/>
<path d="M181.383 52.8878H176.95V47.776H169.952V52.8878H165.629V42.4432C165.629 39.9731 166.308 38.0416 167.668 36.6501C169.027 35.2556 170.966 34.5575 173.482 34.5575C176.013 34.5575 177.964 35.2556 179.331 36.6501C180.699 38.0416 181.383 39.9731 181.383 42.4432V52.8878ZM176.95 43.9282V42.4432C176.95 39.9363 175.784 38.6814 173.451 38.6814C171.118 38.6814 169.952 39.9363 169.952 42.4432V43.9282H176.95Z" fill="url(#paint27_linear_392_3853)"/>
<path d="M199.376 52.8878H194.124L190.949 47.2543H189.062V52.8878H184.635V34.9134H191.883C194.158 34.9134 195.866 35.475 197.006 36.5949C198.145 37.7118 198.716 39.203 198.716 41.0685C198.716 42.3695 198.437 43.5033 197.88 44.4683C197.325 45.4302 196.493 46.1482 195.382 46.6222V46.6775L199.376 52.8878ZM189.062 43.1305H191.938C193.468 43.1305 194.234 42.4432 194.234 41.0685C194.234 39.7154 193.468 39.0373 191.938 39.0373H189.062V43.1305Z" fill="url(#paint28_linear_392_3853)"/>
<path d="M32.6375 43.1717V28.4498H38.3713V43.1717C38.3713 46.1587 37.6096 48.4047 36.0876 49.9098C34.5686 51.4163 32.5703 52.1681 30.0912 52.1681C27.2121 52.1681 25.0901 51.1156 23.7223 49.0077H23.649C22.2812 51.1156 20.1577 52.1681 17.2801 52.1681C14.804 52.1681 12.8058 51.4163 11.2838 49.9098C9.76024 48.4047 9 46.1587 9 43.1717V28.4498H14.7338V43.1717C14.7338 45.6141 15.7475 46.8353 17.7748 46.8353C19.8051 46.8353 20.8218 45.6141 20.8218 43.1717V28.4498H26.5556V43.1717C26.5556 45.6141 27.5693 46.8353 29.5966 46.8353C31.6239 46.8353 32.6375 45.6141 32.6375 43.1717Z" fill="url(#paint29_linear_392_3853)"/>
<path d="M59.9877 43.1042V51.7078H55.1087V48.9709H55.0354C54.6111 49.9404 53.921 50.7167 52.9654 51.2967C52.0082 51.8766 50.8923 52.1681 49.6192 52.1681C48.6544 52.1681 47.6926 51.9855 46.737 51.6219C45.7798 51.2537 44.8822 50.7137 44.0441 50.0018C43.2091 49.29 42.5313 48.3188 42.0107 47.0869C41.4932 45.8519 41.2352 44.465 41.2352 42.9262C41.2352 40.2476 42.1145 38.0353 43.8731 36.2924C45.6317 34.5496 47.8911 33.6782 50.6511 33.6782C53.431 33.6782 55.6827 34.5312 57.4047 36.2372C59.1267 37.9432 59.9877 40.2322 59.9877 43.1042ZM47.7262 46.0007C48.4712 46.7954 49.4436 47.1912 50.645 47.1912C51.8495 47.1912 52.8219 46.7954 53.5638 46.0007C54.3088 45.2075 54.6813 44.1827 54.6813 42.9262C54.6813 41.6713 54.3088 40.6464 53.5638 39.8517C52.8219 39.054 51.8495 38.6551 50.645 38.6551C49.4436 38.6551 48.4712 39.054 47.7262 39.8517C46.9843 40.6464 46.6149 41.6713 46.6149 42.9262C46.6149 44.1827 46.9843 45.2075 47.7262 46.0007Z" fill="url(#paint30_linear_392_3853)"/>
<path d="M80.7248 51.7078H75.4184V42.601C75.4184 39.9714 74.3086 38.6551 72.0905 38.6551C69.8708 38.6551 68.7625 39.9714 68.7625 42.601V51.7078H63.4562V42.601C63.4562 39.7091 64.2332 37.4998 65.7888 35.9733C67.3474 34.4438 69.448 33.6782 72.0905 33.6782C74.7559 33.6782 76.861 34.4438 78.4044 35.9733C79.9508 37.4998 80.7248 39.7091 80.7248 42.601V51.7078Z" fill="url(#paint31_linear_392_3853)"/>
<path d="M102.234 26.4615V42.7483C102.234 45.6172 101.373 47.9031 99.6515 49.6091C97.9295 51.3151 95.6778 52.1681 92.8979 52.1681C90.1379 52.1681 87.8785 51.2967 86.1199 49.5538C84.3613 47.811 83.482 45.6018 83.482 42.9262C83.482 41.3844 83.74 39.9975 84.2575 38.7655C84.7781 37.5305 85.4559 36.5594 86.2909 35.8506C87.129 35.1388 88.0266 34.5987 88.9838 34.2305C89.9394 33.8623 90.9012 33.6782 91.866 33.6782C94.1085 33.6782 95.774 34.4376 96.8609 35.9549H96.9281V26.4615H102.234ZM89.973 46.0007C90.718 46.7954 91.6904 47.1912 92.8918 47.1912C94.0963 47.1912 95.0687 46.7954 95.8106 46.0007C96.5556 45.2075 96.9281 44.1827 96.9281 42.9262C96.9281 41.6713 96.5556 40.6464 95.8106 39.8517C95.0687 39.054 94.0963 38.6551 92.8918 38.6551C91.6904 38.6551 90.718 39.054 89.973 39.8517C89.2311 40.6464 88.8617 41.6713 88.8617 42.9262C88.8617 44.1827 89.2311 45.2075 89.973 46.0007Z" fill="url(#paint32_linear_392_3853)"/>
<path d="M123.717 44.4174H110.515V44.4911C110.986 46.4349 112.286 47.406 114.411 47.406C116.035 47.406 117.142 46.9795 117.732 46.1234H123.216C122.649 47.9491 121.576 49.4127 119.998 50.5173C118.418 51.6188 116.555 52.1681 114.411 52.1681C111.65 52.1681 109.391 51.2967 107.633 49.5538C105.874 47.811 104.995 45.6018 104.995 42.9262C104.995 40.2476 105.874 38.0353 107.633 36.2924C109.391 34.5496 111.65 33.6782 114.411 33.6782C117.146 33.6782 119.381 34.5496 121.115 36.2924C122.849 38.0353 123.717 40.2476 123.717 42.9262V44.4174ZM118.264 40.9686C117.653 39.2841 116.368 38.4403 114.411 38.4403C112.452 38.4403 111.188 39.2841 110.619 40.9686V41.0423H118.264V40.9686Z" fill="url(#paint33_linear_392_3853)"/>
<path d="M142.184 41.8584H136.878V41.7173C136.878 39.6768 136.026 38.6551 134.325 38.6551C132.628 38.6551 131.779 39.6768 131.779 41.7173V51.7078H126.473V41.7173C126.473 39.0632 127.175 37.0595 128.579 35.7095C129.984 34.3563 131.898 33.6782 134.325 33.6782C136.756 33.6782 138.673 34.3594 140.077 35.7217C141.482 37.0841 142.184 39.1307 142.184 41.8584Z" fill="url(#paint34_linear_392_3853)"/>
<path d="M45.5633 61.7891V68.3309H43.017V61.7891C43.017 60.4606 43.3543 59.4618 44.0306 58.7944C44.7054 58.124 45.5954 57.788 46.6991 57.788C47.9768 57.788 48.9187 58.2575 49.5263 59.1933H49.5629C50.169 58.2575 51.1109 57.788 52.3901 57.788C53.4923 57.788 54.3823 58.124 55.0586 58.7944C55.7334 59.4618 56.0723 60.4606 56.0723 61.7891V68.3309H53.5259V61.7891C53.5259 60.7014 53.0741 60.1568 52.1703 60.1568C51.2696 60.1568 50.8208 60.7014 50.8208 61.7891V68.3309H48.2684V61.7891C48.2684 60.7014 47.8165 60.1568 46.9128 60.1568C46.0121 60.1568 45.5633 60.7014 45.5633 61.7891Z" fill="url(#paint35_linear_392_3853)"/>
<path d="M65.679 64.5077V68.3309H63.5052V67.1158H63.4746C63.2869 67.5454 62.98 67.889 62.5526 68.1468C62.1282 68.4045 61.6336 68.5334 61.0688 68.5334C60.6413 68.5334 60.2139 68.4536 59.7864 68.294C59.3621 68.1314 58.9636 67.8921 58.5896 67.576C58.2186 67.2569 57.9179 66.8243 57.6859 66.2751C57.4569 65.7274 57.3439 65.1122 57.3439 64.4279C57.3439 63.2374 57.7347 62.2555 58.5163 61.4823C59.2979 60.706 60.3009 60.3163 61.5267 60.3163C62.7633 60.3163 63.7647 60.6968 64.531 61.4578C65.2959 62.2156 65.679 63.2313 65.679 64.5077ZM60.2261 65.7964C60.5589 66.1493 60.9924 66.3242 61.5267 66.3242C62.0595 66.3242 62.4915 66.1493 62.8213 65.7964C63.1541 65.4405 63.322 64.9848 63.322 64.4279C63.322 63.868 63.1541 63.4123 62.8213 63.0594C62.4915 62.7081 62.0595 62.5317 61.5267 62.5317C60.9924 62.5317 60.5589 62.7081 60.2261 63.0594C59.8964 63.4123 59.7315 63.868 59.7315 64.4279C59.7315 64.9848 59.8964 65.4405 60.2261 65.7964Z" fill="url(#paint36_linear_392_3853)"/>
<path d="M67.2162 71.6692V64.5077C67.2162 63.2313 67.5978 62.2156 68.3642 61.4578C69.129 60.6968 70.1304 60.3163 71.3685 60.3163C72.5974 60.3163 73.6034 60.706 74.385 61.4823C75.1666 62.2555 75.5574 63.2374 75.5574 64.4279C75.5574 65.1122 75.4414 65.7274 75.2093 66.2751C74.9773 66.8243 74.6735 67.2569 74.2995 67.576C73.9285 67.8921 73.5316 68.1314 73.1088 68.294C72.6844 68.4536 72.2569 68.5334 71.8264 68.5334C70.8281 68.5334 70.0892 68.1989 69.6098 67.5269H69.5793V71.6692H67.2162ZM72.6691 63.0594C72.3394 62.7081 71.9058 62.5317 71.3685 62.5317C70.8342 62.5317 70.4037 62.7081 70.0739 63.0594C69.7442 63.4123 69.5793 63.868 69.5793 64.4279C69.5793 64.9848 69.7442 65.4405 70.0739 65.7964C70.4037 66.1493 70.8342 66.3242 71.3685 66.3242C71.9058 66.3242 72.3394 66.1493 72.6691 65.7964C72.9988 65.4405 73.1637 64.9848 73.1637 64.4279C73.1637 63.868 72.9988 63.4123 72.6691 63.0594Z" fill="url(#paint37_linear_392_3853)"/>
<path d="M83.5551 61.7891V68.3309H81.0087V61.7891C81.0087 60.4606 81.3461 59.4618 82.0224 58.7944C82.6971 58.124 83.5871 57.788 84.6908 57.788C85.9686 57.788 86.9105 58.2575 87.5181 59.1933H87.5547C88.1607 58.2575 89.1026 57.788 90.3819 57.788C91.4841 57.788 92.3741 58.124 93.0504 58.7944C93.7251 59.4618 94.064 60.4606 94.064 61.7891V68.3309H91.5177V61.7891C91.5177 60.7014 91.0658 60.1568 90.1621 60.1568C89.2614 60.1568 88.8126 60.7014 88.8126 61.7891V68.3309H86.2602V61.7891C86.2602 60.7014 85.8083 60.1568 84.9046 60.1568C84.0039 60.1568 83.5551 60.7014 83.5551 61.7891Z" fill="url(#paint38_linear_392_3853)"/>
<path d="M99.488 66.1953C99.9276 66.1953 100.283 66.048 100.557 65.7534C100.828 65.4589 100.966 65.0216 100.966 64.4402V60.5188H103.323V68.0608C103.323 69.3449 102.965 70.3007 102.254 70.9267C101.541 71.5557 100.613 71.8717 99.4696 71.8717C98.5048 71.8717 97.6835 71.6385 97.0088 71.1721C96.3325 70.7088 95.9005 70.0154 95.7143 69.0918H98.0713C98.2911 69.5735 98.7567 69.8159 99.4696 69.8159C99.9948 69.8159 100.375 69.6825 100.612 69.417C100.847 69.1547 100.966 68.7297 100.966 68.1406V67.4165H100.935C100.495 68.0793 99.8604 68.4106 99.03 68.4106C98.1049 68.4106 97.3095 68.0823 96.6424 67.4226C95.9784 66.7645 95.6471 65.7703 95.6471 64.4402V60.5188H98.0102V64.4402C98.0102 65.6108 98.5018 66.1953 99.488 66.1953Z" fill="url(#paint39_linear_392_3853)"/>
<path d="M119.854 64.5384V57.9905H122.401V64.5384C122.401 65.8639 122.062 66.8627 121.387 67.5331C120.711 68.2005 119.821 68.5334 118.718 68.5334C117.439 68.5334 116.497 68.0654 115.891 67.1281H115.855C115.247 68.0654 114.305 68.5334 113.027 68.5334C111.924 68.5334 111.034 68.2005 110.359 67.5331C109.683 66.8627 109.345 65.8639 109.345 64.5384V57.9905H111.892V64.5384C111.892 65.623 112.34 66.1646 113.241 66.1646C114.145 66.1646 114.597 65.623 114.597 64.5384V57.9905H117.149V64.5384C117.149 65.623 117.598 66.1646 118.499 66.1646C119.402 66.1646 119.854 65.623 119.854 64.5384Z" fill="url(#paint40_linear_392_3853)"/>
<path d="M132.007 64.5077V68.3309H129.833V67.1158H129.803C129.615 67.5454 129.308 67.889 128.881 68.1468C128.457 68.4045 127.962 68.5334 127.397 68.5334C126.97 68.5334 126.542 68.4536 126.115 68.294C125.69 68.1314 125.292 67.8921 124.918 67.576C124.547 67.2569 124.246 66.8243 124.014 66.2751C123.785 65.7274 123.672 65.1122 123.672 64.4279C123.672 63.2374 124.063 62.2555 124.845 61.4823C125.626 60.706 126.629 60.3163 127.855 60.3163C129.092 60.3163 130.093 60.6968 130.859 61.4578C131.624 62.2156 132.007 63.2313 132.007 64.5077ZM126.554 65.7964C126.887 66.1493 127.321 66.3242 127.855 66.3242C128.388 66.3242 128.82 66.1493 129.15 65.7964C129.482 65.4405 129.65 64.9848 129.65 64.4279C129.65 63.868 129.482 63.4123 129.15 63.0594C128.82 62.7081 128.388 62.5317 127.855 62.5317C127.321 62.5317 126.887 62.7081 126.554 63.0594C126.225 63.4123 126.06 63.868 126.06 64.4279C126.06 64.9848 126.225 65.4405 126.554 65.7964Z" fill="url(#paint41_linear_392_3853)"/>
<path d="M137.385 66.1953C137.825 66.1953 138.181 66.048 138.454 65.7534C138.726 65.4589 138.863 65.0216 138.863 64.4402V60.5188H141.22V68.0608C141.22 69.3449 140.863 70.3007 140.152 70.9267C139.439 71.5557 138.51 71.8717 137.367 71.8717C136.402 71.8717 135.581 71.6385 134.906 71.1721C134.23 70.7088 133.798 70.0154 133.612 69.0918H135.969C136.189 69.5735 136.654 69.8159 137.367 69.8159C137.892 69.8159 138.272 69.6825 138.509 69.417C138.744 69.1547 138.863 68.7297 138.863 68.1406V67.4165H138.833C138.393 68.0793 137.758 68.4106 136.927 68.4106C136.002 68.4106 135.207 68.0823 134.54 67.4226C133.876 66.7645 133.545 65.7703 133.545 64.4402V60.5188H135.908V64.4402C135.908 65.6108 136.399 66.1953 137.385 66.1953Z" fill="url(#paint42_linear_392_3853)"/>
</g>
<defs>
<filter id="filter0_dd_392_3853" x="0" y="0" width="220" height="85" filterUnits="userSpaceOnUse" color-interpolation-filters="sRGB">
<feFlood flood-opacity="0" result="BackgroundImageFix"/>
<feColorMatrix in="SourceAlpha" type="matrix" values="0 0 0 0 0 0 0 0 0 0 0 0 0 0 0 0 0 0 127 0" result="hardAlpha"/>
<feOffset dx="-4" dy="-4"/>
<feGaussianBlur stdDeviation="2.5"/>
<feComposite in2="hardAlpha" operator="out"/>
<feColorMatrix type="matrix" values="0 0 0 0 1 0 0 0 0 1 0 0 0 0 1 0 0 0 1 0"/>
<feBlend mode="normal" in2="BackgroundImageFix" result="effect1_dropShadow_392_3853"/>
<feColorMatrix in="SourceAlpha" type="matrix" values="0 0 0 0 0 0 0 0 0 0 0 0 0 0 0 0 0 0 127 0" result="hardAlpha"/>
<feOffset dx="4" dy="4"/>
<feGaussianBlur stdDeviation="2.5"/>
<feComposite in2="hardAlpha" operator="out"/>
<feColorMatrix type="matrix" values="0 0 0 0 0.819608 0 0 0 0 0.85098 0 0 0 0 0.901961 0 0 0 1 0"/>
<feBlend mode="normal" in2="effect1_dropShadow_392_3853" result="effect2_dropShadow_392_3853"/>
<feBlend mode="normal" in="SourceGraphic" in2="effect2_dropShadow_392_3853" result="shape"/>
</filter>
<linearGradient id="paint0_linear_392_3853" x1="9" y1="42.4959" x2="211" y2="42.4959" gradientUnits="userSpaceOnUse">
<stop stop-color="#1758F1"/>
<stop offset="1" stop-color="#36D8E0"/>
</linearGradient>
<linearGradient id="paint1_linear_392_3853" x1="9" y1="42.4959" x2="211" y2="42.4959" gradientUnits="userSpaceOnUse">
<stop stop-color="#1758F1"/>
<stop offset="1" stop-color="#36D8E0"/>
</linearGradient>
<linearGradient id="paint2_linear_392_3853" x1="9" y1="42.4959" x2="211" y2="42.4959" gradientUnits="userSpaceOnUse">
<stop stop-color="#1758F1"/>
<stop offset="1" stop-color="#36D8E0"/>
</linearGradient>
<linearGradient id="paint3_linear_392_3853" x1="9" y1="42.4959" x2="211" y2="42.4959" gradientUnits="userSpaceOnUse">
<stop stop-color="#1758F1"/>
<stop offset="1" stop-color="#36D8E0"/>
</linearGradient>
<linearGradient id="paint4_linear_392_3853" x1="9" y1="42.4959" x2="211" y2="42.4959" gradientUnits="userSpaceOnUse">
<stop stop-color="#1758F1"/>
<stop offset="1" stop-color="#36D8E0"/>
</linearGradient>
<linearGradient id="paint5_linear_392_3853" x1="9" y1="42.4959" x2="211" y2="42.4959" gradientUnits="userSpaceOnUse">
<stop stop-color="#1758F1"/>
<stop offset="1" stop-color="#36D8E0"/>
</linearGradient>
<linearGradient id="paint6_linear_392_3853" x1="9" y1="42.4959" x2="211" y2="42.4959" gradientUnits="userSpaceOnUse">
<stop stop-color="#1758F1"/>
<stop offset="1" stop-color="#36D8E0"/>
</linearGradient>
<linearGradient id="paint7_linear_392_3853" x1="9" y1="42.4959" x2="211" y2="42.4959" gradientUnits="userSpaceOnUse">
<stop stop-color="#1758F1"/>
<stop offset="1" stop-color="#36D8E0"/>
</linearGradient>
<linearGradient id="paint8_linear_392_3853" x1="9" y1="42.4959" x2="211" y2="42.4959" gradientUnits="userSpaceOnUse">
<stop stop-color="#1758F1"/>
<stop offset="1" stop-color="#36D8E0"/>
</linearGradient>
<linearGradient id="paint9_linear_392_3853" x1="9" y1="42.4959" x2="211" y2="42.4959" gradientUnits="userSpaceOnUse">
<stop stop-color="#1758F1"/>
<stop offset="1" stop-color="#36D8E0"/>
</linearGradient>
<linearGradient id="paint10_linear_392_3853" x1="9" y1="42.4959" x2="211" y2="42.4959" gradientUnits="userSpaceOnUse">
<stop stop-color="#1758F1"/>
<stop offset="1" stop-color="#36D8E0"/>
</linearGradient>
<linearGradient id="paint11_linear_392_3853" x1="9" y1="42.4959" x2="211" y2="42.4959" gradientUnits="userSpaceOnUse">
<stop stop-color="#1758F1"/>
<stop offset="1" stop-color="#36D8E0"/>
</linearGradient>
<linearGradient id="paint12_linear_392_3853" x1="9" y1="42.4959" x2="211" y2="42.4959" gradientUnits="userSpaceOnUse">
<stop stop-color="#1758F1"/>
<stop offset="1" stop-color="#36D8E0"/>
</linearGradient>
<linearGradient id="paint13_linear_392_3853" x1="9" y1="42.4959" x2="211" y2="42.4959" gradientUnits="userSpaceOnUse">
<stop stop-color="#1758F1"/>
<stop offset="1" stop-color="#36D8E0"/>
</linearGradient>
<linearGradient id="paint14_linear_392_3853" x1="9" y1="42.4959" x2="211" y2="42.4959" gradientUnits="userSpaceOnUse">
<stop stop-color="#1758F1"/>
<stop offset="1" stop-color="#36D8E0"/>
</linearGradient>
<linearGradient id="paint15_linear_392_3853" x1="9" y1="42.4959" x2="211" y2="42.4959" gradientUnits="userSpaceOnUse">
<stop stop-color="#1758F1"/>
<stop offset="1" stop-color="#36D8E0"/>
</linearGradient>
<linearGradient id="paint16_linear_392_3853" x1="9" y1="42.4959" x2="211" y2="42.4959" gradientUnits="userSpaceOnUse">
<stop stop-color="#1758F1"/>
<stop offset="1" stop-color="#36D8E0"/>
</linearGradient>
<linearGradient id="paint17_linear_392_3853" x1="9" y1="42.4959" x2="211" y2="42.4959" gradientUnits="userSpaceOnUse">
<stop stop-color="#1758F1"/>
<stop offset="1" stop-color="#36D8E0"/>
</linearGradient>
<linearGradient id="paint18_linear_392_3853" x1="9" y1="42.4959" x2="211" y2="42.4959" gradientUnits="userSpaceOnUse">
<stop stop-color="#1758F1"/>
<stop offset="1" stop-color="#36D8E0"/>
</linearGradient>
<linearGradient id="paint19_linear_392_3853" x1="9" y1="42.4959" x2="211" y2="42.4959" gradientUnits="userSpaceOnUse">
<stop stop-color="#1758F1"/>
<stop offset="1" stop-color="#36D8E0"/>
</linearGradient>
<linearGradient id="paint20_linear_392_3853" x1="9" y1="42.4959" x2="211" y2="42.4959" gradientUnits="userSpaceOnUse">
<stop stop-color="#1758F1"/>
<stop offset="1" stop-color="#36D8E0"/>
</linearGradient>
<linearGradient id="paint21_linear_392_3853" x1="9" y1="42.4959" x2="211" y2="42.4959" gradientUnits="userSpaceOnUse">
<stop stop-color="#1758F1"/>
<stop offset="1" stop-color="#36D8E0"/>
</linearGradient>
<linearGradient id="paint22_linear_392_3853" x1="9" y1="42.4959" x2="211" y2="42.4959" gradientUnits="userSpaceOnUse">
<stop stop-color="#1758F1"/>
<stop offset="1" stop-color="#36D8E0"/>
</linearGradient>
<linearGradient id="paint23_linear_392_3853" x1="9" y1="42.4959" x2="211" y2="42.4959" gradientUnits="userSpaceOnUse">
<stop stop-color="#1758F1"/>
<stop offset="1" stop-color="#36D8E0"/>
</linearGradient>
<linearGradient id="paint24_linear_392_3853" x1="9" y1="42.4959" x2="211" y2="42.4959" gradientUnits="userSpaceOnUse">
<stop stop-color="#1758F1"/>
<stop offset="1" stop-color="#36D8E0"/>
</linearGradient>
<linearGradient id="paint25_linear_392_3853" x1="9" y1="42.4959" x2="211" y2="42.4959" gradientUnits="userSpaceOnUse">
<stop stop-color="#1758F1"/>
<stop offset="1" stop-color="#36D8E0"/>
</linearGradient>
<linearGradient id="paint26_linear_392_3853" x1="9" y1="42.4959" x2="211" y2="42.4959" gradientUnits="userSpaceOnUse">
<stop stop-color="#1758F1"/>
<stop offset="1" stop-color="#36D8E0"/>
</linearGradient>
<linearGradient id="paint27_linear_392_3853" x1="9" y1="42.4959" x2="211" y2="42.4959" gradientUnits="userSpaceOnUse">
<stop stop-color="#1758F1"/>
<stop offset="1" stop-color="#36D8E0"/>
</linearGradient>
<linearGradient id="paint28_linear_392_3853" x1="9" y1="42.4959" x2="211" y2="42.4959" gradientUnits="userSpaceOnUse">
<stop stop-color="#1758F1"/>
<stop offset="1" stop-color="#36D8E0"/>
</linearGradient>
<linearGradient id="paint29_linear_392_3853" x1="9" y1="42.4959" x2="211" y2="42.4959" gradientUnits="userSpaceOnUse">
<stop stop-color="#1758F1"/>
<stop offset="1" stop-color="#36D8E0"/>
</linearGradient>
<linearGradient id="paint30_linear_392_3853" x1="9" y1="42.4959" x2="211" y2="42.4959" gradientUnits="userSpaceOnUse">
<stop stop-color="#1758F1"/>
<stop offset="1" stop-color="#36D8E0"/>
</linearGradient>
<linearGradient id="paint31_linear_392_3853" x1="9" y1="42.4959" x2="211" y2="42.4959" gradientUnits="userSpaceOnUse">
<stop stop-color="#1758F1"/>
<stop offset="1" stop-color="#36D8E0"/>
</linearGradient>
<linearGradient id="paint32_linear_392_3853" x1="9" y1="42.4959" x2="211" y2="42.4959" gradientUnits="userSpaceOnUse">
<stop stop-color="#1758F1"/>
<stop offset="1" stop-color="#36D8E0"/>
</linearGradient>
<linearGradient id="paint33_linear_392_3853" x1="9" y1="42.4959" x2="211" y2="42.4959" gradientUnits="userSpaceOnUse">
<stop stop-color="#1758F1"/>
<stop offset="1" stop-color="#36D8E0"/>
</linearGradient>
<linearGradient id="paint34_linear_392_3853" x1="9" y1="42.4959" x2="211" y2="42.4959" gradientUnits="userSpaceOnUse">
<stop stop-color="#1758F1"/>
<stop offset="1" stop-color="#36D8E0"/>
</linearGradient>
<linearGradient id="paint35_linear_392_3853" x1="9" y1="42.4959" x2="211" y2="42.4959" gradientUnits="userSpaceOnUse">
<stop stop-color="#1758F1"/>
<stop offset="1" stop-color="#36D8E0"/>
</linearGradient>
<linearGradient id="paint36_linear_392_3853" x1="9" y1="42.4959" x2="211" y2="42.4959" gradientUnits="userSpaceOnUse">
<stop stop-color="#1758F1"/>
<stop offset="1" stop-color="#36D8E0"/>
</linearGradient>
<linearGradient id="paint37_linear_392_3853" x1="9" y1="42.4959" x2="211" y2="42.4959" gradientUnits="userSpaceOnUse">
<stop stop-color="#1758F1"/>
<stop offset="1" stop-color="#36D8E0"/>
</linearGradient>
<linearGradient id="paint38_linear_392_3853" x1="9" y1="42.4959" x2="211" y2="42.4959" gradientUnits="userSpaceOnUse">
<stop stop-color="#1758F1"/>
<stop offset="1" stop-color="#36D8E0"/>
</linearGradient>
<linearGradient id="paint39_linear_392_3853" x1="9" y1="42.4959" x2="211" y2="42.4959" gradientUnits="userSpaceOnUse">
<stop stop-color="#1758F1"/>
<stop offset="1" stop-color="#36D8E0"/>
</linearGradient>
<linearGradient id="paint40_linear_392_3853" x1="9" y1="42.4959" x2="211" y2="42.4959" gradientUnits="userSpaceOnUse">
<stop stop-color="#1758F1"/>
<stop offset="1" stop-color="#36D8E0"/>
</linearGradient>
<linearGradient id="paint41_linear_392_3853" x1="9" y1="42.4959" x2="211" y2="42.4959" gradientUnits="userSpaceOnUse">
<stop stop-color="#1758F1"/>
<stop offset="1" stop-color="#36D8E0"/>
</linearGradient>
<linearGradient id="paint42_linear_392_3853" x1="9" y1="42.4959" x2="211" y2="42.4959" gradientUnits="userSpaceOnUse">
<stop stop-color="#1758F1"/>
<stop offset="1" stop-color="#36D8E0"/>
</linearGradient>
</defs>
</svg>
